{"glyphs":{"0":{"ha":799,"x_min":69,"x_max":729,"o":"m 399 0 q 221 65 294 0 q 108 251 147 129 q 69 543 69 372 q 108 835 69 714 q 221 1022 147 957 q 399 1086 294 1086 q 578 1020 504 1086 q 691 833 653 954 q 729 543 729 711 q 691 253 729 375 q 578 66 653 132 q 399 0 504 0 m 399 131 q 512 184 468 131 q 578 331 556 238 q 600 543 600 425 q 578 755 600 661 q 511 903 556 849 q 399 957 467 957 q 288 903 332 957 q 221 756 243 850 q 199 543 199 663 q 221 331 199 424 q 288 184 243 238 q 399 131 332 131 z "},"1":{"ha":538,"x_min":51,"x_max":399,"o":"m 333 0 q 289 19 308 0 q 269 64 269 38 l 269 933 l 154 888 q 117 879 133 879 q 70 897 89 879 q 51 942 51 915 q 61 979 51 963 q 93 1003 71 996 l 308 1079 q 323 1083 315 1082 q 336 1085 331 1085 q 382 1067 365 1085 q 399 1019 399 1049 l 399 64 q 380 19 399 38 q 333 0 361 0 z "},"2":{"ha":813,"x_min":90,"x_max":744,"o":"m 158 0 q 112 19 131 0 q 93 64 93 38 q 111 110 93 92 l 515 585 q 577 674 556 629 q 599 757 599 718 q 576 866 599 819 q 512 939 554 913 q 414 965 469 965 q 314 937 358 965 q 244 861 269 908 q 219 757 219 814 q 201 713 219 732 q 154 694 182 694 q 109 713 128 694 q 90 757 90 732 q 133 925 90 851 q 249 1042 175 999 q 414 1085 322 1085 q 576 1044 507 1085 q 685 931 646 1004 q 724 757 724 857 q 706 668 724 713 q 662 583 689 624 q 606 510 635 543 l 274 129 l 679 129 q 726 109 707 129 q 744 64 744 89 q 726 19 744 38 q 679 0 707 0 l 158 0 z "},"3":{"ha":825,"x_min":76,"x_max":763,"o":"m 426 -3 q 246 40 325 -3 q 122 158 167 83 q 76 328 76 233 q 93 375 76 356 q 136 394 110 394 q 178 375 161 394 q 194 328 194 356 q 224 219 194 268 q 306 141 254 169 q 421 113 357 113 q 576 167 518 113 q 635 314 635 221 q 608 424 635 376 q 536 500 582 472 q 432 528 490 528 q 387 547 406 528 q 368 593 368 565 q 387 639 368 621 q 432 657 406 657 q 513 679 475 657 q 576 738 551 701 q 600 819 600 774 q 553 929 600 885 q 432 974 506 974 q 332 952 376 974 q 262 894 288 931 q 236 814 236 858 q 219 765 236 785 q 176 746 203 746 q 135 765 151 746 q 118 811 118 783 q 159 952 118 889 q 270 1052 200 1015 q 429 1089 340 1089 q 576 1053 511 1089 q 680 957 642 1018 q 718 819 718 896 q 694 725 718 768 q 633 650 671 682 q 553 599 596 618 q 672 533 625 575 q 740 434 718 490 q 763 313 763 378 q 717 151 763 222 q 596 38 672 79 q 426 -3 519 -3 z "},"4":{"ha":904,"x_min":24,"x_max":847,"o":"m 625 0 q 583 19 600 0 q 565 64 565 38 l 565 251 l 89 251 q 44 269 61 251 q 26 310 28 286 q 38 353 24 333 l 576 1058 q 599 1078 586 1071 q 629 1085 611 1085 q 672 1066 656 1085 q 689 1019 689 1047 l 689 367 l 783 367 q 828 354 810 367 q 847 308 847 342 q 828 269 847 286 q 783 251 810 251 l 689 251 l 689 64 q 672 19 689 38 q 625 0 654 0 m 163 328 l 132 367 l 565 367 l 565 949 l 601 903 l 163 328 z "},"5":{"ha":872,"x_min":90,"x_max":796,"o":"m 443 0 q 263 47 342 0 q 137 173 183 93 q 90 354 90 253 q 108 400 90 382 q 153 418 126 418 q 201 400 182 418 q 219 354 219 382 q 249 239 219 290 q 328 158 278 188 q 443 129 379 129 q 558 158 507 129 q 638 239 608 188 q 667 354 667 290 q 638 469 667 418 q 558 549 608 519 q 443 578 507 578 l 207 578 q 161 597 179 578 q 143 643 143 615 l 143 1019 q 161 1066 143 1047 q 207 1085 179 1085 l 679 1085 q 724 1065 706 1085 q 743 1021 743 1046 q 725 976 743 994 q 679 957 707 957 l 271 957 l 271 707 l 443 707 q 624 660 544 707 q 749 534 703 614 q 796 354 796 454 q 749 174 796 254 q 624 47 703 93 q 443 0 544 0 z "},"6":{"ha":806,"x_min":90,"x_max":743,"o":"m 418 0 q 248 42 322 0 q 132 159 174 85 q 90 328 90 233 q 132 498 90 424 q 248 615 174 572 q 418 657 322 657 q 586 615 513 657 q 701 498 660 572 q 743 328 743 424 q 701 159 743 233 q 586 42 660 85 q 418 0 513 0 m 417 115 q 522 142 476 115 q 595 218 568 169 q 622 328 622 267 q 595 438 622 390 q 522 514 568 486 q 417 542 476 542 q 310 514 357 542 q 238 438 264 486 q 213 328 213 390 q 238 218 213 267 q 310 142 264 169 q 417 115 357 115 m 133 501 l 464 1049 q 522 1083 486 1083 q 566 1069 549 1083 q 588 1031 583 1054 q 579 986 593 1008 l 369 640 l 133 501 z "},"7":{"ha":771,"x_min":54,"x_max":725,"o":"m 210 0 q 165 19 183 0 q 146 64 146 38 q 149 83 146 74 q 158 106 153 93 l 563 957 l 118 957 q 72 975 90 957 q 54 1021 54 993 q 72 1067 54 1049 q 118 1085 90 1085 l 661 1085 q 706 1066 688 1085 q 725 1021 725 1047 q 722 1004 725 1013 q 717 986 719 996 l 268 36 q 210 0 249 0 z "},"8":{"ha":814,"x_min":85,"x_max":729,"o":"m 407 -1 q 242 42 315 -1 q 127 161 169 86 q 85 332 85 236 q 127 496 85 424 q 242 610 169 568 q 407 651 315 651 q 572 610 499 651 q 687 496 644 568 q 728 332 729 424 q 685 162 728 238 q 571 42 643 86 q 407 -1 499 -1 m 407 115 q 506 144 463 115 q 576 222 550 172 q 601 332 601 271 q 577 437 603 390 q 508 510 551 483 q 407 538 464 538 q 307 510 351 538 q 238 437 263 483 q 213 332 213 390 q 237 222 213 271 q 306 144 261 174 q 407 115 351 115 m 407 557 q 267 592 329 557 q 170 685 206 626 q 135 819 135 744 q 170 958 135 897 q 267 1055 206 1019 q 407 1090 329 1090 q 547 1057 486 1092 q 644 960 608 1022 q 678 819 679 899 q 642 685 678 744 q 545 592 607 626 q 407 557 483 557 m 408 663 q 482 685 449 663 q 535 743 515 707 q 554 824 554 779 q 536 901 556 867 q 483 954 517 935 q 407 974 450 974 q 303 931 344 974 q 260 824 261 888 q 301 709 258 756 q 408 663 343 663 z "},"9":{"ha":806,"x_min":63,"x_max":715,"o":"m 389 1086 q 558 1044 485 1086 q 674 927 632 1001 q 715 758 715 853 q 674 589 715 664 q 558 472 632 514 q 389 429 485 429 q 220 472 294 429 q 104 589 146 514 q 63 758 63 664 q 104 927 63 853 q 219 1044 146 1001 q 389 1086 293 1086 m 389 971 q 283 944 329 971 q 211 869 238 917 q 185 758 185 821 q 211 648 185 696 q 283 572 238 600 q 389 544 329 544 q 495 572 449 544 q 568 648 542 600 q 594 758 594 696 q 568 869 594 821 q 495 944 542 917 q 389 971 449 971 m 671 585 l 342 38 q 283 3 319 3 q 240 17 258 3 q 218 56 222 32 q 226 101 214 79 l 436 446 l 671 585 z "},"A":{"ha":976,"x_min":17,"x_max":965,"o":"m 89 0 q 35 31 53 0 q 32 94 17 61 l 429 1040 q 490 1085 447 1085 q 553 1040 536 1085 l 951 92 q 947 29 965 58 q 892 0 928 0 q 857 10 874 0 q 832 40 840 21 l 472 924 l 513 924 l 150 40 q 125 10 142 19 q 89 0 108 0 m 169 246 l 221 356 l 772 356 l 822 246 l 169 246 z "},"Á":{"ha":976,"x_min":17,"x_max":965,"o":"m 89 0 q 35 31 53 0 q 32 94 17 61 l 429 1040 q 490 1085 447 1085 q 553 1040 536 1085 l 951 92 q 947 29 965 58 q 892 0 928 0 q 857 10 874 0 q 832 40 840 21 l 472 924 l 513 924 l 150 40 q 125 10 142 19 q 89 0 108 0 m 169 246 l 221 356 l 772 356 l 822 246 l 169 246 m 488 1203 q 442 1222 461 1203 q 424 1267 424 1240 q 439 1310 424 1293 l 583 1454 q 628 1472 601 1472 q 675 1453 657 1472 q 693 1407 693 1435 q 689 1383 693 1394 q 675 1363 685 1372 l 532 1219 q 488 1203 515 1203 z "},"Ă":{"ha":976,"x_min":17,"x_max":965,"o":"m 89 0 q 35 31 53 0 q 32 94 17 61 l 429 1040 q 490 1085 447 1085 q 553 1040 536 1085 l 951 92 q 947 29 965 58 q 892 0 928 0 q 857 10 874 0 q 832 40 840 21 l 472 924 l 513 924 l 150 40 q 125 10 142 19 q 89 0 108 0 m 169 246 l 221 356 l 772 356 l 822 246 l 169 246 m 489 1179 q 377 1201 428 1179 q 296 1262 326 1224 q 265 1349 265 1300 q 283 1394 265 1375 q 326 1413 300 1413 q 369 1398 350 1413 q 388 1358 388 1383 q 418 1305 388 1326 q 489 1283 449 1283 q 562 1305 535 1283 q 589 1358 589 1326 q 608 1398 589 1383 q 651 1413 626 1413 q 694 1394 678 1413 q 711 1349 711 1376 q 679 1261 710 1300 q 599 1201 649 1222 q 489 1179 549 1179 z "},"Ắ":{"ha":976,"x_min":17,"x_max":965,"o":"m 89 0 q 35 31 53 0 q 32 94 17 61 l 429 1040 q 490 1085 447 1085 q 553 1040 536 1085 l 951 92 q 947 29 965 58 q 892 0 928 0 q 857 10 874 0 q 832 40 840 21 l 472 924 l 513 924 l 150 40 q 125 10 142 19 q 89 0 108 0 m 169 246 l 221 356 l 772 356 l 822 246 l 169 246 m 488 1179 q 376 1201 426 1179 q 296 1263 326 1224 q 265 1349 265 1301 q 282 1394 265 1376 q 326 1413 299 1413 q 369 1398 350 1413 q 388 1358 388 1383 q 418 1306 388 1328 q 488 1283 449 1283 q 561 1305 535 1283 q 588 1358 588 1326 q 606 1398 588 1383 q 650 1413 625 1413 q 694 1394 678 1413 q 710 1349 710 1376 q 679 1261 710 1300 q 599 1201 649 1222 q 488 1179 549 1179 m 488 1442 q 442 1460 461 1442 q 424 1506 424 1478 q 439 1549 424 1532 l 583 1693 q 628 1711 601 1711 q 675 1692 657 1711 q 693 1646 693 1674 q 689 1622 693 1633 q 675 1601 685 1610 l 532 1458 q 488 1442 515 1442 z "},"Ặ":{"ha":976,"x_min":17,"x_max":965,"o":"m 89 0 q 35 31 53 0 q 32 94 17 61 l 429 1040 q 490 1085 447 1085 q 553 1040 536 1085 l 951 92 q 947 29 965 58 q 892 0 928 0 q 857 10 874 0 q 832 40 840 21 l 472 924 l 513 924 l 150 40 q 125 10 142 19 q 89 0 108 0 m 169 246 l 221 356 l 772 356 l 822 246 l 169 246 m 489 1179 q 377 1201 428 1179 q 296 1262 326 1224 q 265 1349 265 1300 q 283 1394 265 1375 q 326 1413 300 1413 q 369 1398 350 1413 q 388 1358 388 1383 q 418 1305 388 1326 q 489 1283 449 1283 q 562 1305 535 1283 q 589 1358 589 1326 q 608 1398 589 1383 q 651 1413 626 1413 q 694 1394 678 1413 q 711 1349 711 1376 q 679 1261 710 1300 q 599 1201 649 1222 q 489 1179 549 1179 m 488 -303 q 428 -278 453 -303 q 403 -217 403 -253 q 428 -156 403 -181 q 489 -132 454 -132 q 548 -156 522 -132 q 574 -217 574 -181 q 549 -278 574 -253 q 488 -303 524 -303 z "},"Ằ":{"ha":976,"x_min":17,"x_max":965,"o":"m 89 0 q 35 31 53 0 q 32 94 17 61 l 429 1040 q 490 1085 447 1085 q 553 1040 536 1085 l 951 92 q 947 29 965 58 q 892 0 928 0 q 857 10 874 0 q 832 40 840 21 l 472 924 l 513 924 l 150 40 q 125 10 142 19 q 89 0 108 0 m 169 246 l 221 356 l 772 356 l 822 246 l 169 246 m 488 1179 q 376 1201 426 1179 q 296 1263 326 1224 q 265 1349 265 1301 q 282 1394 265 1376 q 326 1413 299 1413 q 369 1398 350 1413 q 388 1358 388 1383 q 418 1306 388 1328 q 488 1283 449 1283 q 561 1305 535 1283 q 588 1358 588 1326 q 606 1398 588 1383 q 650 1413 625 1413 q 694 1394 678 1413 q 710 1349 710 1376 q 679 1261 710 1300 q 599 1201 649 1222 q 488 1179 549 1179 m 485 1444 q 442 1463 458 1444 l 297 1604 q 281 1649 281 1622 q 299 1696 281 1676 q 344 1715 317 1715 q 390 1696 371 1715 l 533 1551 q 550 1510 550 1536 q 532 1463 550 1481 q 485 1444 514 1444 z "},"Ẳ":{"ha":976,"x_min":17,"x_max":965,"o":"m 89 0 q 35 31 53 0 q 32 94 17 61 l 429 1040 q 490 1085 447 1085 q 553 1040 536 1085 l 951 92 q 947 29 965 58 q 892 0 928 0 q 857 10 874 0 q 832 40 840 21 l 472 924 l 513 924 l 150 40 q 125 10 142 19 q 89 0 108 0 m 169 246 l 221 356 l 772 356 l 822 246 l 169 246 m 488 1179 q 376 1201 426 1179 q 296 1263 326 1224 q 265 1349 265 1301 q 282 1394 265 1376 q 326 1413 299 1413 q 369 1398 350 1413 q 388 1358 388 1383 q 418 1306 388 1328 q 488 1283 449 1283 q 561 1305 535 1283 q 588 1358 588 1326 q 606 1398 588 1383 q 650 1413 625 1413 q 694 1394 678 1413 q 710 1349 710 1376 q 679 1261 710 1300 q 599 1201 649 1222 q 488 1179 549 1179 m 488 1397 q 447 1414 464 1397 q 431 1454 431 1431 l 431 1488 q 482 1551 431 1539 l 517 1558 q 558 1579 543 1565 q 574 1617 574 1593 q 556 1659 574 1644 q 511 1674 539 1674 q 475 1667 492 1674 q 447 1651 458 1660 q 428 1641 440 1644 q 406 1638 415 1638 q 372 1649 386 1638 q 357 1683 357 1661 q 376 1728 357 1711 q 436 1762 404 1750 q 508 1774 468 1774 q 628 1730 582 1774 q 675 1621 675 1686 q 632 1522 676 1554 q 525 1481 588 1489 l 544 1475 q 528 1416 544 1435 q 488 1397 513 1397 z "},"Ẵ":{"ha":976,"x_min":17,"x_max":965,"o":"m 89 0 q 35 31 53 0 q 32 94 17 61 l 429 1040 q 490 1085 447 1085 q 553 1040 536 1085 l 951 92 q 947 29 965 58 q 892 0 928 0 q 857 10 874 0 q 832 40 840 21 l 472 924 l 513 924 l 150 40 q 125 10 142 19 q 89 0 108 0 m 169 246 l 221 356 l 772 356 l 822 246 l 169 246 m 489 1179 q 377 1201 428 1179 q 296 1263 326 1224 q 265 1349 265 1301 q 283 1394 265 1376 q 328 1413 300 1413 q 369 1398 350 1413 q 388 1358 388 1383 q 419 1306 388 1328 q 489 1283 450 1283 q 562 1305 535 1283 q 589 1358 589 1326 q 608 1398 589 1383 q 651 1413 626 1413 q 694 1394 678 1413 q 711 1349 711 1376 q 679 1261 710 1300 q 599 1201 649 1222 q 489 1179 549 1179 m 583 1443 q 519 1459 549 1443 q 467 1499 490 1475 q 438 1524 450 1514 q 411 1533 425 1533 q 385 1522 396 1533 q 363 1489 375 1510 q 331 1461 351 1469 q 289 1461 311 1453 q 260 1492 268 1471 q 264 1535 251 1513 q 326 1613 292 1589 q 401 1638 360 1638 q 474 1617 447 1638 q 519 1579 500 1596 q 549 1557 539 1563 q 569 1551 560 1551 q 603 1576 588 1551 q 636 1607 615 1597 q 678 1608 657 1617 q 711 1576 703 1597 q 706 1532 719 1554 q 650 1464 681 1485 q 583 1443 619 1443 z "},"Â":{"ha":976,"x_min":17,"x_max":965,"o":"m 89 0 q 35 31 53 0 q 32 94 17 61 l 429 1040 q 490 1085 447 1085 q 553 1040 536 1085 l 951 92 q 947 29 965 58 q 892 0 928 0 q 857 10 874 0 q 832 40 840 21 l 472 924 l 513 924 l 150 40 q 125 10 142 19 q 89 0 108 0 m 169 246 l 221 356 l 772 356 l 822 246 l 169 246 m 332 1189 q 285 1204 304 1189 q 267 1243 267 1219 q 297 1299 267 1276 l 457 1403 q 489 1413 472 1413 q 506 1410 499 1413 q 522 1403 514 1408 l 681 1299 q 711 1243 711 1276 q 693 1204 711 1219 q 647 1189 675 1189 q 626 1192 635 1189 q 606 1203 617 1196 l 489 1285 l 372 1203 q 332 1189 354 1189 z "},"Ấ":{"ha":976,"x_min":17,"x_max":965,"o":"m 89 0 q 35 31 53 0 q 32 94 17 61 l 429 1040 q 490 1085 447 1085 q 553 1040 536 1085 l 951 92 q 947 29 965 58 q 892 0 928 0 q 857 10 874 0 q 832 40 840 21 l 472 924 l 513 924 l 150 40 q 125 10 142 19 q 89 0 108 0 m 169 246 l 221 356 l 772 356 l 822 246 l 169 246 m 332 1189 q 285 1204 304 1189 q 267 1243 267 1219 q 297 1299 267 1276 l 456 1403 q 489 1413 471 1413 q 506 1410 499 1413 q 522 1403 514 1408 l 679 1299 q 710 1243 710 1276 q 692 1204 710 1219 q 647 1189 675 1189 q 625 1192 635 1189 q 606 1203 615 1196 l 489 1285 l 371 1203 q 332 1189 353 1189 m 628 1415 q 583 1434 601 1415 q 564 1481 564 1453 q 579 1524 564 1507 l 724 1668 q 768 1686 742 1686 q 815 1667 797 1686 q 833 1621 833 1649 q 829 1597 833 1608 q 815 1576 825 1585 l 672 1433 q 628 1415 654 1415 z "},"Ậ":{"ha":976,"x_min":17,"x_max":965,"o":"m 89 0 q 35 31 53 0 q 32 94 17 61 l 429 1040 q 490 1085 447 1085 q 553 1040 536 1085 l 951 92 q 947 29 965 58 q 892 0 928 0 q 857 10 874 0 q 832 40 840 21 l 472 924 l 513 924 l 150 40 q 125 10 142 19 q 89 0 108 0 m 169 246 l 221 356 l 772 356 l 822 246 l 169 246 m 332 1189 q 285 1204 304 1189 q 267 1243 267 1219 q 297 1299 267 1276 l 457 1403 q 489 1413 472 1413 q 506 1410 499 1413 q 522 1403 514 1408 l 681 1299 q 711 1243 711 1276 q 693 1204 711 1219 q 647 1189 675 1189 q 626 1192 635 1189 q 606 1203 617 1196 l 489 1285 l 372 1203 q 332 1189 354 1189 m 488 -303 q 428 -278 453 -303 q 403 -217 403 -253 q 428 -156 403 -181 q 489 -132 454 -132 q 548 -156 522 -132 q 574 -217 574 -181 q 549 -278 574 -253 q 488 -303 524 -303 z "},"Ầ":{"ha":976,"x_min":17,"x_max":965,"o":"m 89 0 q 35 31 53 0 q 32 94 17 61 l 429 1040 q 490 1085 447 1085 q 553 1040 536 1085 l 951 92 q 947 29 965 58 q 892 0 928 0 q 857 10 874 0 q 832 40 840 21 l 472 924 l 513 924 l 150 40 q 125 10 142 19 q 89 0 108 0 m 169 246 l 221 356 l 772 356 l 822 246 l 169 246 m 332 1189 q 285 1204 304 1189 q 267 1243 267 1219 q 297 1299 267 1276 l 456 1403 q 489 1413 471 1413 q 506 1410 499 1413 q 522 1403 514 1408 l 679 1299 q 710 1243 710 1276 q 692 1204 710 1219 q 647 1189 675 1189 q 625 1192 635 1189 q 606 1203 615 1196 l 489 1285 l 371 1203 q 332 1189 353 1189 m 626 1419 q 582 1438 599 1419 l 438 1579 q 422 1624 422 1597 q 440 1671 422 1651 q 485 1690 457 1690 q 532 1671 511 1690 l 674 1526 q 690 1485 690 1511 q 672 1438 690 1456 q 626 1419 653 1419 z "},"Ẩ":{"ha":976,"x_min":17,"x_max":965,"o":"m 89 0 q 35 31 53 0 q 32 94 17 61 l 429 1040 q 490 1085 447 1085 q 553 1040 536 1085 l 951 92 q 947 29 965 58 q 892 0 928 0 q 857 10 874 0 q 832 40 840 21 l 472 924 l 513 924 l 150 40 q 125 10 142 19 q 89 0 108 0 m 169 246 l 221 356 l 772 356 l 822 246 l 169 246 m 339 1189 q 292 1204 311 1189 q 274 1243 274 1219 q 304 1299 274 1276 l 463 1403 q 496 1413 478 1413 q 513 1410 506 1413 q 529 1403 521 1408 l 686 1299 q 717 1243 717 1276 q 699 1204 717 1219 q 654 1189 682 1189 q 632 1192 642 1189 q 613 1203 622 1196 l 496 1285 l 378 1203 q 339 1189 360 1189 m 636 1371 q 594 1388 611 1371 q 578 1429 578 1406 l 578 1463 q 629 1525 578 1514 l 665 1533 q 706 1553 690 1539 q 722 1592 722 1568 q 704 1634 722 1619 q 658 1649 686 1649 q 622 1642 639 1649 q 594 1626 606 1635 q 574 1615 586 1619 q 553 1611 563 1611 q 519 1623 533 1611 q 504 1658 504 1635 q 525 1703 504 1686 q 583 1736 551 1725 q 656 1747 615 1747 q 776 1704 729 1747 q 822 1596 822 1661 q 779 1497 824 1529 q 672 1456 735 1464 l 693 1450 q 676 1390 693 1410 q 636 1371 660 1371 z "},"Ẫ":{"ha":976,"x_min":17,"x_max":965,"o":"m 89 0 q 35 31 53 0 q 32 94 17 61 l 429 1040 q 490 1085 447 1085 q 553 1040 536 1085 l 951 92 q 947 29 965 58 q 892 0 928 0 q 857 10 874 0 q 832 40 840 21 l 472 924 l 513 924 l 150 40 q 125 10 142 19 q 89 0 108 0 m 169 246 l 221 356 l 772 356 l 822 246 l 169 246 m 338 1189 q 291 1204 310 1189 q 272 1243 272 1219 q 303 1299 272 1276 l 463 1403 q 494 1413 478 1413 q 512 1410 504 1413 q 528 1403 519 1408 l 685 1299 q 717 1243 717 1276 q 699 1204 717 1219 q 653 1189 681 1189 q 631 1192 640 1189 q 611 1203 621 1196 l 494 1285 l 376 1203 q 338 1189 360 1189 m 575 1449 q 512 1465 540 1449 q 460 1503 483 1481 q 429 1528 442 1519 q 403 1538 417 1538 q 377 1526 388 1538 q 356 1494 367 1514 q 323 1467 343 1475 q 282 1467 303 1458 q 251 1497 260 1476 q 256 1540 243 1518 q 317 1617 283 1593 q 394 1642 351 1642 q 465 1621 439 1642 q 511 1585 492 1600 q 542 1562 531 1568 q 563 1556 553 1556 q 594 1582 581 1556 q 628 1612 607 1603 q 669 1613 649 1621 q 703 1581 694 1603 q 697 1538 711 1560 q 642 1469 672 1490 q 575 1449 613 1449 z "},"Ȁ":{"ha":976,"x_min":17,"x_max":965,"o":"m 89 0 q 35 31 53 0 q 32 94 17 61 l 429 1040 q 490 1085 447 1085 q 553 1040 536 1085 l 951 92 q 947 29 965 58 q 892 0 928 0 q 857 10 874 0 q 832 40 840 21 l 472 924 l 513 924 l 150 40 q 125 10 142 19 q 89 0 108 0 m 169 246 l 221 356 l 772 356 l 822 246 l 169 246 m 632 1186 q 583 1218 600 1186 l 504 1388 q 499 1413 499 1399 q 517 1456 499 1436 q 564 1476 536 1476 q 601 1465 585 1476 q 624 1436 618 1454 l 679 1257 q 682 1238 682 1247 q 665 1199 682 1213 q 632 1186 649 1186 m 429 1186 q 381 1218 397 1186 l 300 1388 q 297 1401 297 1394 q 294 1413 296 1407 q 313 1456 294 1436 q 360 1476 332 1476 q 397 1465 381 1476 q 419 1436 414 1454 l 476 1257 q 478 1247 478 1253 q 479 1238 479 1242 q 463 1199 479 1213 q 429 1186 446 1186 z "},"Ä":{"ha":976,"x_min":17,"x_max":965,"o":"m 89 0 q 35 31 53 0 q 32 94 17 61 l 429 1040 q 490 1085 447 1085 q 553 1040 536 1085 l 951 92 q 947 29 965 58 q 892 0 928 0 q 857 10 874 0 q 832 40 840 21 l 472 924 l 513 924 l 150 40 q 125 10 142 19 q 89 0 108 0 m 169 246 l 221 356 l 772 356 l 822 246 l 169 246 m 339 1210 q 281 1233 306 1210 q 257 1290 257 1257 q 281 1347 257 1322 q 339 1371 306 1371 q 396 1347 372 1371 q 419 1290 419 1322 q 396 1233 419 1257 q 339 1210 372 1210 m 640 1210 q 583 1233 607 1210 q 560 1290 560 1257 q 583 1347 560 1322 q 640 1371 607 1371 q 697 1347 674 1371 q 721 1290 721 1322 q 697 1233 721 1257 q 640 1210 674 1210 z "},"Ạ":{"ha":976,"x_min":17,"x_max":965,"o":"m 89 0 q 35 31 53 0 q 32 94 17 61 l 429 1040 q 490 1085 447 1085 q 553 1040 536 1085 l 951 92 q 947 29 965 58 q 892 0 928 0 q 857 10 874 0 q 832 40 840 21 l 472 924 l 513 924 l 150 40 q 125 10 142 19 q 89 0 108 0 m 169 246 l 221 356 l 772 356 l 822 246 l 169 246 m 488 -303 q 428 -278 453 -303 q 403 -217 403 -253 q 428 -156 403 -181 q 489 -132 454 -132 q 548 -156 522 -132 q 574 -217 574 -181 q 549 -278 574 -253 q 488 -303 524 -303 z "},"À":{"ha":976,"x_min":17,"x_max":965,"o":"m 89 0 q 35 31 53 0 q 32 94 17 61 l 429 1040 q 490 1085 447 1085 q 553 1040 536 1085 l 951 92 q 947 29 965 58 q 892 0 928 0 q 857 10 874 0 q 832 40 840 21 l 472 924 l 513 924 l 150 40 q 125 10 142 19 q 89 0 108 0 m 169 246 l 221 356 l 772 356 l 822 246 l 169 246 m 486 1206 q 443 1224 460 1206 l 299 1367 q 282 1411 282 1383 q 300 1458 282 1439 q 344 1476 318 1476 q 392 1457 372 1476 l 535 1313 q 551 1271 551 1297 q 533 1224 551 1243 q 486 1206 514 1206 z "},"Ả":{"ha":976,"x_min":17,"x_max":965,"o":"m 89 0 q 35 31 53 0 q 32 94 17 61 l 429 1040 q 490 1085 447 1085 q 553 1040 536 1085 l 951 92 q 947 29 965 58 q 892 0 928 0 q 857 10 874 0 q 832 40 840 21 l 472 924 l 513 924 l 150 40 q 125 10 142 19 q 89 0 108 0 m 169 246 l 221 356 l 772 356 l 822 246 l 169 246 m 489 1158 q 447 1175 464 1158 q 431 1215 431 1192 l 431 1250 q 482 1313 431 1301 l 518 1319 q 559 1340 543 1326 q 575 1378 575 1354 q 557 1421 575 1407 q 511 1435 539 1435 q 475 1428 492 1435 q 447 1413 458 1421 q 428 1402 439 1406 q 406 1399 417 1399 q 372 1410 386 1399 q 357 1446 357 1422 q 376 1490 357 1474 q 436 1523 404 1511 q 508 1535 468 1535 q 628 1492 582 1535 q 675 1383 675 1449 q 632 1283 676 1315 q 525 1243 588 1251 l 546 1238 q 529 1178 546 1197 q 489 1158 513 1158 z "},"Ȃ":{"ha":976,"x_min":17,"x_max":965,"o":"m 89 0 q 35 31 53 0 q 32 94 17 61 l 429 1040 q 490 1085 447 1085 q 553 1040 536 1085 l 951 92 q 947 29 965 58 q 892 0 928 0 q 857 10 874 0 q 832 40 840 21 l 472 924 l 513 924 l 150 40 q 125 10 142 19 q 89 0 108 0 m 169 246 l 221 356 l 772 356 l 822 246 l 169 246 m 326 1179 q 282 1197 299 1179 q 265 1243 265 1215 q 295 1330 265 1292 q 376 1390 325 1368 q 489 1413 426 1413 q 599 1390 549 1413 q 679 1331 649 1368 q 710 1243 710 1293 q 694 1197 710 1215 q 650 1179 678 1179 q 606 1194 625 1179 q 588 1233 588 1208 q 561 1286 588 1265 q 489 1307 535 1307 q 418 1285 449 1307 q 388 1233 388 1264 q 369 1194 388 1208 q 326 1179 350 1179 z "},"Ā":{"ha":976,"x_min":17,"x_max":965,"o":"m 89 0 q 35 31 53 0 q 32 94 17 61 l 429 1040 q 490 1085 447 1085 q 553 1040 536 1085 l 951 92 q 947 29 965 58 q 892 0 928 0 q 857 10 874 0 q 832 40 840 21 l 472 924 l 513 924 l 150 40 q 125 10 142 19 q 89 0 108 0 m 169 246 l 221 356 l 772 356 l 822 246 l 169 246 m 311 1228 q 265 1244 283 1228 q 247 1288 247 1260 q 265 1329 247 1314 q 311 1344 283 1344 l 664 1344 q 710 1329 690 1344 q 729 1288 729 1314 q 710 1244 729 1260 q 664 1228 690 1228 l 311 1228 z "},"Ą":{"ha":976,"x_min":17,"x_max":1057,"o":"m 89 0 q 35 31 53 0 q 32 94 17 61 l 429 1040 q 490 1085 447 1085 q 553 1040 536 1085 l 951 92 q 947 29 965 58 q 892 0 928 0 q 857 10 874 0 q 832 40 840 21 l 472 924 l 513 924 l 150 40 q 125 10 142 19 q 89 0 108 0 m 169 246 l 221 356 l 772 356 l 822 246 l 169 246 m 886 -337 q 803 -315 842 -337 q 741 -253 764 -292 q 718 -168 718 -215 q 788 -31 718 -89 q 815 -6 806 -18 q 831 18 825 7 q 886 51 849 51 q 932 34 914 51 q 951 -11 950 17 q 929 -72 951 -42 q 864 -135 907 -103 q 850 -150 854 -140 q 846 -168 846 -160 q 858 -197 846 -186 q 886 -208 869 -208 q 899 -207 893 -208 q 908 -203 904 -206 l 953 -169 q 992 -157 972 -157 q 1038 -175 1021 -157 q 1056 -221 1056 -193 q 1033 -272 1056 -251 l 981 -308 q 886 -337 938 -337 z "},"Å":{"ha":976,"x_min":17,"x_max":965,"o":"m 89 0 q 35 31 53 0 q 32 94 17 61 l 429 1040 q 490 1085 447 1085 q 553 1040 536 1085 l 951 92 q 947 29 965 58 q 892 0 928 0 q 857 10 874 0 q 832 40 840 21 l 472 924 l 513 924 l 150 40 q 125 10 142 19 q 89 0 108 0 m 169 246 l 221 356 l 772 356 l 822 246 l 169 246 m 489 1143 q 387 1183 428 1143 q 346 1286 346 1224 q 387 1390 346 1349 q 489 1431 428 1431 q 592 1390 551 1431 q 633 1286 633 1349 q 593 1184 633 1225 q 489 1143 553 1143 m 489 1214 q 541 1235 521 1214 q 561 1286 561 1256 q 541 1339 561 1318 q 489 1360 521 1360 q 438 1339 458 1360 q 417 1286 417 1318 q 438 1235 417 1256 q 489 1214 458 1214 z "},"Ǻ":{"ha":976,"x_min":17,"x_max":965,"o":"m 89 0 q 35 31 53 0 q 32 94 17 61 l 429 1040 q 490 1085 447 1085 q 553 1040 536 1085 l 951 92 q 947 29 965 58 q 892 0 928 0 q 857 10 874 0 q 832 40 840 21 l 472 924 l 513 924 l 150 40 q 125 10 142 19 q 89 0 108 0 m 169 246 l 221 356 l 772 356 l 822 246 l 169 246 m 489 1143 q 387 1183 428 1143 q 346 1286 346 1224 q 387 1390 346 1349 q 489 1431 428 1431 q 592 1390 551 1431 q 633 1286 633 1349 q 593 1184 633 1225 q 489 1143 553 1143 m 489 1214 q 541 1235 521 1214 q 561 1286 561 1256 q 541 1339 561 1318 q 489 1360 521 1360 q 438 1339 458 1360 q 417 1286 417 1318 q 438 1235 417 1256 q 489 1214 458 1214 m 488 1483 q 442 1502 461 1483 q 424 1547 424 1521 q 439 1590 424 1574 l 583 1735 q 628 1753 601 1753 q 675 1734 657 1753 q 693 1688 693 1715 q 689 1664 693 1675 q 675 1643 685 1653 l 532 1500 q 488 1483 515 1483 z "},"Ã":{"ha":976,"x_min":17,"x_max":965,"o":"m 89 0 q 35 31 53 0 q 32 94 17 61 l 429 1040 q 490 1085 447 1085 q 553 1040 536 1085 l 951 92 q 947 29 965 58 q 892 0 928 0 q 857 10 874 0 q 832 40 840 21 l 472 924 l 513 924 l 150 40 q 125 10 142 19 q 89 0 108 0 m 169 246 l 221 356 l 772 356 l 822 246 l 169 246 m 582 1204 q 518 1220 547 1204 q 467 1260 489 1236 q 437 1285 449 1276 q 410 1294 425 1294 q 384 1283 394 1294 q 363 1251 374 1271 q 330 1222 350 1231 q 289 1224 310 1214 q 258 1254 267 1233 q 263 1297 250 1275 q 324 1374 290 1350 q 401 1399 358 1399 q 472 1378 446 1399 q 518 1340 499 1357 q 549 1319 538 1325 q 569 1313 560 1313 q 601 1339 586 1313 q 635 1369 614 1360 q 676 1369 656 1378 q 710 1337 701 1358 q 704 1294 718 1315 q 648 1225 678 1246 q 582 1204 618 1204 z "},"Æ":{"ha":1368,"x_min":22,"x_max":1306,"o":"m 92 0 q 51 15 68 0 q 28 51 33 29 q 35 94 22 74 l 617 1042 q 647 1073 629 1061 q 692 1085 665 1085 l 1242 1085 q 1288 1067 1271 1085 q 1306 1022 1306 1050 q 1288 980 1306 997 q 1242 963 1271 963 l 744 963 l 744 607 l 1083 607 q 1129 590 1111 607 q 1147 546 1147 572 q 1129 502 1147 519 q 1083 485 1111 485 l 744 485 l 744 122 l 1242 122 q 1288 105 1271 122 q 1306 63 1306 88 q 1288 17 1306 35 q 1242 0 1271 0 l 679 0 q 633 19 651 0 q 614 65 614 38 l 614 246 l 278 246 l 153 40 q 92 0 129 0 m 344 356 l 614 356 l 614 860 l 647 861 l 344 356 z "},"Ǽ":{"ha":1368,"x_min":22,"x_max":1306,"o":"m 92 0 q 51 15 68 0 q 28 51 33 29 q 35 94 22 74 l 617 1042 q 647 1073 629 1061 q 692 1085 665 1085 l 1242 1085 q 1288 1067 1271 1085 q 1306 1022 1306 1050 q 1288 980 1306 997 q 1242 963 1271 963 l 744 963 l 744 607 l 1083 607 q 1129 590 1111 607 q 1147 546 1147 572 q 1129 502 1147 519 q 1083 485 1111 485 l 744 485 l 744 122 l 1242 122 q 1288 105 1271 122 q 1306 63 1306 88 q 1288 17 1306 35 q 1242 0 1271 0 l 679 0 q 633 19 651 0 q 614 65 614 38 l 614 246 l 278 246 l 153 40 q 92 0 129 0 m 344 356 l 614 356 l 614 860 l 647 861 l 344 356 m 865 1203 q 820 1222 839 1203 q 801 1267 801 1240 q 817 1310 801 1293 l 961 1454 q 1006 1472 979 1472 q 1053 1453 1035 1472 q 1071 1407 1071 1435 q 1067 1383 1071 1394 q 1053 1363 1063 1372 l 910 1219 q 865 1203 893 1203 z "},"B":{"ha":989,"x_min":139,"x_max":913,"o":"m 207 0 q 158 19 178 0 q 139 65 139 38 l 139 1019 q 158 1067 139 1049 q 204 1085 176 1085 l 539 1085 q 698 1049 628 1085 q 808 949 768 1013 q 849 801 849 885 q 810 674 849 731 q 708 588 772 618 q 856 497 800 564 q 913 325 913 431 q 868 156 913 229 q 745 42 824 83 q 565 0 667 0 l 207 0 m 269 122 l 565 122 q 680 146 631 122 q 758 215 729 169 q 786 325 786 260 q 758 428 786 386 q 680 492 729 469 q 565 514 631 514 l 269 514 l 269 122 m 269 636 l 539 636 q 672 678 619 636 q 724 801 724 721 q 672 922 724 882 q 539 963 619 963 l 269 963 l 269 636 z "},"C":{"ha":1075,"x_min":88,"x_max":986,"o":"m 625 -14 q 415 28 513 -14 q 244 147 317 71 q 129 325 171 224 q 88 543 88 426 q 128 759 88 658 q 243 936 169 860 q 414 1056 317 1013 q 625 1099 511 1099 q 808 1070 729 1099 q 965 978 888 1042 q 981 959 976 969 q 985 938 986 949 q 981 918 985 928 q 963 885 979 897 q 926 872 947 872 q 883 886 904 871 q 772 956 831 932 q 625 979 714 979 q 466 944 540 979 q 335 850 392 910 q 246 711 278 790 q 214 543 214 632 q 246 373 214 451 q 335 234 278 294 q 466 140 392 174 q 625 107 540 107 q 764 131 699 107 q 888 200 829 156 q 932 215 910 217 q 969 197 954 213 q 985 153 985 181 q 981 128 985 140 q 965 107 976 117 q 806 15 893 44 q 625 -14 719 -14 z "},"Ć":{"ha":1075,"x_min":88,"x_max":986,"o":"m 625 -14 q 415 28 513 -14 q 244 147 317 71 q 129 325 171 224 q 88 543 88 426 q 128 759 88 658 q 243 936 169 860 q 414 1056 317 1013 q 625 1099 511 1099 q 808 1070 729 1099 q 965 978 888 1042 q 981 959 976 969 q 985 938 986 949 q 981 918 985 928 q 963 885 979 897 q 926 872 947 872 q 883 886 904 871 q 772 956 831 932 q 625 979 714 979 q 466 944 540 979 q 335 850 392 910 q 246 711 278 790 q 214 543 214 632 q 246 373 214 451 q 335 234 278 294 q 466 140 392 174 q 625 107 540 107 q 764 131 699 107 q 888 200 829 156 q 932 215 910 217 q 969 197 954 213 q 985 153 985 181 q 981 128 985 140 q 965 107 976 117 q 806 15 893 44 q 625 -14 719 -14 m 621 1203 q 576 1222 594 1203 q 557 1267 557 1240 q 572 1310 557 1293 l 717 1454 q 761 1472 735 1472 q 808 1453 790 1472 q 826 1407 826 1435 q 822 1383 826 1394 q 808 1363 818 1372 l 665 1219 q 621 1203 649 1203 z "},"Č":{"ha":1075,"x_min":88,"x_max":986,"o":"m 625 -14 q 415 28 513 -14 q 244 147 317 71 q 129 325 171 224 q 88 543 88 426 q 128 759 88 658 q 243 936 169 860 q 414 1056 317 1013 q 625 1099 511 1099 q 808 1070 729 1099 q 965 978 888 1042 q 981 959 976 969 q 985 938 986 949 q 981 918 985 928 q 963 885 979 897 q 926 872 947 872 q 883 886 904 871 q 772 956 831 932 q 625 979 714 979 q 466 944 540 979 q 335 850 392 910 q 246 711 278 790 q 214 543 214 632 q 246 373 214 451 q 335 234 278 294 q 466 140 392 174 q 625 107 540 107 q 764 131 699 107 q 888 200 829 156 q 932 215 910 217 q 969 197 954 213 q 985 153 985 181 q 981 128 985 140 q 965 107 976 117 q 806 15 893 44 q 625 -14 719 -14 m 622 1200 q 590 1210 603 1200 l 431 1315 q 400 1369 400 1338 q 431 1409 400 1397 q 506 1392 463 1421 l 622 1313 l 739 1392 q 816 1410 788 1424 q 844 1369 844 1396 q 814 1315 844 1338 l 656 1210 q 622 1200 642 1200 z "},"Ç":{"ha":1075,"x_min":88,"x_max":986,"o":"m 625 -14 q 415 28 513 -14 q 244 147 317 71 q 129 325 171 224 q 88 543 88 426 q 128 759 88 658 q 243 936 169 860 q 414 1056 317 1013 q 625 1099 511 1099 q 808 1070 729 1099 q 965 978 888 1042 q 981 959 976 969 q 985 938 986 949 q 981 918 985 928 q 963 885 979 897 q 926 872 947 872 q 883 886 904 871 q 772 956 831 932 q 625 979 714 979 q 466 944 540 979 q 335 850 392 910 q 246 711 278 790 q 214 543 214 632 q 246 373 214 451 q 335 234 278 294 q 466 140 392 174 q 625 107 540 107 q 764 131 699 107 q 888 200 829 156 q 932 215 910 217 q 969 197 954 213 q 985 153 985 181 q 981 128 985 140 q 965 107 976 117 q 806 15 893 44 q 625 -14 719 -14 m 608 -325 q 476 -291 528 -325 q 425 -212 425 -257 q 443 -170 425 -187 q 486 -153 461 -153 q 513 -160 501 -153 q 533 -185 525 -168 q 563 -217 543 -206 q 610 -228 583 -228 q 658 -215 639 -228 q 676 -178 676 -201 q 662 -136 676 -151 q 611 -114 647 -121 q 555 -87 571 -107 q 554 -26 539 -68 l 571 19 q 597 57 579 43 q 643 71 615 71 q 691 49 675 71 q 693 -1 707 28 l 672 -49 q 776 -98 744 -65 q 807 -181 807 -131 q 782 -250 807 -217 q 713 -304 757 -283 q 608 -325 668 -325 z "},"Ĉ":{"ha":1075,"x_min":88,"x_max":986,"o":"m 625 -14 q 415 28 513 -14 q 244 147 317 71 q 129 325 171 224 q 88 543 88 426 q 128 759 88 658 q 243 936 169 860 q 414 1056 317 1013 q 625 1099 511 1099 q 808 1070 729 1099 q 965 978 888 1042 q 981 959 976 969 q 985 938 986 949 q 981 918 985 928 q 963 885 979 897 q 926 872 947 872 q 883 886 904 871 q 772 956 831 932 q 625 979 714 979 q 466 944 540 979 q 335 850 392 910 q 246 711 278 790 q 214 543 214 632 q 246 373 214 451 q 335 234 278 294 q 466 140 392 174 q 625 107 540 107 q 764 131 699 107 q 888 200 829 156 q 932 215 910 217 q 969 197 954 213 q 985 153 985 181 q 981 128 985 140 q 965 107 976 117 q 806 15 893 44 q 625 -14 719 -14 m 465 1189 q 419 1204 438 1189 q 400 1243 400 1219 q 431 1299 400 1276 l 590 1403 q 622 1413 606 1413 q 640 1410 632 1413 q 656 1403 647 1408 l 814 1299 q 844 1243 844 1276 q 826 1204 844 1219 q 781 1189 808 1189 q 759 1192 768 1189 q 739 1203 750 1196 l 622 1285 l 506 1203 q 465 1189 488 1189 z "},"Ċ":{"ha":1075,"x_min":88,"x_max":986,"o":"m 625 -14 q 415 28 513 -14 q 244 147 317 71 q 129 325 171 224 q 88 543 88 426 q 128 759 88 658 q 243 936 169 860 q 414 1056 317 1013 q 625 1099 511 1099 q 808 1070 729 1099 q 965 978 888 1042 q 981 959 976 969 q 985 938 986 949 q 981 918 985 928 q 963 885 979 897 q 926 872 947 872 q 883 886 904 871 q 772 956 831 932 q 625 979 714 979 q 466 944 540 979 q 335 850 392 910 q 246 711 278 790 q 214 543 214 632 q 246 373 214 451 q 335 234 278 294 q 466 140 392 174 q 625 107 540 107 q 764 131 699 107 q 888 200 829 156 q 932 215 910 217 q 969 197 954 213 q 985 153 985 181 q 981 128 985 140 q 965 107 976 117 q 806 15 893 44 q 625 -14 719 -14 m 621 1217 q 561 1242 586 1217 q 536 1303 536 1267 q 562 1363 536 1339 q 622 1388 588 1388 q 681 1363 656 1388 q 707 1303 707 1339 q 682 1242 707 1267 q 621 1217 657 1217 z "},"D":{"ha":1081,"x_min":139,"x_max":994,"o":"m 204 0 q 158 19 176 0 q 139 65 139 38 l 139 1019 q 158 1067 139 1049 q 204 1085 176 1085 l 456 1085 q 673 1045 575 1085 q 843 933 771 1006 q 955 761 915 860 q 994 543 994 663 q 955 324 994 424 q 843 152 915 225 q 673 40 771 79 q 456 0 575 0 l 204 0 m 269 117 l 456 117 q 669 172 576 117 q 815 323 761 226 q 868 543 868 419 q 815 764 868 668 q 669 914 761 860 q 456 968 576 968 l 269 968 l 269 117 z "},"Ð":{"ha":1081,"x_min":-1,"x_max":994,"o":"m 63 486 q 17 501 35 486 q -1 543 -1 517 q 17 585 -1 569 q 63 600 35 600 l 458 600 q 506 585 488 600 q 524 543 524 569 q 506 501 524 517 q 458 486 488 486 l 63 486 m 204 0 q 158 19 176 0 q 139 65 139 38 l 139 1019 q 158 1067 139 1049 q 204 1085 176 1085 l 456 1085 q 673 1045 575 1085 q 843 933 771 1006 q 955 761 915 860 q 994 543 994 663 q 955 324 994 424 q 843 152 915 225 q 673 40 771 79 q 456 0 575 0 l 204 0 m 269 117 l 456 117 q 669 172 576 117 q 815 323 761 226 q 868 543 868 419 q 815 764 868 668 q 669 914 761 860 q 456 968 576 968 l 269 968 l 269 117 z "},"Ď":{"ha":1081,"x_min":139,"x_max":994,"o":"m 204 0 q 158 19 176 0 q 139 65 139 38 l 139 1019 q 158 1067 139 1049 q 204 1085 176 1085 l 456 1085 q 673 1045 575 1085 q 843 933 771 1006 q 955 761 915 860 q 994 543 994 663 q 955 324 994 424 q 843 152 915 225 q 673 40 771 79 q 456 0 575 0 l 204 0 m 269 117 l 456 117 q 669 172 576 117 q 815 323 761 226 q 868 543 868 419 q 815 764 868 668 q 669 914 761 860 q 456 968 576 968 l 269 968 l 269 117 m 542 1200 q 510 1210 522 1200 l 350 1315 q 319 1369 319 1338 q 351 1409 319 1397 q 425 1392 382 1421 l 542 1313 l 658 1392 q 735 1410 707 1424 q 764 1369 764 1396 q 733 1315 764 1338 l 575 1210 q 542 1200 561 1200 z "},"Đ":{"ha":1081,"x_min":-1,"x_max":994,"o":"m 63 486 q 17 501 35 486 q -1 543 -1 517 q 17 585 -1 569 q 63 600 35 600 l 458 600 q 506 585 488 600 q 524 543 524 569 q 506 501 524 517 q 458 486 488 486 l 63 486 m 204 0 q 158 19 176 0 q 139 65 139 38 l 139 1019 q 158 1067 139 1049 q 204 1085 176 1085 l 456 1085 q 673 1045 575 1085 q 843 933 771 1006 q 955 761 915 860 q 994 543 994 663 q 955 324 994 424 q 843 152 915 225 q 673 40 771 79 q 456 0 575 0 l 204 0 m 269 117 l 456 117 q 669 172 576 117 q 815 323 761 226 q 868 543 868 419 q 815 764 868 668 q 669 914 761 860 q 456 968 576 968 l 269 968 l 269 117 z "},"E":{"ha":968,"x_min":139,"x_max":906,"o":"m 204 0 q 158 19 176 0 q 139 65 139 38 l 139 1019 q 158 1067 139 1049 q 204 1085 176 1085 l 842 1085 q 888 1067 869 1085 q 906 1022 906 1050 q 888 980 906 997 q 842 963 869 963 l 269 963 l 269 607 l 682 607 q 728 590 711 607 q 746 546 746 572 q 728 502 746 519 q 682 485 711 485 l 269 485 l 269 122 l 842 122 q 888 105 869 122 q 906 63 906 88 q 888 17 906 35 q 842 0 869 0 l 204 0 z "},"É":{"ha":968,"x_min":139,"x_max":906,"o":"m 204 0 q 158 19 176 0 q 139 65 139 38 l 139 1019 q 158 1067 139 1049 q 204 1085 176 1085 l 842 1085 q 888 1067 869 1085 q 906 1022 906 1050 q 888 980 906 997 q 842 963 869 963 l 269 963 l 269 607 l 682 607 q 728 590 711 607 q 746 546 746 572 q 728 502 746 519 q 682 485 711 485 l 269 485 l 269 122 l 842 122 q 888 105 869 122 q 906 63 906 88 q 888 17 906 35 q 842 0 869 0 l 204 0 m 535 1203 q 490 1222 508 1203 q 471 1267 471 1240 q 486 1310 471 1293 l 631 1454 q 675 1472 649 1472 q 722 1453 704 1472 q 740 1407 740 1435 q 736 1383 740 1394 q 722 1363 732 1372 l 579 1219 q 535 1203 563 1203 z "},"Ĕ":{"ha":968,"x_min":139,"x_max":906,"o":"m 204 0 q 158 19 176 0 q 139 65 139 38 l 139 1019 q 158 1067 139 1049 q 204 1085 176 1085 l 842 1085 q 888 1067 869 1085 q 906 1022 906 1050 q 888 980 906 997 q 842 963 869 963 l 269 963 l 269 607 l 682 607 q 728 590 711 607 q 746 546 746 572 q 728 502 746 519 q 682 485 711 485 l 269 485 l 269 122 l 842 122 q 888 105 869 122 q 906 63 906 88 q 888 17 906 35 q 842 0 869 0 l 204 0 m 538 1179 q 426 1201 476 1179 q 344 1262 375 1224 q 314 1349 314 1300 q 331 1394 314 1375 q 375 1413 349 1413 q 417 1398 399 1413 q 436 1358 436 1383 q 467 1305 436 1326 q 538 1283 497 1283 q 610 1305 583 1283 q 638 1358 638 1326 q 656 1398 638 1383 q 700 1413 675 1413 q 743 1394 726 1413 q 760 1349 760 1376 q 728 1261 758 1300 q 647 1201 697 1222 q 538 1179 597 1179 z "},"Ě":{"ha":968,"x_min":139,"x_max":906,"o":"m 204 0 q 158 19 176 0 q 139 65 139 38 l 139 1019 q 158 1067 139 1049 q 204 1085 176 1085 l 842 1085 q 888 1067 869 1085 q 906 1022 906 1050 q 888 980 906 997 q 842 963 869 963 l 269 963 l 269 607 l 682 607 q 728 590 711 607 q 746 546 746 572 q 728 502 746 519 q 682 485 711 485 l 269 485 l 269 122 l 842 122 q 888 105 869 122 q 906 63 906 88 q 888 17 906 35 q 842 0 869 0 l 204 0 m 538 1200 q 506 1210 518 1200 l 346 1315 q 315 1369 315 1338 q 347 1409 315 1397 q 421 1392 378 1421 l 538 1313 l 654 1392 q 731 1410 703 1424 q 760 1369 760 1396 q 729 1315 760 1338 l 571 1210 q 538 1200 557 1200 z "},"Ê":{"ha":968,"x_min":139,"x_max":906,"o":"m 204 0 q 158 19 176 0 q 139 65 139 38 l 139 1019 q 158 1067 139 1049 q 204 1085 176 1085 l 842 1085 q 888 1067 869 1085 q 906 1022 906 1050 q 888 980 906 997 q 842 963 869 963 l 269 963 l 269 607 l 682 607 q 728 590 711 607 q 746 546 746 572 q 728 502 746 519 q 682 485 711 485 l 269 485 l 269 122 l 842 122 q 888 105 869 122 q 906 63 906 88 q 888 17 906 35 q 842 0 869 0 l 204 0 m 381 1189 q 334 1204 353 1189 q 315 1243 315 1219 q 346 1299 315 1276 l 506 1403 q 538 1413 521 1413 q 555 1410 547 1413 q 571 1403 563 1408 l 729 1299 q 760 1243 760 1276 q 742 1204 760 1219 q 696 1189 724 1189 q 674 1192 683 1189 q 654 1203 665 1196 l 538 1285 l 421 1203 q 381 1189 403 1189 z "},"Ế":{"ha":968,"x_min":139,"x_max":906,"o":"m 204 0 q 158 19 176 0 q 139 65 139 38 l 139 1019 q 158 1067 139 1049 q 204 1085 176 1085 l 842 1085 q 888 1067 869 1085 q 906 1022 906 1050 q 888 980 906 997 q 842 963 869 963 l 269 963 l 269 607 l 682 607 q 728 590 711 607 q 746 546 746 572 q 728 502 746 519 q 682 485 711 485 l 269 485 l 269 122 l 842 122 q 888 105 869 122 q 906 63 906 88 q 888 17 906 35 q 842 0 869 0 l 204 0 m 379 1189 q 333 1204 351 1189 q 314 1243 314 1219 q 344 1299 314 1276 l 503 1403 q 536 1413 518 1413 q 553 1410 546 1413 q 569 1403 561 1408 l 726 1299 q 757 1243 757 1276 q 740 1204 757 1219 q 694 1189 722 1189 q 672 1192 682 1189 q 653 1203 663 1196 l 536 1285 l 418 1203 q 379 1189 400 1189 m 675 1415 q 630 1434 649 1415 q 611 1481 611 1453 q 626 1524 611 1507 l 771 1668 q 815 1686 789 1686 q 863 1667 844 1686 q 881 1621 881 1649 q 876 1597 881 1608 q 863 1576 872 1585 l 719 1433 q 675 1415 701 1415 z "},"Ệ":{"ha":968,"x_min":139,"x_max":906,"o":"m 204 0 q 158 19 176 0 q 139 65 139 38 l 139 1019 q 158 1067 139 1049 q 204 1085 176 1085 l 842 1085 q 888 1067 869 1085 q 906 1022 906 1050 q 888 980 906 997 q 842 963 869 963 l 269 963 l 269 607 l 682 607 q 728 590 711 607 q 746 546 746 572 q 728 502 746 519 q 682 485 711 485 l 269 485 l 269 122 l 842 122 q 888 105 869 122 q 906 63 906 88 q 888 17 906 35 q 842 0 869 0 l 204 0 m 381 1189 q 334 1204 353 1189 q 315 1243 315 1219 q 346 1299 315 1276 l 506 1403 q 538 1413 521 1413 q 555 1410 547 1413 q 571 1403 563 1408 l 729 1299 q 760 1243 760 1276 q 742 1204 760 1219 q 696 1189 724 1189 q 674 1192 683 1189 q 654 1203 665 1196 l 538 1285 l 421 1203 q 381 1189 403 1189 m 508 -303 q 449 -278 474 -303 q 424 -217 424 -253 q 449 -156 424 -181 q 510 -132 475 -132 q 569 -156 543 -132 q 594 -217 594 -181 q 569 -278 594 -253 q 508 -303 544 -303 z "},"Ề":{"ha":968,"x_min":139,"x_max":906,"o":"m 204 0 q 158 19 176 0 q 139 65 139 38 l 139 1019 q 158 1067 139 1049 q 204 1085 176 1085 l 842 1085 q 888 1067 869 1085 q 906 1022 906 1050 q 888 980 906 997 q 842 963 869 963 l 269 963 l 269 607 l 682 607 q 728 590 711 607 q 746 546 746 572 q 728 502 746 519 q 682 485 711 485 l 269 485 l 269 122 l 842 122 q 888 105 869 122 q 906 63 906 88 q 888 17 906 35 q 842 0 869 0 l 204 0 m 379 1189 q 333 1204 351 1189 q 314 1243 314 1219 q 344 1299 314 1276 l 503 1403 q 536 1413 518 1413 q 553 1410 546 1413 q 569 1403 561 1408 l 726 1299 q 757 1243 757 1276 q 740 1204 757 1219 q 694 1189 722 1189 q 672 1192 682 1189 q 653 1203 663 1196 l 536 1285 l 418 1203 q 379 1189 400 1189 m 674 1419 q 629 1438 646 1419 l 485 1579 q 469 1624 469 1597 q 487 1671 469 1651 q 532 1690 504 1690 q 579 1671 558 1690 l 721 1526 q 738 1485 738 1511 q 719 1438 738 1456 q 674 1419 700 1419 z "},"Ể":{"ha":968,"x_min":139,"x_max":906,"o":"m 204 0 q 158 19 176 0 q 139 65 139 38 l 139 1019 q 158 1067 139 1049 q 204 1085 176 1085 l 842 1085 q 888 1067 869 1085 q 906 1022 906 1050 q 888 980 906 997 q 842 963 869 963 l 269 963 l 269 607 l 682 607 q 728 590 711 607 q 746 546 746 572 q 728 502 746 519 q 682 485 711 485 l 269 485 l 269 122 l 842 122 q 888 105 869 122 q 906 63 906 88 q 888 17 906 35 q 842 0 869 0 l 204 0 m 386 1189 q 340 1204 358 1189 q 321 1243 321 1219 q 351 1299 321 1276 l 510 1403 q 543 1413 525 1413 q 560 1410 553 1413 q 576 1403 568 1408 l 733 1299 q 764 1243 764 1276 q 747 1204 764 1219 q 701 1189 729 1189 q 679 1192 689 1189 q 660 1203 669 1196 l 543 1285 l 425 1203 q 386 1189 407 1189 m 683 1371 q 642 1388 658 1371 q 625 1429 625 1406 l 625 1463 q 676 1525 625 1514 l 713 1533 q 753 1553 738 1539 q 769 1592 769 1568 q 751 1634 769 1619 q 706 1649 733 1649 q 669 1642 686 1649 q 642 1626 653 1635 q 622 1615 633 1619 q 600 1611 610 1611 q 566 1623 581 1611 q 551 1658 551 1635 q 572 1703 551 1686 q 631 1736 599 1725 q 703 1747 663 1747 q 823 1704 776 1747 q 869 1596 869 1661 q 826 1497 871 1529 q 719 1456 782 1464 l 740 1450 q 724 1390 740 1410 q 683 1371 707 1371 z "},"Ễ":{"ha":968,"x_min":139,"x_max":906,"o":"m 204 0 q 158 19 176 0 q 139 65 139 38 l 139 1019 q 158 1067 139 1049 q 204 1085 176 1085 l 842 1085 q 888 1067 869 1085 q 906 1022 906 1050 q 888 980 906 997 q 842 963 869 963 l 269 963 l 269 607 l 682 607 q 728 590 711 607 q 746 546 746 572 q 728 502 746 519 q 682 485 711 485 l 269 485 l 269 122 l 842 122 q 888 105 869 122 q 906 63 906 88 q 888 17 906 35 q 842 0 869 0 l 204 0 m 386 1189 q 340 1204 358 1189 q 321 1243 321 1219 q 351 1299 321 1276 l 511 1403 q 543 1413 526 1413 q 560 1410 553 1413 q 576 1403 568 1408 l 733 1299 q 765 1243 765 1276 q 747 1204 765 1219 q 701 1189 729 1189 q 679 1192 689 1189 q 660 1203 669 1196 l 543 1285 l 425 1203 q 386 1189 408 1189 m 624 1449 q 560 1465 589 1449 q 508 1503 532 1481 q 478 1528 490 1519 q 451 1538 465 1538 q 426 1526 436 1538 q 404 1494 415 1514 q 372 1467 392 1475 q 331 1467 351 1458 q 300 1497 308 1476 q 304 1540 292 1518 q 366 1617 332 1593 q 443 1642 400 1642 q 514 1621 488 1642 q 560 1585 540 1600 q 590 1562 579 1568 q 611 1556 601 1556 q 643 1582 629 1556 q 676 1612 656 1603 q 718 1613 697 1621 q 751 1581 743 1603 q 746 1538 760 1560 q 691 1469 721 1490 q 624 1449 661 1449 z "},"Ȅ":{"ha":968,"x_min":139,"x_max":906,"o":"m 204 0 q 158 19 176 0 q 139 65 139 38 l 139 1019 q 158 1067 139 1049 q 204 1085 176 1085 l 842 1085 q 888 1067 869 1085 q 906 1022 906 1050 q 888 980 906 997 q 842 963 869 963 l 269 963 l 269 607 l 682 607 q 728 590 711 607 q 746 546 746 572 q 728 502 746 519 q 682 485 711 485 l 269 485 l 269 122 l 842 122 q 888 105 869 122 q 906 63 906 88 q 888 17 906 35 q 842 0 869 0 l 204 0 m 681 1186 q 632 1218 649 1186 l 553 1388 q 547 1413 547 1399 q 566 1456 547 1436 q 613 1476 585 1476 q 650 1465 633 1476 q 672 1436 667 1454 l 728 1257 q 731 1238 731 1247 q 714 1199 731 1213 q 681 1186 697 1186 m 478 1186 q 429 1218 446 1186 l 349 1388 q 345 1401 346 1394 q 343 1413 344 1407 q 362 1456 343 1436 q 408 1476 381 1476 q 446 1465 429 1476 q 468 1436 463 1454 l 525 1257 q 527 1247 526 1253 q 528 1238 528 1242 q 511 1199 528 1213 q 478 1186 494 1186 z "},"Ë":{"ha":968,"x_min":139,"x_max":906,"o":"m 204 0 q 158 19 176 0 q 139 65 139 38 l 139 1019 q 158 1067 139 1049 q 204 1085 176 1085 l 842 1085 q 888 1067 869 1085 q 906 1022 906 1050 q 888 980 906 997 q 842 963 869 963 l 269 963 l 269 607 l 682 607 q 728 590 711 607 q 746 546 746 572 q 728 502 746 519 q 682 485 711 485 l 269 485 l 269 122 l 842 122 q 888 105 869 122 q 906 63 906 88 q 888 17 906 35 q 842 0 869 0 l 204 0 m 386 1210 q 328 1233 353 1210 q 304 1290 304 1257 q 328 1347 304 1322 q 386 1371 353 1371 q 443 1347 419 1371 q 467 1290 467 1322 q 443 1233 467 1257 q 386 1210 419 1210 m 688 1210 q 631 1233 654 1210 q 607 1290 607 1257 q 631 1347 607 1322 q 688 1371 654 1371 q 744 1347 721 1371 q 768 1290 768 1322 q 744 1233 768 1257 q 688 1210 721 1210 z "},"Ė":{"ha":968,"x_min":139,"x_max":906,"o":"m 204 0 q 158 19 176 0 q 139 65 139 38 l 139 1019 q 158 1067 139 1049 q 204 1085 176 1085 l 842 1085 q 888 1067 869 1085 q 906 1022 906 1050 q 888 980 906 997 q 842 963 869 963 l 269 963 l 269 607 l 682 607 q 728 590 711 607 q 746 546 746 572 q 728 502 746 519 q 682 485 711 485 l 269 485 l 269 122 l 842 122 q 888 105 869 122 q 906 63 906 88 q 888 17 906 35 q 842 0 869 0 l 204 0 m 536 1217 q 476 1242 501 1217 q 451 1303 451 1267 q 477 1363 451 1339 q 538 1388 503 1388 q 597 1363 571 1388 q 622 1303 622 1339 q 597 1242 622 1267 q 536 1217 572 1217 z "},"Ẹ":{"ha":968,"x_min":139,"x_max":906,"o":"m 204 0 q 158 19 176 0 q 139 65 139 38 l 139 1019 q 158 1067 139 1049 q 204 1085 176 1085 l 842 1085 q 888 1067 869 1085 q 906 1022 906 1050 q 888 980 906 997 q 842 963 869 963 l 269 963 l 269 607 l 682 607 q 728 590 711 607 q 746 546 746 572 q 728 502 746 519 q 682 485 711 485 l 269 485 l 269 122 l 842 122 q 888 105 869 122 q 906 63 906 88 q 888 17 906 35 q 842 0 869 0 l 204 0 m 508 -303 q 449 -278 474 -303 q 424 -217 424 -253 q 449 -156 424 -181 q 510 -132 475 -132 q 569 -156 543 -132 q 594 -217 594 -181 q 569 -278 594 -253 q 508 -303 544 -303 z "},"È":{"ha":968,"x_min":139,"x_max":906,"o":"m 204 0 q 158 19 176 0 q 139 65 139 38 l 139 1019 q 158 1067 139 1049 q 204 1085 176 1085 l 842 1085 q 888 1067 869 1085 q 906 1022 906 1050 q 888 980 906 997 q 842 963 869 963 l 269 963 l 269 607 l 682 607 q 728 590 711 607 q 746 546 746 572 q 728 502 746 519 q 682 485 711 485 l 269 485 l 269 122 l 842 122 q 888 105 869 122 q 906 63 906 88 q 888 17 906 35 q 842 0 869 0 l 204 0 m 533 1206 q 490 1224 507 1206 l 346 1367 q 329 1411 329 1383 q 347 1458 329 1439 q 392 1476 365 1476 q 439 1457 419 1476 l 582 1313 q 599 1271 599 1297 q 580 1224 599 1243 q 533 1206 561 1206 z "},"Ẻ":{"ha":968,"x_min":139,"x_max":906,"o":"m 204 0 q 158 19 176 0 q 139 65 139 38 l 139 1019 q 158 1067 139 1049 q 204 1085 176 1085 l 842 1085 q 888 1067 869 1085 q 906 1022 906 1050 q 888 980 906 997 q 842 963 869 963 l 269 963 l 269 607 l 682 607 q 728 590 711 607 q 746 546 746 572 q 728 502 746 519 q 682 485 711 485 l 269 485 l 269 122 l 842 122 q 888 105 869 122 q 906 63 906 88 q 888 17 906 35 q 842 0 869 0 l 204 0 m 538 1158 q 496 1175 513 1158 q 479 1215 479 1192 l 479 1250 q 531 1313 479 1301 l 567 1319 q 608 1340 592 1326 q 624 1378 624 1354 q 606 1421 624 1407 q 560 1435 588 1435 q 524 1428 540 1435 q 496 1413 507 1421 q 476 1402 488 1406 q 454 1399 465 1399 q 420 1410 435 1399 q 406 1446 406 1422 q 425 1490 406 1474 q 485 1523 453 1511 q 557 1535 517 1535 q 677 1492 631 1535 q 724 1383 724 1449 q 681 1283 725 1315 q 574 1243 636 1251 l 594 1238 q 578 1178 594 1197 q 538 1158 561 1158 z "},"Ȇ":{"ha":968,"x_min":139,"x_max":906,"o":"m 204 0 q 158 19 176 0 q 139 65 139 38 l 139 1019 q 158 1067 139 1049 q 204 1085 176 1085 l 842 1085 q 888 1067 869 1085 q 906 1022 906 1050 q 888 980 906 997 q 842 963 869 963 l 269 963 l 269 607 l 682 607 q 728 590 711 607 q 746 546 746 572 q 728 502 746 519 q 682 485 711 485 l 269 485 l 269 122 l 842 122 q 888 105 869 122 q 906 63 906 88 q 888 17 906 35 q 842 0 869 0 l 204 0 m 374 1179 q 329 1197 346 1179 q 313 1243 313 1215 q 342 1330 313 1292 q 423 1390 372 1368 q 536 1413 474 1413 q 646 1390 596 1413 q 726 1331 696 1368 q 757 1243 757 1293 q 741 1197 757 1215 q 697 1179 725 1179 q 653 1194 672 1179 q 635 1233 635 1208 q 608 1286 635 1265 q 536 1307 582 1307 q 465 1285 496 1307 q 435 1233 435 1264 q 416 1194 435 1208 q 374 1179 397 1179 z "},"Ē":{"ha":968,"x_min":139,"x_max":906,"o":"m 204 0 q 158 19 176 0 q 139 65 139 38 l 139 1019 q 158 1067 139 1049 q 204 1085 176 1085 l 842 1085 q 888 1067 869 1085 q 906 1022 906 1050 q 888 980 906 997 q 842 963 869 963 l 269 963 l 269 607 l 682 607 q 728 590 711 607 q 746 546 746 572 q 728 502 746 519 q 682 485 711 485 l 269 485 l 269 122 l 842 122 q 888 105 869 122 q 906 63 906 88 q 888 17 906 35 q 842 0 869 0 l 204 0 m 360 1228 q 314 1244 332 1228 q 296 1288 296 1260 q 314 1329 296 1314 q 360 1344 332 1344 l 713 1344 q 758 1329 739 1344 q 778 1288 778 1314 q 758 1244 778 1260 q 713 1228 739 1228 l 360 1228 z "},"Ę":{"ha":968,"x_min":139,"x_max":1042,"o":"m 204 0 q 158 19 176 0 q 139 65 139 38 l 139 1019 q 158 1067 139 1049 q 204 1085 176 1085 l 842 1085 q 888 1067 869 1085 q 906 1022 906 1050 q 888 980 906 997 q 842 963 869 963 l 269 963 l 269 607 l 682 607 q 728 590 711 607 q 746 546 746 572 q 728 502 746 519 q 682 485 711 485 l 269 485 l 269 122 l 842 122 q 888 105 869 122 q 906 63 906 88 q 888 17 906 35 q 842 0 869 0 l 204 0 m 872 -375 q 789 -352 828 -375 q 727 -291 750 -329 q 704 -206 704 -253 q 774 -68 704 -126 q 801 -43 792 -56 q 817 -19 811 -31 q 872 14 835 14 q 918 -3 900 14 q 938 -49 936 -21 q 915 -110 938 -79 q 850 -172 893 -140 q 836 -187 840 -178 q 832 -206 832 -197 q 844 -235 832 -224 q 872 -246 856 -246 q 885 -244 879 -246 q 894 -240 890 -243 l 939 -207 q 978 -194 958 -194 q 1024 -212 1007 -194 q 1042 -258 1042 -231 q 1019 -310 1042 -289 l 967 -346 q 872 -375 924 -375 z "},"Ẽ":{"ha":968,"x_min":139,"x_max":906,"o":"m 204 0 q 158 19 176 0 q 139 65 139 38 l 139 1019 q 158 1067 139 1049 q 204 1085 176 1085 l 842 1085 q 888 1067 869 1085 q 906 1022 906 1050 q 888 980 906 997 q 842 963 869 963 l 269 963 l 269 607 l 682 607 q 728 590 711 607 q 746 546 746 572 q 728 502 746 519 q 682 485 711 485 l 269 485 l 269 122 l 842 122 q 888 105 869 122 q 906 63 906 88 q 888 17 906 35 q 842 0 869 0 l 204 0 m 683 1192 q 603 1207 638 1192 q 544 1236 569 1222 q 494 1260 515 1253 q 457 1268 474 1268 q 417 1259 435 1268 q 381 1226 399 1250 q 343 1197 365 1206 q 299 1200 321 1188 q 275 1233 279 1210 q 286 1278 271 1257 q 365 1348 318 1324 q 464 1372 411 1372 q 541 1357 508 1372 q 597 1329 574 1342 q 644 1304 628 1311 q 681 1297 661 1297 q 715 1304 700 1297 q 742 1322 731 1311 q 776 1347 760 1340 q 817 1340 793 1354 q 840 1304 838 1329 q 826 1258 843 1279 q 683 1192 772 1192 z "},"F":{"ha":868,"x_min":51,"x_max":818,"o":"m 117 0 q 71 19 90 0 q 51 65 51 38 l 51 1019 q 70 1067 51 1049 q 117 1085 89 1085 l 754 1085 q 801 1067 783 1085 q 818 1022 818 1050 q 801 980 818 997 q 754 963 783 963 l 182 963 l 182 607 l 594 607 q 642 590 624 607 q 660 546 660 572 q 642 502 660 519 q 594 485 624 485 l 182 485 l 182 65 q 163 19 182 38 q 117 0 144 0 z "},"G":{"ha":1075,"x_min":88,"x_max":986,"o":"m 625 -14 q 415 28 513 -14 q 244 147 317 71 q 129 325 171 224 q 88 543 88 426 q 128 759 88 658 q 243 936 169 860 q 414 1056 317 1013 q 625 1099 511 1099 q 808 1070 729 1099 q 965 978 888 1042 q 981 959 976 969 q 985 938 986 949 q 981 918 985 928 q 963 884 979 897 q 925 871 947 871 q 883 886 903 871 q 772 956 831 932 q 625 979 714 979 q 466 944 540 979 q 335 850 392 910 q 246 711 278 790 q 214 543 214 632 q 246 373 214 451 q 335 234 278 294 q 466 140 392 174 q 625 107 540 107 q 764 131 699 107 q 888 200 829 156 q 932 215 910 217 q 969 197 954 213 q 985 153 985 181 q 981 128 985 140 q 965 107 978 117 q 806 15 893 43 q 625 -14 719 -14 m 985 153 l 860 179 l 860 439 l 658 439 q 612 456 631 439 q 593 497 593 472 q 612 538 593 522 q 658 554 631 554 l 921 554 q 967 536 950 554 q 985 490 985 518 l 985 153 z "},"Ğ":{"ha":1075,"x_min":88,"x_max":986,"o":"m 625 -14 q 415 28 513 -14 q 244 147 317 71 q 129 325 171 224 q 88 543 88 426 q 128 759 88 658 q 243 936 169 860 q 414 1056 317 1013 q 625 1099 511 1099 q 808 1070 729 1099 q 965 978 888 1042 q 981 959 976 969 q 985 938 986 949 q 981 918 985 928 q 963 884 979 897 q 925 871 947 871 q 883 886 903 871 q 772 956 831 932 q 625 979 714 979 q 466 944 540 979 q 335 850 392 910 q 246 711 278 790 q 214 543 214 632 q 246 373 214 451 q 335 234 278 294 q 466 140 392 174 q 625 107 540 107 q 764 131 699 107 q 888 200 829 156 q 932 215 910 217 q 969 197 954 213 q 985 153 985 181 q 981 128 985 140 q 965 107 978 117 q 806 15 893 43 q 625 -14 719 -14 m 985 153 l 860 179 l 860 439 l 658 439 q 612 456 631 439 q 593 497 593 472 q 612 538 593 522 q 658 554 631 554 l 921 554 q 967 536 950 554 q 985 490 985 518 l 985 153 m 619 1179 q 508 1201 558 1179 q 426 1262 457 1224 q 396 1349 396 1300 q 413 1394 396 1375 q 457 1413 431 1413 q 499 1398 481 1413 q 518 1358 518 1383 q 549 1305 518 1326 q 619 1283 579 1283 q 692 1305 665 1283 q 719 1358 719 1326 q 738 1398 719 1383 q 782 1413 757 1413 q 825 1394 808 1413 q 842 1349 842 1376 q 810 1261 840 1300 q 729 1201 779 1222 q 619 1179 679 1179 z "},"Ǧ":{"ha":1075,"x_min":88,"x_max":986,"o":"m 625 -14 q 415 28 513 -14 q 244 147 317 71 q 129 325 171 224 q 88 543 88 426 q 128 759 88 658 q 243 936 169 860 q 414 1056 317 1013 q 625 1099 511 1099 q 808 1070 729 1099 q 965 978 888 1042 q 981 959 976 969 q 985 938 986 949 q 981 918 985 928 q 963 884 979 897 q 925 871 947 871 q 883 886 903 871 q 772 956 831 932 q 625 979 714 979 q 466 944 540 979 q 335 850 392 910 q 246 711 278 790 q 214 543 214 632 q 246 373 214 451 q 335 234 278 294 q 466 140 392 174 q 625 107 540 107 q 764 131 699 107 q 888 200 829 156 q 932 215 910 217 q 969 197 954 213 q 985 153 985 181 q 981 128 985 140 q 965 107 978 117 q 806 15 893 43 q 625 -14 719 -14 m 985 153 l 860 179 l 860 439 l 658 439 q 612 456 631 439 q 593 497 593 472 q 612 538 593 522 q 658 554 631 554 l 921 554 q 967 536 950 554 q 985 490 985 518 l 985 153 m 619 1200 q 588 1210 600 1200 l 428 1315 q 397 1369 397 1338 q 428 1409 397 1397 q 503 1392 460 1421 l 619 1313 l 736 1392 q 813 1410 785 1424 q 842 1369 842 1396 q 811 1315 842 1338 l 653 1210 q 619 1200 639 1200 z "},"Ĝ":{"ha":1075,"x_min":88,"x_max":986,"o":"m 625 -14 q 415 28 513 -14 q 244 147 317 71 q 129 325 171 224 q 88 543 88 426 q 128 759 88 658 q 243 936 169 860 q 414 1056 317 1013 q 625 1099 511 1099 q 808 1070 729 1099 q 965 978 888 1042 q 981 959 976 969 q 985 938 986 949 q 981 918 985 928 q 963 884 979 897 q 925 871 947 871 q 883 886 903 871 q 772 956 831 932 q 625 979 714 979 q 466 944 540 979 q 335 850 392 910 q 246 711 278 790 q 214 543 214 632 q 246 373 214 451 q 335 234 278 294 q 466 140 392 174 q 625 107 540 107 q 764 131 699 107 q 888 200 829 156 q 932 215 910 217 q 969 197 954 213 q 985 153 985 181 q 981 128 985 140 q 965 107 978 117 q 806 15 893 43 q 625 -14 719 -14 m 985 153 l 860 179 l 860 439 l 658 439 q 612 456 631 439 q 593 497 593 472 q 612 538 593 522 q 658 554 631 554 l 921 554 q 967 536 950 554 q 985 490 985 518 l 985 153 m 463 1189 q 416 1204 435 1189 q 397 1243 397 1219 q 428 1299 397 1276 l 588 1403 q 619 1413 603 1413 q 637 1410 629 1413 q 653 1403 644 1408 l 811 1299 q 842 1243 842 1276 q 824 1204 842 1219 q 778 1189 806 1189 q 756 1192 765 1189 q 736 1203 747 1196 l 619 1285 l 503 1203 q 463 1189 485 1189 z "},"Ģ":{"ha":1075,"x_min":88,"x_max":986,"o":"m 625 -14 q 415 28 513 -14 q 244 147 317 71 q 129 325 171 224 q 88 543 88 426 q 128 759 88 658 q 243 936 169 860 q 414 1056 317 1013 q 625 1099 511 1099 q 808 1070 729 1099 q 965 978 888 1042 q 981 959 976 969 q 985 938 986 949 q 981 918 985 928 q 963 884 979 897 q 925 871 947 871 q 883 886 903 871 q 772 956 831 932 q 625 979 714 979 q 466 944 540 979 q 335 850 392 910 q 246 711 278 790 q 214 543 214 632 q 246 373 214 451 q 335 234 278 294 q 466 140 392 174 q 625 107 540 107 q 764 131 699 107 q 888 200 829 156 q 932 215 910 217 q 969 197 954 213 q 985 153 985 181 q 981 128 985 140 q 965 107 978 117 q 806 15 893 43 q 625 -14 719 -14 m 985 153 l 860 179 l 860 439 l 658 439 q 612 456 631 439 q 593 497 593 472 q 612 538 593 522 q 658 554 631 554 l 921 554 q 967 536 950 554 q 985 490 985 518 l 985 153 m 604 -339 q 527 -327 567 -339 q 460 -292 488 -315 q 433 -233 433 -268 q 446 -201 433 -212 q 478 -190 458 -190 q 511 -199 499 -190 q 535 -221 524 -208 q 565 -243 547 -233 q 614 -253 582 -253 q 672 -240 654 -253 q 690 -200 690 -228 q 665 -158 690 -174 q 589 -143 640 -143 q 542 -133 560 -143 q 524 -100 524 -122 q 599 -56 524 -56 q 730 -94 679 -56 q 781 -196 781 -133 q 730 -301 781 -262 q 604 -339 679 -339 z "},"Ġ":{"ha":1075,"x_min":88,"x_max":986,"o":"m 625 -14 q 415 28 513 -14 q 244 147 317 71 q 129 325 171 224 q 88 543 88 426 q 128 759 88 658 q 243 936 169 860 q 414 1056 317 1013 q 625 1099 511 1099 q 808 1070 729 1099 q 965 978 888 1042 q 981 959 976 969 q 985 938 986 949 q 981 918 985 928 q 963 884 979 897 q 925 871 947 871 q 883 886 903 871 q 772 956 831 932 q 625 979 714 979 q 466 944 540 979 q 335 850 392 910 q 246 711 278 790 q 214 543 214 632 q 246 373 214 451 q 335 234 278 294 q 466 140 392 174 q 625 107 540 107 q 764 131 699 107 q 888 200 829 156 q 932 215 910 217 q 969 197 954 213 q 985 153 985 181 q 981 128 985 140 q 965 107 978 117 q 806 15 893 43 q 625 -14 719 -14 m 985 153 l 860 179 l 860 439 l 658 439 q 612 456 631 439 q 593 497 593 472 q 612 538 593 522 q 658 554 631 554 l 921 554 q 967 536 950 554 q 985 490 985 518 l 985 153 m 618 1217 q 558 1242 583 1217 q 533 1303 533 1267 q 559 1363 533 1339 q 619 1388 585 1388 q 678 1363 653 1388 q 704 1303 704 1339 q 679 1242 704 1267 q 618 1217 654 1217 z "},"H":{"ha":1196,"x_min":139,"x_max":1057,"o":"m 204 0 q 158 19 176 0 q 139 65 139 38 l 139 1019 q 158 1067 139 1049 q 204 1085 176 1085 q 251 1067 233 1085 q 269 1019 269 1049 l 269 607 l 926 607 l 926 1019 q 945 1067 926 1049 q 992 1085 964 1085 q 1039 1067 1021 1085 q 1057 1019 1057 1049 l 1057 65 q 1039 19 1057 38 q 992 0 1021 0 q 945 19 964 0 q 926 65 926 38 l 926 492 l 269 492 l 269 65 q 251 19 269 38 q 204 0 233 0 z "},"Ħ":{"ha":1196,"x_min":32,"x_max":1167,"o":"m 204 0 q 158 19 176 0 q 139 65 139 38 l 139 1019 q 158 1067 139 1049 q 204 1085 176 1085 q 251 1067 233 1085 q 269 1019 269 1049 l 269 607 l 926 607 l 926 1019 q 945 1067 926 1049 q 992 1085 964 1085 q 1039 1067 1021 1085 q 1057 1019 1057 1049 l 1057 65 q 1039 19 1057 38 q 992 0 1021 0 q 945 19 964 0 q 926 65 926 38 l 926 492 l 269 492 l 269 65 q 251 19 269 38 q 204 0 233 0 m 94 799 q 50 808 68 799 q 32 844 32 818 q 50 881 32 871 q 94 890 68 890 l 1103 890 q 1149 881 1132 890 q 1167 844 1167 871 q 1149 808 1167 818 q 1103 799 1132 799 l 94 799 z "},"Ĥ":{"ha":1196,"x_min":139,"x_max":1057,"o":"m 204 0 q 158 19 176 0 q 139 65 139 38 l 139 1019 q 158 1067 139 1049 q 204 1085 176 1085 q 251 1067 233 1085 q 269 1019 269 1049 l 269 607 l 926 607 l 926 1019 q 945 1067 926 1049 q 992 1085 964 1085 q 1039 1067 1021 1085 q 1057 1019 1057 1049 l 1057 65 q 1039 19 1057 38 q 992 0 1021 0 q 945 19 964 0 q 926 65 926 38 l 926 492 l 269 492 l 269 65 q 251 19 269 38 q 204 0 233 0 m 442 1189 q 395 1204 414 1189 q 376 1243 376 1219 q 407 1299 376 1276 l 567 1403 q 599 1413 582 1413 q 616 1410 608 1413 q 632 1403 624 1408 l 790 1299 q 821 1243 821 1276 q 803 1204 821 1219 q 757 1189 785 1189 q 735 1192 744 1189 q 715 1203 726 1196 l 599 1285 l 482 1203 q 442 1189 464 1189 z "},"I":{"ha":408,"x_min":139,"x_max":269,"o":"m 204 0 q 158 19 176 0 q 139 65 139 38 l 139 1019 q 158 1067 139 1049 q 204 1085 176 1085 q 251 1067 233 1085 q 269 1019 269 1049 l 269 65 q 251 19 269 38 q 204 0 233 0 z "},"Ĳ":{"ha":897,"x_min":139,"x_max":758,"o":"m 435 -14 q 282 17 349 -14 q 177 106 215 49 q 139 239 139 163 q 158 286 139 268 q 204 304 176 304 q 251 286 233 304 q 269 239 269 268 q 291 167 269 197 q 350 122 313 138 q 435 106 388 106 q 534 133 490 106 q 603 208 578 161 q 628 317 628 256 l 628 1019 q 647 1067 628 1049 q 693 1085 665 1085 q 740 1067 721 1085 q 758 1019 758 1049 l 758 317 q 717 146 758 221 q 601 28 675 71 q 435 -14 528 -14 m 204 403 q 158 422 176 403 q 139 468 139 440 l 139 1019 q 158 1067 139 1049 q 204 1085 176 1085 q 251 1067 233 1085 q 269 1019 269 1049 l 269 468 q 251 422 269 440 q 204 403 233 403 z "},"Í":{"ha":408,"x_min":139,"x_max":408,"o":"m 204 0 q 158 19 176 0 q 139 65 139 38 l 139 1019 q 158 1067 139 1049 q 204 1085 176 1085 q 251 1067 233 1085 q 269 1019 269 1049 l 269 65 q 251 19 269 38 q 204 0 233 0 m 203 1203 q 158 1222 176 1203 q 139 1267 139 1240 q 154 1310 139 1293 l 299 1454 q 343 1472 317 1472 q 390 1453 372 1472 q 408 1407 408 1435 q 404 1383 408 1394 q 390 1363 400 1372 l 247 1219 q 203 1203 231 1203 z "},"Ĭ":{"ha":408,"x_min":-19,"x_max":426,"o":"m 204 0 q 158 19 176 0 q 139 65 139 38 l 139 1019 q 158 1067 139 1049 q 204 1085 176 1085 q 251 1067 233 1085 q 269 1019 269 1049 l 269 65 q 251 19 269 38 q 204 0 233 0 m 204 1179 q 92 1201 143 1179 q 11 1262 42 1224 q -19 1349 -19 1300 q -2 1394 -19 1375 q 42 1413 15 1413 q 84 1398 65 1413 q 103 1358 103 1383 q 133 1305 103 1326 q 204 1283 164 1283 q 277 1305 250 1283 q 304 1358 304 1326 q 323 1398 304 1383 q 367 1413 342 1413 q 410 1394 393 1413 q 426 1349 426 1376 q 394 1261 425 1300 q 314 1201 364 1222 q 204 1179 264 1179 z "},"Î":{"ha":408,"x_min":-18,"x_max":426,"o":"m 204 0 q 158 19 176 0 q 139 65 139 38 l 139 1019 q 158 1067 139 1049 q 204 1085 176 1085 q 251 1067 233 1085 q 269 1019 269 1049 l 269 65 q 251 19 269 38 q 204 0 233 0 m 47 1189 q 1 1204 19 1189 q -18 1243 -18 1219 q 13 1299 -18 1276 l 172 1403 q 204 1413 188 1413 q 222 1410 214 1413 q 238 1403 229 1408 l 396 1299 q 426 1243 426 1276 q 408 1204 426 1219 q 363 1189 390 1189 q 341 1192 350 1189 q 321 1203 332 1196 l 204 1285 l 88 1203 q 47 1189 69 1189 z "},"Ȉ":{"ha":408,"x_min":10,"x_max":397,"o":"m 204 0 q 158 19 176 0 q 139 65 139 38 l 139 1019 q 158 1067 139 1049 q 204 1085 176 1085 q 251 1067 233 1085 q 269 1019 269 1049 l 269 65 q 251 19 269 38 q 204 0 233 0 m 347 1186 q 299 1218 315 1186 l 219 1388 q 214 1413 214 1399 q 233 1456 214 1436 q 279 1476 251 1476 q 317 1465 300 1476 q 339 1436 333 1454 l 394 1257 q 397 1238 397 1247 q 381 1199 397 1213 q 347 1186 364 1186 m 144 1186 q 96 1218 113 1186 l 15 1388 q 12 1401 13 1394 q 10 1413 11 1407 q 28 1456 10 1436 q 75 1476 47 1476 q 113 1465 96 1476 q 135 1436 129 1454 l 192 1257 q 194 1247 193 1253 q 194 1238 194 1242 q 178 1199 194 1213 q 144 1186 161 1186 z "},"Ï":{"ha":408,"x_min":-28,"x_max":436,"o":"m 204 0 q 158 19 176 0 q 139 65 139 38 l 139 1019 q 158 1067 139 1049 q 204 1085 176 1085 q 251 1067 233 1085 q 269 1019 269 1049 l 269 65 q 251 19 269 38 q 204 0 233 0 m 54 1210 q -3 1233 21 1210 q -28 1290 -28 1257 q -3 1347 -28 1322 q 54 1371 21 1371 q 111 1347 88 1371 q 135 1290 135 1322 q 111 1233 135 1257 q 54 1210 88 1210 m 356 1210 q 299 1233 322 1210 q 275 1290 275 1257 q 299 1347 275 1322 q 356 1371 322 1371 q 413 1347 389 1371 q 436 1290 436 1322 q 413 1233 436 1257 q 356 1210 389 1210 z "},"İ":{"ha":408,"x_min":118,"x_max":289,"o":"m 204 0 q 158 19 176 0 q 139 65 139 38 l 139 1019 q 158 1067 139 1049 q 204 1085 176 1085 q 251 1067 233 1085 q 269 1019 269 1049 l 269 65 q 251 19 269 38 q 204 0 233 0 m 203 1217 q 143 1242 168 1217 q 118 1303 118 1267 q 144 1363 118 1339 q 204 1388 169 1388 q 263 1363 238 1388 q 289 1303 289 1339 q 264 1242 289 1267 q 203 1217 239 1217 z "},"Ị":{"ha":408,"x_min":118,"x_max":289,"o":"m 204 0 q 158 19 176 0 q 139 65 139 38 l 139 1019 q 158 1067 139 1049 q 204 1085 176 1085 q 251 1067 233 1085 q 269 1019 269 1049 l 269 65 q 251 19 269 38 q 204 0 233 0 m 203 -303 q 143 -278 168 -303 q 118 -217 118 -253 q 144 -156 118 -181 q 204 -132 169 -132 q 263 -156 238 -132 q 289 -217 289 -181 q 264 -278 289 -253 q 203 -303 239 -303 z "},"Ì":{"ha":408,"x_min":-3,"x_max":269,"o":"m 204 0 q 158 19 176 0 q 139 65 139 38 l 139 1019 q 158 1067 139 1049 q 204 1085 176 1085 q 251 1067 233 1085 q 269 1019 269 1049 l 269 65 q 251 19 269 38 q 204 0 233 0 m 201 1206 q 158 1224 175 1206 l 14 1367 q -3 1411 -3 1383 q 15 1458 -3 1439 q 60 1476 33 1476 q 107 1457 88 1476 l 250 1313 q 267 1271 267 1297 q 248 1224 267 1243 q 201 1206 229 1206 z "},"Ỉ":{"ha":408,"x_min":72,"x_max":392,"o":"m 204 0 q 158 19 176 0 q 139 65 139 38 l 139 1019 q 158 1067 139 1049 q 204 1085 176 1085 q 251 1067 233 1085 q 269 1019 269 1049 l 269 65 q 251 19 269 38 q 204 0 233 0 m 204 1158 q 163 1175 179 1158 q 146 1215 146 1192 l 146 1250 q 197 1313 146 1301 l 233 1319 q 274 1340 258 1326 q 290 1378 290 1354 q 272 1421 290 1407 q 226 1435 254 1435 q 190 1428 207 1435 q 163 1413 174 1421 q 143 1402 154 1406 q 121 1399 132 1399 q 87 1410 101 1399 q 72 1446 72 1422 q 92 1490 72 1474 q 151 1523 119 1511 q 224 1535 183 1535 q 344 1492 297 1535 q 390 1383 390 1449 q 347 1283 392 1315 q 240 1243 303 1251 l 261 1238 q 244 1178 261 1197 q 204 1158 228 1158 z "},"Ȋ":{"ha":408,"x_min":-19,"x_max":426,"o":"m 204 0 q 158 19 176 0 q 139 65 139 38 l 139 1019 q 158 1067 139 1049 q 204 1085 176 1085 q 251 1067 233 1085 q 269 1019 269 1049 l 269 65 q 251 19 269 38 q 204 0 233 0 m 42 1179 q -3 1197 14 1179 q -19 1243 -19 1215 q 10 1330 -19 1292 q 91 1390 40 1368 q 204 1413 142 1413 q 314 1390 264 1413 q 394 1331 364 1368 q 425 1243 425 1293 q 409 1197 425 1215 q 365 1179 393 1179 q 322 1194 340 1179 q 303 1233 303 1208 q 276 1286 303 1265 q 204 1307 250 1307 q 133 1285 164 1307 q 103 1233 103 1264 q 84 1194 103 1208 q 42 1179 65 1179 z "},"Ī":{"ha":408,"x_min":-37,"x_max":444,"o":"m 204 0 q 158 19 176 0 q 139 65 139 38 l 139 1019 q 158 1067 139 1049 q 204 1085 176 1085 q 251 1067 233 1085 q 269 1019 269 1049 l 269 65 q 251 19 269 38 q 204 0 233 0 m 26 1228 q -19 1244 -1 1228 q -37 1288 -37 1260 q -19 1329 -37 1314 q 26 1344 -1 1344 l 379 1344 q 425 1329 406 1344 q 444 1288 444 1314 q 425 1244 444 1260 q 379 1228 406 1228 l 26 1228 z "},"Į":{"ha":408,"x_min":35,"x_max":374,"o":"m 204 0 q 158 19 176 0 q 139 65 139 38 l 139 1019 q 158 1067 139 1049 q 204 1085 176 1085 q 251 1067 233 1085 q 269 1019 269 1049 l 269 65 q 251 19 269 38 q 204 0 233 0 m 204 -375 q 121 -352 160 -375 q 59 -291 82 -329 q 36 -206 36 -253 q 106 -68 36 -126 q 133 -43 124 -56 q 149 -19 143 -31 q 204 14 167 14 q 250 -3 232 14 q 269 -49 268 -21 q 247 -110 269 -79 q 182 -172 225 -140 q 168 -187 172 -178 q 164 -206 164 -197 q 176 -235 164 -224 q 204 -246 188 -246 q 217 -244 211 -246 q 226 -240 222 -243 l 271 -207 q 310 -194 290 -194 q 356 -212 339 -194 q 374 -258 374 -231 q 351 -310 374 -289 l 299 -346 q 204 -375 256 -375 z "},"Ĩ":{"ha":408,"x_min":-33,"x_max":433,"o":"m 204 0 q 158 19 176 0 q 139 65 139 38 l 139 1019 q 158 1067 139 1049 q 204 1085 176 1085 q 251 1067 233 1085 q 269 1019 269 1049 l 269 65 q 251 19 269 38 q 204 0 233 0 m 297 1204 q 233 1220 263 1204 q 182 1260 204 1236 q 152 1285 164 1276 q 125 1294 140 1294 q 99 1283 110 1294 q 78 1251 89 1271 q 45 1222 65 1231 q 4 1224 25 1214 q -26 1254 -18 1233 q -22 1297 -35 1275 q 40 1374 6 1350 q 117 1399 74 1399 q 188 1378 161 1399 q 233 1340 214 1357 q 264 1319 253 1325 q 285 1313 275 1313 q 317 1339 301 1313 q 350 1369 329 1360 q 392 1369 371 1378 q 425 1337 417 1358 q 419 1294 433 1315 q 363 1225 393 1246 q 297 1204 333 1204 z "},"J":{"ha":863,"x_min":63,"x_max":724,"o":"m 393 -14 q 222 28 297 -14 q 105 146 147 71 q 63 317 63 221 q 81 363 63 344 q 128 382 100 382 q 175 363 157 382 q 193 317 193 344 q 219 208 193 256 q 291 133 246 160 q 393 106 336 106 q 497 133 451 106 q 567 208 542 161 q 593 317 593 256 l 593 1019 q 612 1067 593 1049 q 658 1085 631 1085 q 705 1067 686 1085 q 724 1019 724 1049 l 724 317 q 681 146 724 221 q 563 28 638 71 q 393 -14 489 -14 z "},"Ĵ":{"ha":863,"x_min":63,"x_max":881,"o":"m 393 -14 q 222 28 297 -14 q 105 146 147 71 q 63 317 63 221 q 81 363 63 344 q 128 382 100 382 q 175 363 157 382 q 193 317 193 344 q 219 208 193 256 q 291 133 246 160 q 393 106 336 106 q 497 133 451 106 q 567 208 542 161 q 593 317 593 256 l 593 1019 q 612 1067 593 1049 q 658 1085 631 1085 q 705 1067 686 1085 q 724 1019 724 1049 l 724 317 q 681 146 724 221 q 563 28 638 71 q 393 -14 489 -14 m 501 1189 q 455 1204 474 1189 q 436 1243 436 1219 q 467 1299 436 1276 l 626 1403 q 658 1413 642 1413 q 676 1410 668 1413 q 692 1403 683 1408 l 850 1299 q 881 1243 881 1276 q 863 1204 881 1219 q 817 1189 844 1189 q 795 1192 804 1189 q 775 1203 786 1196 l 658 1285 l 542 1203 q 501 1189 524 1189 z "},"K":{"ha":919,"x_min":139,"x_max":860,"o":"m 204 0 q 158 19 178 0 q 139 65 139 38 l 139 1019 q 158 1066 139 1047 q 204 1085 178 1085 q 251 1066 232 1085 q 269 1019 269 1047 l 269 582 l 747 1060 q 774 1079 763 1074 q 800 1085 786 1085 q 846 1066 832 1085 q 857 1022 860 1047 q 835 974 854 996 l 469 608 l 840 104 q 853 58 856 82 q 835 17 850 33 q 794 0 819 0 q 740 28 758 0 l 379 518 l 269 408 l 269 65 q 251 19 269 38 q 204 0 232 0 z "},"Ķ":{"ha":919,"x_min":139,"x_max":860,"o":"m 204 0 q 158 19 178 0 q 139 65 139 38 l 139 1019 q 158 1066 139 1047 q 204 1085 178 1085 q 251 1066 232 1085 q 269 1019 269 1047 l 269 582 l 747 1060 q 774 1079 763 1074 q 800 1085 786 1085 q 846 1066 832 1085 q 857 1022 860 1047 q 835 974 854 996 l 469 608 l 840 104 q 853 58 856 82 q 835 17 850 33 q 794 0 819 0 q 740 28 758 0 l 379 518 l 269 408 l 269 65 q 251 19 269 38 q 204 0 232 0 m 467 -339 q 390 -327 429 -339 q 323 -292 350 -315 q 296 -233 296 -268 q 308 -201 296 -212 q 340 -190 321 -190 q 374 -199 361 -190 q 398 -221 386 -208 q 427 -243 410 -233 q 476 -253 444 -253 q 535 -240 517 -253 q 553 -200 553 -228 q 528 -158 553 -174 q 451 -143 503 -143 q 404 -133 422 -143 q 386 -100 386 -122 q 461 -56 386 -56 q 592 -94 542 -56 q 643 -196 643 -133 q 592 -301 643 -262 q 467 -339 542 -339 z "},"L":{"ha":888,"x_min":139,"x_max":853,"o":"m 203 0 q 158 19 176 0 q 139 65 139 38 l 139 1019 q 158 1066 139 1047 q 203 1085 176 1085 q 249 1066 231 1085 q 268 1019 268 1047 l 268 128 l 788 128 q 833 110 814 128 q 853 64 853 92 q 833 19 853 38 q 788 0 814 0 l 203 0 z "},"Ĺ":{"ha":888,"x_min":139,"x_max":853,"o":"m 203 0 q 158 19 176 0 q 139 65 139 38 l 139 1019 q 158 1066 139 1047 q 203 1085 176 1085 q 249 1066 231 1085 q 268 1019 268 1047 l 268 128 l 788 128 q 833 110 814 128 q 853 64 853 92 q 833 19 853 38 q 788 0 814 0 l 203 0 m 203 1203 q 158 1222 176 1203 q 139 1267 139 1240 q 154 1310 139 1293 l 299 1454 q 343 1472 317 1472 q 390 1453 372 1472 q 408 1407 408 1435 q 404 1383 408 1394 q 390 1363 400 1372 l 247 1219 q 203 1203 231 1203 z "},"Ľ":{"ha":888,"x_min":139,"x_max":853,"o":"m 203 0 q 158 19 176 0 q 139 65 139 38 l 139 1019 q 158 1066 139 1047 q 203 1085 176 1085 q 249 1066 231 1085 q 268 1019 268 1047 l 268 128 l 788 128 q 833 110 814 128 q 853 64 853 92 q 833 19 853 38 q 788 0 814 0 l 203 0 m 528 710 q 503 721 511 713 q 496 746 494 729 q 516 792 499 768 q 551 844 533 817 q 574 907 569 872 q 572 953 578 935 q 558 990 565 972 q 551 1036 551 1008 q 571 1079 551 1065 q 618 1093 590 1093 q 683 1053 661 1093 q 699 961 706 1014 q 674 871 694 917 q 627 788 654 825 q 574 729 600 751 q 528 710 547 707 z "},"Ļ":{"ha":888,"x_min":139,"x_max":853,"o":"m 203 0 q 158 19 176 0 q 139 65 139 38 l 139 1019 q 158 1066 139 1047 q 203 1085 176 1085 q 249 1066 231 1085 q 268 1019 268 1047 l 268 128 l 788 128 q 833 110 814 128 q 853 64 853 92 q 833 19 853 38 q 788 0 814 0 l 203 0 m 464 -339 q 387 -327 426 -339 q 320 -292 347 -315 q 293 -233 293 -268 q 306 -201 293 -212 q 338 -190 318 -190 q 371 -199 358 -190 q 395 -221 383 -208 q 424 -243 407 -233 q 474 -253 442 -253 q 532 -240 514 -253 q 550 -200 550 -228 q 525 -158 550 -174 q 449 -143 500 -143 q 401 -133 419 -143 q 383 -100 383 -122 q 458 -56 383 -56 q 590 -94 539 -56 q 640 -196 640 -133 q 590 -301 640 -262 q 464 -339 539 -339 z "},"Ŀ":{"ha":814,"x_min":139,"x_max":853,"o":"m 203 0 q 158 19 176 0 q 139 65 139 38 l 139 1019 q 158 1066 139 1047 q 203 1085 176 1085 q 249 1066 231 1085 q 268 1019 268 1047 l 268 128 l 788 128 q 833 110 814 128 q 853 64 853 92 q 833 19 853 38 q 788 0 814 0 l 203 0 m 618 421 q 555 447 582 421 q 528 511 528 474 q 554 576 528 549 q 618 603 581 603 q 682 576 656 603 q 708 511 708 549 q 682 447 708 474 q 618 421 656 421 z "},"Ł":{"ha":922,"x_min":15,"x_max":872,"o":"m 224 0 q 177 19 196 0 q 158 65 158 38 l 158 389 l 128 357 q 83 338 108 338 q 35 356 56 338 q 15 403 15 375 q 35 449 15 431 l 158 572 l 158 1019 q 177 1067 158 1049 q 224 1085 196 1085 q 270 1067 251 1085 q 289 1019 289 1049 l 289 700 l 454 861 q 476 874 464 869 q 501 879 488 879 q 547 859 528 879 q 567 813 567 839 q 547 768 567 788 l 289 518 l 289 131 l 807 131 q 853 112 835 131 q 872 65 872 93 q 853 19 872 38 q 807 0 835 0 l 224 0 z "},"M":{"ha":1364,"x_min":139,"x_max":1225,"o":"m 204 0 q 158 19 176 0 q 139 65 139 38 l 139 1019 q 158 1067 139 1049 q 204 1085 176 1085 q 263 1050 243 1085 l 710 157 l 664 157 l 1101 1050 q 1160 1085 1122 1085 q 1206 1067 1188 1085 q 1225 1019 1225 1049 l 1225 65 q 1206 19 1225 38 q 1160 0 1186 0 q 1113 19 1132 0 q 1094 65 1094 38 l 1094 843 l 1119 846 l 739 68 q 682 35 718 35 q 622 75 640 35 l 242 836 l 269 843 l 269 65 q 251 19 269 38 q 204 0 232 0 z "},"N":{"ha":1150,"x_min":139,"x_max":1011,"o":"m 203 0 q 157 19 175 0 q 139 65 139 38 l 139 1019 q 157 1067 139 1049 q 203 1085 175 1085 q 254 1061 233 1085 l 882 229 l 882 1019 q 901 1067 882 1049 q 947 1085 919 1085 q 993 1067 975 1085 q 1011 1019 1011 1049 l 1011 65 q 993 19 1011 38 q 947 0 975 0 q 919 6 933 0 q 897 22 906 11 l 268 854 l 268 65 q 250 19 268 38 q 203 0 232 0 z "},"Ń":{"ha":1150,"x_min":139,"x_max":1011,"o":"m 203 0 q 157 19 175 0 q 139 65 139 38 l 139 1019 q 157 1067 139 1049 q 203 1085 175 1085 q 254 1061 233 1085 l 882 229 l 882 1019 q 901 1067 882 1049 q 947 1085 919 1085 q 993 1067 975 1085 q 1011 1019 1011 1049 l 1011 65 q 993 19 1011 38 q 947 0 975 0 q 919 6 933 0 q 897 22 906 11 l 268 854 l 268 65 q 250 19 268 38 q 203 0 232 0 m 575 1203 q 530 1222 549 1203 q 511 1267 511 1240 q 526 1310 511 1293 l 671 1454 q 715 1472 689 1472 q 763 1453 744 1472 q 781 1407 781 1435 q 776 1383 781 1394 q 763 1363 772 1372 l 619 1219 q 575 1203 603 1203 z "},"Ň":{"ha":1150,"x_min":139,"x_max":1011,"o":"m 203 0 q 157 19 175 0 q 139 65 139 38 l 139 1019 q 157 1067 139 1049 q 203 1085 175 1085 q 254 1061 233 1085 l 882 229 l 882 1019 q 901 1067 882 1049 q 947 1085 919 1085 q 993 1067 975 1085 q 1011 1019 1011 1049 l 1011 65 q 993 19 1011 38 q 947 0 975 0 q 919 6 933 0 q 897 22 906 11 l 268 854 l 268 65 q 250 19 268 38 q 203 0 232 0 m 575 1200 q 543 1210 556 1200 l 383 1315 q 353 1369 353 1338 q 384 1409 353 1397 q 458 1392 415 1421 l 575 1313 l 692 1392 q 769 1410 740 1424 q 797 1369 797 1396 q 767 1315 797 1338 l 608 1210 q 575 1200 594 1200 z "},"Ņ":{"ha":1150,"x_min":139,"x_max":1011,"o":"m 203 0 q 157 19 175 0 q 139 65 139 38 l 139 1019 q 157 1067 139 1049 q 203 1085 175 1085 q 254 1061 233 1085 l 882 229 l 882 1019 q 901 1067 882 1049 q 947 1085 919 1085 q 993 1067 975 1085 q 1011 1019 1011 1049 l 1011 65 q 993 19 1011 38 q 947 0 975 0 q 919 6 933 0 q 897 22 906 11 l 268 854 l 268 65 q 250 19 268 38 q 203 0 232 0 m 582 -339 q 505 -327 544 -339 q 438 -292 465 -315 q 411 -233 411 -268 q 424 -201 411 -212 q 456 -190 436 -190 q 489 -199 476 -190 q 513 -221 501 -208 q 542 -243 525 -233 q 592 -253 560 -253 q 650 -240 632 -253 q 668 -200 668 -228 q 643 -158 668 -174 q 567 -143 618 -143 q 519 -133 538 -143 q 501 -100 501 -122 q 576 -56 501 -56 q 708 -94 657 -56 q 758 -196 758 -133 q 708 -301 758 -262 q 582 -339 657 -339 z "},"Ŋ":{"ha":1022,"x_min":139,"x_max":925,"o":"m 601 -14 q 497 3 546 -14 q 410 56 447 21 q 356 142 372 90 q 357 186 347 167 q 389 213 367 206 q 433 210 413 221 q 463 172 453 199 q 516 125 478 140 q 594 110 554 110 q 751 208 706 110 q 796 506 796 306 l 796 643 q 765 815 796 743 q 676 924 735 886 q 528 963 617 963 q 392 935 450 963 q 301 858 333 907 q 268 743 268 808 l 268 946 q 382 1049 317 1011 q 536 1086 447 1086 q 742 1030 654 1086 q 878 875 831 974 q 925 646 925 776 l 925 506 q 841 118 925 250 q 601 -14 757 -14 m 203 0 q 157 19 175 0 q 139 65 139 38 l 139 1019 q 157 1067 139 1049 q 203 1085 175 1085 q 250 1067 232 1085 q 268 1019 268 1049 l 268 65 q 249 19 268 38 q 203 0 231 0 z "},"Ñ":{"ha":1150,"x_min":139,"x_max":1011,"o":"m 203 0 q 157 19 175 0 q 139 65 139 38 l 139 1019 q 157 1067 139 1049 q 203 1085 175 1085 q 254 1061 233 1085 l 882 229 l 882 1019 q 901 1067 882 1049 q 947 1085 919 1085 q 993 1067 975 1085 q 1011 1019 1011 1049 l 1011 65 q 993 19 1011 38 q 947 0 975 0 q 919 6 933 0 q 897 22 906 11 l 268 854 l 268 65 q 250 19 268 38 q 203 0 232 0 m 722 1192 q 642 1207 676 1192 q 583 1236 608 1222 q 533 1260 554 1253 q 496 1268 513 1268 q 456 1259 474 1268 q 419 1226 438 1250 q 382 1197 404 1206 q 338 1200 360 1188 q 314 1233 318 1210 q 325 1278 310 1257 q 403 1348 357 1324 q 503 1372 450 1372 q 580 1357 547 1372 q 636 1329 613 1342 q 683 1304 667 1311 q 719 1297 700 1297 q 754 1304 739 1297 q 781 1322 769 1311 q 815 1347 799 1340 q 856 1340 832 1354 q 879 1304 876 1329 q 865 1258 882 1279 q 722 1192 811 1192 z "},"O":{"ha":1279,"x_min":88,"x_max":1193,"o":"m 640 -14 q 417 27 518 -14 q 242 143 315 68 q 128 319 169 218 q 88 543 88 421 q 128 765 88 664 q 242 942 169 867 q 417 1058 315 1017 q 640 1099 518 1099 q 863 1058 761 1099 q 1038 942 964 1017 q 1152 765 1111 867 q 1193 543 1193 664 q 1152 319 1193 421 q 1038 143 1111 218 q 863 27 964 68 q 640 -14 761 -14 m 640 106 q 811 139 733 106 q 947 231 889 172 q 1035 370 1004 290 q 1067 543 1067 450 q 1035 715 1067 636 q 947 854 1004 794 q 811 947 889 914 q 640 979 733 979 q 469 947 547 979 q 335 854 392 914 q 246 715 278 794 q 214 543 214 636 q 246 370 214 450 q 335 231 278 290 q 469 139 392 172 q 640 106 547 106 z "},"Ó":{"ha":1279,"x_min":88,"x_max":1193,"o":"m 640 -14 q 417 27 518 -14 q 242 143 315 68 q 128 319 169 218 q 88 543 88 421 q 128 765 88 664 q 242 942 169 867 q 417 1058 315 1017 q 640 1099 518 1099 q 863 1058 761 1099 q 1038 942 964 1017 q 1152 765 1111 867 q 1193 543 1193 664 q 1152 319 1193 421 q 1038 143 1111 218 q 863 27 964 68 q 640 -14 761 -14 m 640 106 q 811 139 733 106 q 947 231 889 172 q 1035 370 1004 290 q 1067 543 1067 450 q 1035 715 1067 636 q 947 854 1004 794 q 811 947 889 914 q 640 979 733 979 q 469 947 547 979 q 335 854 392 914 q 246 715 278 794 q 214 543 214 636 q 246 370 214 450 q 335 231 278 290 q 469 139 392 172 q 640 106 547 106 m 639 1203 q 594 1222 613 1203 q 575 1267 575 1240 q 590 1310 575 1293 l 735 1454 q 779 1472 753 1472 q 826 1453 808 1472 q 844 1407 844 1435 q 840 1383 844 1394 q 826 1363 836 1372 l 683 1219 q 639 1203 667 1203 z "},"Ŏ":{"ha":1279,"x_min":88,"x_max":1193,"o":"m 640 -14 q 417 27 518 -14 q 242 143 315 68 q 128 319 169 218 q 88 543 88 421 q 128 765 88 664 q 242 942 169 867 q 417 1058 315 1017 q 640 1099 518 1099 q 863 1058 761 1099 q 1038 942 964 1017 q 1152 765 1111 867 q 1193 543 1193 664 q 1152 319 1193 421 q 1038 143 1111 218 q 863 27 964 68 q 640 -14 761 -14 m 640 106 q 811 139 733 106 q 947 231 889 172 q 1035 370 1004 290 q 1067 543 1067 450 q 1035 715 1067 636 q 947 854 1004 794 q 811 947 889 914 q 640 979 733 979 q 469 947 547 979 q 335 854 392 914 q 246 715 278 794 q 214 543 214 636 q 246 370 214 450 q 335 231 278 290 q 469 139 392 172 q 640 106 547 106 m 640 1179 q 528 1201 579 1179 q 447 1262 478 1224 q 417 1349 417 1300 q 434 1394 417 1375 q 478 1413 451 1413 q 520 1398 501 1413 q 539 1358 539 1383 q 569 1305 539 1326 q 640 1283 600 1283 q 713 1305 686 1283 q 740 1358 740 1326 q 759 1398 740 1383 q 803 1413 778 1413 q 846 1394 829 1413 q 863 1349 863 1376 q 831 1261 861 1300 q 750 1201 800 1222 q 640 1179 700 1179 z "},"Ô":{"ha":1279,"x_min":88,"x_max":1193,"o":"m 640 -14 q 417 27 518 -14 q 242 143 315 68 q 128 319 169 218 q 88 543 88 421 q 128 765 88 664 q 242 942 169 867 q 417 1058 315 1017 q 640 1099 518 1099 q 863 1058 761 1099 q 1038 942 964 1017 q 1152 765 1111 867 q 1193 543 1193 664 q 1152 319 1193 421 q 1038 143 1111 218 q 863 27 964 68 q 640 -14 761 -14 m 640 106 q 811 139 733 106 q 947 231 889 172 q 1035 370 1004 290 q 1067 543 1067 450 q 1035 715 1067 636 q 947 854 1004 794 q 811 947 889 914 q 640 979 733 979 q 469 947 547 979 q 335 854 392 914 q 246 715 278 794 q 214 543 214 636 q 246 370 214 450 q 335 231 278 290 q 469 139 392 172 q 640 106 547 106 m 483 1189 q 437 1204 456 1189 q 418 1243 418 1219 q 449 1299 418 1276 l 608 1403 q 640 1413 624 1413 q 658 1410 650 1413 q 674 1403 665 1408 l 832 1299 q 863 1243 863 1276 q 844 1204 863 1219 q 799 1189 826 1189 q 777 1192 786 1189 q 757 1203 768 1196 l 640 1285 l 524 1203 q 483 1189 506 1189 z "},"Ố":{"ha":1279,"x_min":88,"x_max":1193,"o":"m 640 -14 q 417 27 518 -14 q 242 143 315 68 q 128 319 169 218 q 88 543 88 421 q 128 765 88 664 q 242 942 169 867 q 417 1058 315 1017 q 640 1099 518 1099 q 863 1058 761 1099 q 1038 942 964 1017 q 1152 765 1111 867 q 1193 543 1193 664 q 1152 319 1193 421 q 1038 143 1111 218 q 863 27 964 68 q 640 -14 761 -14 m 640 106 q 811 139 733 106 q 947 231 889 172 q 1035 370 1004 290 q 1067 543 1067 450 q 1035 715 1067 636 q 947 854 1004 794 q 811 947 889 914 q 640 979 733 979 q 469 947 547 979 q 335 854 392 914 q 246 715 278 794 q 214 543 214 636 q 246 370 214 450 q 335 231 278 290 q 469 139 392 172 q 640 106 547 106 m 483 1189 q 437 1204 456 1189 q 418 1243 418 1219 q 449 1299 418 1276 l 607 1403 q 640 1413 622 1413 q 658 1410 650 1413 q 674 1403 665 1408 l 831 1299 q 861 1243 861 1276 q 844 1204 861 1219 q 799 1189 826 1189 q 776 1192 786 1189 q 757 1203 767 1196 l 640 1285 l 522 1203 q 483 1189 504 1189 m 779 1415 q 734 1434 753 1415 q 715 1481 715 1453 q 731 1524 715 1507 l 875 1668 q 919 1686 893 1686 q 967 1667 949 1686 q 985 1621 985 1649 q 981 1597 985 1608 q 967 1576 976 1585 l 824 1433 q 779 1415 806 1415 z "},"Ộ":{"ha":1279,"x_min":88,"x_max":1193,"o":"m 640 -14 q 417 27 518 -14 q 242 143 315 68 q 128 319 169 218 q 88 543 88 421 q 128 765 88 664 q 242 942 169 867 q 417 1058 315 1017 q 640 1099 518 1099 q 863 1058 761 1099 q 1038 942 964 1017 q 1152 765 1111 867 q 1193 543 1193 664 q 1152 319 1193 421 q 1038 143 1111 218 q 863 27 964 68 q 640 -14 761 -14 m 640 106 q 811 139 733 106 q 947 231 889 172 q 1035 370 1004 290 q 1067 543 1067 450 q 1035 715 1067 636 q 947 854 1004 794 q 811 947 889 914 q 640 979 733 979 q 469 947 547 979 q 335 854 392 914 q 246 715 278 794 q 214 543 214 636 q 246 370 214 450 q 335 231 278 290 q 469 139 392 172 q 640 106 547 106 m 483 1189 q 437 1204 456 1189 q 418 1243 418 1219 q 449 1299 418 1276 l 608 1403 q 640 1413 624 1413 q 658 1410 650 1413 q 674 1403 665 1408 l 832 1299 q 863 1243 863 1276 q 844 1204 863 1219 q 799 1189 826 1189 q 777 1192 786 1189 q 757 1203 768 1196 l 640 1285 l 524 1203 q 483 1189 506 1189 m 639 -303 q 579 -278 604 -303 q 554 -217 554 -253 q 580 -156 554 -181 q 640 -132 606 -132 q 699 -156 674 -132 q 725 -217 725 -181 q 700 -278 725 -253 q 639 -303 675 -303 z "},"Ồ":{"ha":1279,"x_min":88,"x_max":1193,"o":"m 640 -14 q 417 27 518 -14 q 242 143 315 68 q 128 319 169 218 q 88 543 88 421 q 128 765 88 664 q 242 942 169 867 q 417 1058 315 1017 q 640 1099 518 1099 q 863 1058 761 1099 q 1038 942 964 1017 q 1152 765 1111 867 q 1193 543 1193 664 q 1152 319 1193 421 q 1038 143 1111 218 q 863 27 964 68 q 640 -14 761 -14 m 640 106 q 811 139 733 106 q 947 231 889 172 q 1035 370 1004 290 q 1067 543 1067 450 q 1035 715 1067 636 q 947 854 1004 794 q 811 947 889 914 q 640 979 733 979 q 469 947 547 979 q 335 854 392 914 q 246 715 278 794 q 214 543 214 636 q 246 370 214 450 q 335 231 278 290 q 469 139 392 172 q 640 106 547 106 m 483 1189 q 437 1204 456 1189 q 418 1243 418 1219 q 449 1299 418 1276 l 607 1403 q 640 1413 622 1413 q 658 1410 650 1413 q 674 1403 665 1408 l 831 1299 q 861 1243 861 1276 q 844 1204 861 1219 q 799 1189 826 1189 q 776 1192 786 1189 q 757 1203 767 1196 l 640 1285 l 522 1203 q 483 1189 504 1189 m 778 1419 q 733 1438 750 1419 l 589 1579 q 574 1624 574 1597 q 591 1671 574 1651 q 636 1690 608 1690 q 683 1671 663 1690 l 825 1526 q 842 1485 842 1511 q 823 1438 842 1456 q 778 1419 804 1419 z "},"Ổ":{"ha":1279,"x_min":88,"x_max":1193,"o":"m 640 -14 q 417 27 518 -14 q 242 143 315 68 q 128 319 169 218 q 88 543 88 421 q 128 765 88 664 q 242 942 169 867 q 417 1058 315 1017 q 640 1099 518 1099 q 863 1058 761 1099 q 1038 942 964 1017 q 1152 765 1111 867 q 1193 543 1193 664 q 1152 319 1193 421 q 1038 143 1111 218 q 863 27 964 68 q 640 -14 761 -14 m 640 106 q 811 139 733 106 q 947 231 889 172 q 1035 370 1004 290 q 1067 543 1067 450 q 1035 715 1067 636 q 947 854 1004 794 q 811 947 889 914 q 640 979 733 979 q 469 947 547 979 q 335 854 392 914 q 246 715 278 794 q 214 543 214 636 q 246 370 214 450 q 335 231 278 290 q 469 139 392 172 q 640 106 547 106 m 490 1189 q 444 1204 463 1189 q 425 1243 425 1219 q 456 1299 425 1276 l 614 1403 q 647 1413 629 1413 q 665 1410 657 1413 q 681 1403 672 1408 l 838 1299 q 868 1243 868 1276 q 851 1204 868 1219 q 806 1189 833 1189 q 783 1192 793 1189 q 764 1203 774 1196 l 647 1285 l 529 1203 q 490 1189 511 1189 m 788 1371 q 746 1388 763 1371 q 729 1429 729 1406 l 729 1463 q 781 1525 729 1514 l 817 1533 q 858 1553 842 1539 q 874 1592 874 1568 q 856 1634 874 1619 q 810 1649 838 1649 q 774 1642 790 1649 q 746 1626 757 1635 q 726 1615 738 1619 q 704 1611 714 1611 q 670 1623 685 1611 q 656 1658 656 1635 q 676 1703 656 1686 q 735 1736 703 1725 q 807 1747 767 1747 q 927 1704 881 1747 q 974 1596 974 1661 q 931 1497 975 1529 q 824 1456 886 1464 l 844 1450 q 828 1390 844 1410 q 788 1371 811 1371 z "},"Ỗ":{"ha":1279,"x_min":88,"x_max":1193,"o":"m 640 -14 q 417 27 518 -14 q 242 143 315 68 q 128 319 169 218 q 88 543 88 421 q 128 765 88 664 q 242 942 169 867 q 417 1058 315 1017 q 640 1099 518 1099 q 863 1058 761 1099 q 1038 942 964 1017 q 1152 765 1111 867 q 1193 543 1193 664 q 1152 319 1193 421 q 1038 143 1111 218 q 863 27 964 68 q 640 -14 761 -14 m 640 106 q 811 139 733 106 q 947 231 889 172 q 1035 370 1004 290 q 1067 543 1067 450 q 1035 715 1067 636 q 947 854 1004 794 q 811 947 889 914 q 640 979 733 979 q 469 947 547 979 q 335 854 392 914 q 246 715 278 794 q 214 543 214 636 q 246 370 214 450 q 335 231 278 290 q 469 139 392 172 q 640 106 547 106 m 489 1189 q 442 1204 461 1189 q 424 1243 424 1219 q 454 1299 424 1276 l 614 1403 q 646 1413 629 1413 q 663 1410 656 1413 q 679 1403 671 1408 l 836 1299 q 868 1243 868 1276 q 850 1204 868 1219 q 804 1189 832 1189 q 782 1192 792 1189 q 763 1203 772 1196 l 646 1285 l 528 1203 q 489 1189 511 1189 m 726 1449 q 663 1465 692 1449 q 611 1503 635 1481 q 581 1528 593 1519 q 554 1538 568 1538 q 528 1526 539 1538 q 507 1494 518 1514 q 474 1467 494 1475 q 433 1467 454 1458 q 403 1497 411 1476 q 407 1540 394 1518 q 469 1617 435 1593 q 546 1642 503 1642 q 617 1621 590 1642 q 663 1585 643 1600 q 693 1562 682 1568 q 714 1556 704 1556 q 746 1582 732 1556 q 779 1612 758 1603 q 821 1613 800 1621 q 854 1581 846 1603 q 849 1538 863 1560 q 794 1469 824 1490 q 726 1449 764 1449 z "},"Ȍ":{"ha":1279,"x_min":88,"x_max":1193,"o":"m 640 -14 q 417 27 518 -14 q 242 143 315 68 q 128 319 169 218 q 88 543 88 421 q 128 765 88 664 q 242 942 169 867 q 417 1058 315 1017 q 640 1099 518 1099 q 863 1058 761 1099 q 1038 942 964 1017 q 1152 765 1111 867 q 1193 543 1193 664 q 1152 319 1193 421 q 1038 143 1111 218 q 863 27 964 68 q 640 -14 761 -14 m 640 106 q 811 139 733 106 q 947 231 889 172 q 1035 370 1004 290 q 1067 543 1067 450 q 1035 715 1067 636 q 947 854 1004 794 q 811 947 889 914 q 640 979 733 979 q 469 947 547 979 q 335 854 392 914 q 246 715 278 794 q 214 543 214 636 q 246 370 214 450 q 335 231 278 290 q 469 139 392 172 q 640 106 547 106 m 783 1186 q 735 1218 751 1186 l 656 1388 q 650 1413 650 1399 q 669 1456 650 1436 q 715 1476 688 1476 q 753 1465 736 1476 q 775 1436 769 1454 l 831 1257 q 833 1238 833 1247 q 817 1199 833 1213 q 783 1186 800 1186 m 581 1186 q 532 1218 549 1186 l 451 1388 q 448 1401 449 1394 q 446 1413 447 1407 q 465 1456 446 1436 q 511 1476 483 1476 q 549 1465 532 1476 q 571 1436 565 1454 l 628 1257 q 630 1247 629 1253 q 631 1238 631 1242 q 614 1199 631 1213 q 581 1186 597 1186 z "},"Ö":{"ha":1279,"x_min":88,"x_max":1193,"o":"m 640 -14 q 417 27 518 -14 q 242 143 315 68 q 128 319 169 218 q 88 543 88 421 q 128 765 88 664 q 242 942 169 867 q 417 1058 315 1017 q 640 1099 518 1099 q 863 1058 761 1099 q 1038 942 964 1017 q 1152 765 1111 867 q 1193 543 1193 664 q 1152 319 1193 421 q 1038 143 1111 218 q 863 27 964 68 q 640 -14 761 -14 m 640 106 q 811 139 733 106 q 947 231 889 172 q 1035 370 1004 290 q 1067 543 1067 450 q 1035 715 1067 636 q 947 854 1004 794 q 811 947 889 914 q 640 979 733 979 q 469 947 547 979 q 335 854 392 914 q 246 715 278 794 q 214 543 214 636 q 246 370 214 450 q 335 231 278 290 q 469 139 392 172 q 640 106 547 106 m 490 1210 q 433 1233 457 1210 q 408 1290 408 1257 q 433 1347 408 1322 q 490 1371 457 1371 q 547 1347 524 1371 q 571 1290 571 1322 q 547 1233 571 1257 q 490 1210 524 1210 m 792 1210 q 735 1233 758 1210 q 711 1290 711 1257 q 735 1347 711 1322 q 792 1371 758 1371 q 849 1347 825 1371 q 872 1290 872 1322 q 849 1233 872 1257 q 792 1210 825 1210 z "},"Ȫ":{"ha":1279,"x_min":88,"x_max":1193,"o":"m 640 -14 q 417 27 518 -14 q 242 143 315 68 q 128 319 169 218 q 88 543 88 421 q 128 765 88 664 q 242 942 169 867 q 417 1058 315 1017 q 640 1099 518 1099 q 863 1058 761 1099 q 1038 942 964 1017 q 1152 765 1111 867 q 1193 543 1193 664 q 1152 319 1193 421 q 1038 143 1111 218 q 863 27 964 68 q 640 -14 761 -14 m 640 106 q 811 139 733 106 q 947 231 889 172 q 1035 370 1004 290 q 1067 543 1067 450 q 1035 715 1067 636 q 947 854 1004 794 q 811 947 889 914 q 640 979 733 979 q 469 947 547 979 q 335 854 392 914 q 246 715 278 794 q 214 543 214 636 q 246 370 214 450 q 335 231 278 290 q 469 139 392 172 q 640 106 547 106 m 490 1210 q 433 1233 457 1210 q 408 1290 408 1257 q 433 1347 408 1322 q 490 1371 457 1371 q 547 1347 524 1371 q 571 1290 571 1322 q 547 1233 571 1257 q 490 1210 524 1210 m 792 1210 q 735 1233 758 1210 q 711 1290 711 1257 q 735 1347 711 1322 q 792 1371 758 1371 q 849 1347 825 1371 q 872 1290 872 1322 q 849 1233 872 1257 q 792 1210 825 1210 m 463 1504 q 417 1520 435 1504 q 399 1564 399 1536 q 417 1606 399 1590 q 463 1621 435 1621 l 815 1621 q 861 1606 842 1621 q 881 1564 881 1590 q 861 1520 881 1536 q 815 1504 842 1504 l 463 1504 z "},"Ȱ":{"ha":1279,"x_min":88,"x_max":1193,"o":"m 640 -14 q 417 27 518 -14 q 242 143 315 68 q 128 319 169 218 q 88 543 88 421 q 128 765 88 664 q 242 942 169 867 q 417 1058 315 1017 q 640 1099 518 1099 q 863 1058 761 1099 q 1038 942 964 1017 q 1152 765 1111 867 q 1193 543 1193 664 q 1152 319 1193 421 q 1038 143 1111 218 q 863 27 964 68 q 640 -14 761 -14 m 640 106 q 811 139 733 106 q 947 231 889 172 q 1035 370 1004 290 q 1067 543 1067 450 q 1035 715 1067 636 q 947 854 1004 794 q 811 947 889 914 q 640 979 733 979 q 469 947 547 979 q 335 854 392 914 q 246 715 278 794 q 214 543 214 636 q 246 370 214 450 q 335 231 278 290 q 469 139 392 172 q 640 106 547 106 m 639 1217 q 579 1242 604 1217 q 554 1303 554 1267 q 580 1363 554 1339 q 640 1388 606 1388 q 699 1363 674 1388 q 725 1303 725 1339 q 700 1242 725 1267 q 639 1217 675 1217 m 463 1474 q 417 1490 435 1474 q 399 1533 399 1506 q 417 1575 399 1560 q 463 1590 435 1590 l 815 1590 q 861 1575 842 1590 q 881 1533 881 1560 q 861 1490 881 1506 q 815 1474 842 1474 l 463 1474 z "},"Ọ":{"ha":1279,"x_min":88,"x_max":1193,"o":"m 640 -14 q 417 27 518 -14 q 242 143 315 68 q 128 319 169 218 q 88 543 88 421 q 128 765 88 664 q 242 942 169 867 q 417 1058 315 1017 q 640 1099 518 1099 q 863 1058 761 1099 q 1038 942 964 1017 q 1152 765 1111 867 q 1193 543 1193 664 q 1152 319 1193 421 q 1038 143 1111 218 q 863 27 964 68 q 640 -14 761 -14 m 640 106 q 811 139 733 106 q 947 231 889 172 q 1035 370 1004 290 q 1067 543 1067 450 q 1035 715 1067 636 q 947 854 1004 794 q 811 947 889 914 q 640 979 733 979 q 469 947 547 979 q 335 854 392 914 q 246 715 278 794 q 214 543 214 636 q 246 370 214 450 q 335 231 278 290 q 469 139 392 172 q 640 106 547 106 m 639 -303 q 579 -278 604 -303 q 554 -217 554 -253 q 580 -156 554 -181 q 640 -132 606 -132 q 699 -156 674 -132 q 725 -217 725 -181 q 700 -278 725 -253 q 639 -303 675 -303 z "},"Ò":{"ha":1279,"x_min":88,"x_max":1193,"o":"m 640 -14 q 417 27 518 -14 q 242 143 315 68 q 128 319 169 218 q 88 543 88 421 q 128 765 88 664 q 242 942 169 867 q 417 1058 315 1017 q 640 1099 518 1099 q 863 1058 761 1099 q 1038 942 964 1017 q 1152 765 1111 867 q 1193 543 1193 664 q 1152 319 1193 421 q 1038 143 1111 218 q 863 27 964 68 q 640 -14 761 -14 m 640 106 q 811 139 733 106 q 947 231 889 172 q 1035 370 1004 290 q 1067 543 1067 450 q 1035 715 1067 636 q 947 854 1004 794 q 811 947 889 914 q 640 979 733 979 q 469 947 547 979 q 335 854 392 914 q 246 715 278 794 q 214 543 214 636 q 246 370 214 450 q 335 231 278 290 q 469 139 392 172 q 640 106 547 106 m 638 1206 q 594 1224 611 1206 l 450 1367 q 433 1411 433 1383 q 451 1458 433 1439 q 496 1476 469 1476 q 543 1457 524 1476 l 686 1313 q 703 1271 703 1297 q 684 1224 703 1243 q 638 1206 665 1206 z "},"Ỏ":{"ha":1279,"x_min":88,"x_max":1193,"o":"m 640 -14 q 417 27 518 -14 q 242 143 315 68 q 128 319 169 218 q 88 543 88 421 q 128 765 88 664 q 242 942 169 867 q 417 1058 315 1017 q 640 1099 518 1099 q 863 1058 761 1099 q 1038 942 964 1017 q 1152 765 1111 867 q 1193 543 1193 664 q 1152 319 1193 421 q 1038 143 1111 218 q 863 27 964 68 q 640 -14 761 -14 m 640 106 q 811 139 733 106 q 947 231 889 172 q 1035 370 1004 290 q 1067 543 1067 450 q 1035 715 1067 636 q 947 854 1004 794 q 811 947 889 914 q 640 979 733 979 q 469 947 547 979 q 335 854 392 914 q 246 715 278 794 q 214 543 214 636 q 246 370 214 450 q 335 231 278 290 q 469 139 392 172 q 640 106 547 106 m 640 1158 q 599 1175 615 1158 q 582 1215 582 1192 l 582 1250 q 633 1313 582 1301 l 669 1319 q 710 1340 694 1326 q 726 1378 726 1354 q 708 1421 726 1407 q 663 1435 690 1435 q 626 1428 643 1435 q 599 1413 610 1421 q 579 1402 590 1406 q 557 1399 568 1399 q 523 1410 538 1399 q 508 1446 508 1422 q 528 1490 508 1474 q 588 1523 556 1511 q 660 1535 619 1535 q 780 1492 733 1535 q 826 1383 826 1449 q 783 1283 828 1315 q 676 1243 739 1251 l 697 1238 q 681 1178 697 1197 q 640 1158 664 1158 z "},"Ơ":{"ha":1279,"x_min":88,"x_max":1193,"o":"m 640 -14 q 417 27 518 -14 q 242 143 315 68 q 128 319 169 218 q 88 543 88 421 q 128 765 88 664 q 242 942 169 867 q 417 1058 315 1017 q 640 1099 518 1099 q 863 1058 761 1099 q 1038 942 964 1017 q 1152 765 1111 867 q 1193 543 1193 664 q 1152 319 1193 421 q 1038 143 1111 218 q 863 27 964 68 q 640 -14 761 -14 m 640 106 q 811 139 733 106 q 947 231 889 172 q 1035 370 1004 290 q 1067 543 1067 450 q 1035 715 1067 636 q 947 854 1004 794 q 811 947 889 914 q 640 979 733 979 q 469 947 547 979 q 335 854 392 914 q 246 715 278 794 q 214 543 214 636 q 246 370 214 450 q 335 231 278 290 q 469 139 392 172 q 640 106 547 106 m 910 918 l 910 1033 l 974 1033 q 1017 1057 999 1033 q 1035 1119 1035 1081 l 1035 1147 q 1051 1193 1035 1175 q 1092 1211 1067 1211 q 1135 1190 1121 1211 q 1150 1139 1150 1168 l 1150 1119 q 1127 1017 1150 1063 q 1065 944 1104 971 q 974 918 1025 918 l 910 918 z "},"Ớ":{"ha":1279,"x_min":88,"x_max":1193,"o":"m 640 -14 q 417 27 518 -14 q 242 143 315 68 q 128 319 169 218 q 88 543 88 421 q 128 765 88 664 q 242 942 169 867 q 417 1058 315 1017 q 640 1099 518 1099 q 863 1058 761 1099 q 1038 942 964 1017 q 1152 765 1111 867 q 1193 543 1193 664 q 1152 319 1193 421 q 1038 143 1111 218 q 863 27 964 68 q 640 -14 761 -14 m 640 106 q 811 139 733 106 q 947 231 889 172 q 1035 370 1004 290 q 1067 543 1067 450 q 1035 715 1067 636 q 947 854 1004 794 q 811 947 889 914 q 640 979 733 979 q 469 947 547 979 q 335 854 392 914 q 246 715 278 794 q 214 543 214 636 q 246 370 214 450 q 335 231 278 290 q 469 139 392 172 q 640 106 547 106 m 910 918 l 910 1033 l 974 1033 q 1017 1057 999 1033 q 1035 1119 1035 1081 l 1035 1147 q 1051 1193 1035 1175 q 1092 1211 1067 1211 q 1135 1190 1121 1211 q 1150 1139 1150 1168 l 1150 1119 q 1127 1017 1150 1063 q 1065 944 1104 971 q 974 918 1025 918 l 910 918 m 639 1203 q 594 1222 613 1203 q 575 1267 575 1240 q 590 1310 575 1293 l 735 1454 q 779 1472 753 1472 q 826 1453 808 1472 q 844 1407 844 1435 q 840 1383 844 1394 q 826 1363 836 1372 l 683 1219 q 639 1203 667 1203 z "},"Ợ":{"ha":1279,"x_min":88,"x_max":1193,"o":"m 640 -14 q 417 27 518 -14 q 242 143 315 68 q 128 319 169 218 q 88 543 88 421 q 128 765 88 664 q 242 942 169 867 q 417 1058 315 1017 q 640 1099 518 1099 q 863 1058 761 1099 q 1038 942 964 1017 q 1152 765 1111 867 q 1193 543 1193 664 q 1152 319 1193 421 q 1038 143 1111 218 q 863 27 964 68 q 640 -14 761 -14 m 640 106 q 811 139 733 106 q 947 231 889 172 q 1035 370 1004 290 q 1067 543 1067 450 q 1035 715 1067 636 q 947 854 1004 794 q 811 947 889 914 q 640 979 733 979 q 469 947 547 979 q 335 854 392 914 q 246 715 278 794 q 214 543 214 636 q 246 370 214 450 q 335 231 278 290 q 469 139 392 172 q 640 106 547 106 m 910 918 l 910 1033 l 974 1033 q 1017 1057 999 1033 q 1035 1119 1035 1081 l 1035 1147 q 1051 1193 1035 1175 q 1092 1211 1067 1211 q 1135 1190 1121 1211 q 1150 1139 1150 1168 l 1150 1119 q 1127 1017 1150 1063 q 1065 944 1104 971 q 974 918 1025 918 l 910 918 m 639 -303 q 579 -278 604 -303 q 554 -217 554 -253 q 580 -156 554 -181 q 640 -132 606 -132 q 699 -156 674 -132 q 725 -217 725 -181 q 700 -278 725 -253 q 639 -303 675 -303 z "},"Ờ":{"ha":1279,"x_min":88,"x_max":1193,"o":"m 640 -14 q 417 27 518 -14 q 242 143 315 68 q 128 319 169 218 q 88 543 88 421 q 128 765 88 664 q 242 942 169 867 q 417 1058 315 1017 q 640 1099 518 1099 q 863 1058 761 1099 q 1038 942 964 1017 q 1152 765 1111 867 q 1193 543 1193 664 q 1152 319 1193 421 q 1038 143 1111 218 q 863 27 964 68 q 640 -14 761 -14 m 640 106 q 811 139 733 106 q 947 231 889 172 q 1035 370 1004 290 q 1067 543 1067 450 q 1035 715 1067 636 q 947 854 1004 794 q 811 947 889 914 q 640 979 733 979 q 469 947 547 979 q 335 854 392 914 q 246 715 278 794 q 214 543 214 636 q 246 370 214 450 q 335 231 278 290 q 469 139 392 172 q 640 106 547 106 m 910 918 l 910 1033 l 974 1033 q 1017 1057 999 1033 q 1035 1119 1035 1081 l 1035 1147 q 1051 1193 1035 1175 q 1092 1211 1067 1211 q 1135 1190 1121 1211 q 1150 1139 1150 1168 l 1150 1119 q 1127 1017 1150 1063 q 1065 944 1104 971 q 974 918 1025 918 l 910 918 m 638 1206 q 594 1224 611 1206 l 450 1367 q 433 1411 433 1383 q 451 1458 433 1439 q 496 1476 469 1476 q 543 1457 524 1476 l 686 1313 q 703 1271 703 1297 q 684 1224 703 1243 q 638 1206 665 1206 z "},"Ở":{"ha":1279,"x_min":88,"x_max":1193,"o":"m 640 -14 q 417 27 518 -14 q 242 143 315 68 q 128 319 169 218 q 88 543 88 421 q 128 765 88 664 q 242 942 169 867 q 417 1058 315 1017 q 640 1099 518 1099 q 863 1058 761 1099 q 1038 942 964 1017 q 1152 765 1111 867 q 1193 543 1193 664 q 1152 319 1193 421 q 1038 143 1111 218 q 863 27 964 68 q 640 -14 761 -14 m 640 106 q 811 139 733 106 q 947 231 889 172 q 1035 370 1004 290 q 1067 543 1067 450 q 1035 715 1067 636 q 947 854 1004 794 q 811 947 889 914 q 640 979 733 979 q 469 947 547 979 q 335 854 392 914 q 246 715 278 794 q 214 543 214 636 q 246 370 214 450 q 335 231 278 290 q 469 139 392 172 q 640 106 547 106 m 910 918 l 910 1033 l 974 1033 q 1017 1057 999 1033 q 1035 1119 1035 1081 l 1035 1147 q 1051 1193 1035 1175 q 1092 1211 1067 1211 q 1135 1190 1121 1211 q 1150 1139 1150 1168 l 1150 1119 q 1127 1017 1150 1063 q 1065 944 1104 971 q 974 918 1025 918 l 910 918 m 640 1158 q 599 1175 615 1158 q 582 1215 582 1192 l 582 1250 q 633 1313 582 1301 l 669 1319 q 710 1340 694 1326 q 726 1378 726 1354 q 708 1421 726 1407 q 663 1435 690 1435 q 626 1428 643 1435 q 599 1413 610 1421 q 579 1402 590 1406 q 557 1399 568 1399 q 523 1410 538 1399 q 508 1446 508 1422 q 528 1490 508 1474 q 588 1523 556 1511 q 660 1535 619 1535 q 780 1492 733 1535 q 826 1383 826 1449 q 783 1283 828 1315 q 676 1243 739 1251 l 697 1238 q 681 1178 697 1197 q 640 1158 664 1158 z "},"Ỡ":{"ha":1279,"x_min":88,"x_max":1193,"o":"m 640 -14 q 417 27 518 -14 q 242 143 315 68 q 128 319 169 218 q 88 543 88 421 q 128 765 88 664 q 242 942 169 867 q 417 1058 315 1017 q 640 1099 518 1099 q 863 1058 761 1099 q 1038 942 964 1017 q 1152 765 1111 867 q 1193 543 1193 664 q 1152 319 1193 421 q 1038 143 1111 218 q 863 27 964 68 q 640 -14 761 -14 m 640 106 q 811 139 733 106 q 947 231 889 172 q 1035 370 1004 290 q 1067 543 1067 450 q 1035 715 1067 636 q 947 854 1004 794 q 811 947 889 914 q 640 979 733 979 q 469 947 547 979 q 335 854 392 914 q 246 715 278 794 q 214 543 214 636 q 246 370 214 450 q 335 231 278 290 q 469 139 392 172 q 640 106 547 106 m 910 918 l 910 1033 l 974 1033 q 1017 1057 999 1033 q 1035 1119 1035 1081 l 1035 1147 q 1051 1193 1035 1175 q 1092 1211 1067 1211 q 1135 1190 1121 1211 q 1150 1139 1150 1168 l 1150 1119 q 1127 1017 1150 1063 q 1065 944 1104 971 q 974 918 1025 918 l 910 918 m 788 1192 q 708 1207 742 1192 q 649 1236 674 1222 q 599 1260 619 1253 q 561 1268 578 1268 q 521 1259 539 1268 q 485 1226 503 1250 q 447 1197 469 1206 q 403 1200 425 1188 q 379 1233 383 1210 q 390 1278 375 1257 q 469 1348 422 1324 q 568 1372 515 1372 q 645 1357 613 1372 q 701 1329 678 1342 q 749 1304 732 1311 q 785 1297 765 1297 q 819 1304 804 1297 q 846 1322 835 1311 q 881 1347 864 1340 q 921 1340 897 1354 q 944 1304 942 1329 q 931 1258 947 1279 q 788 1192 876 1192 z "},"Ő":{"ha":1279,"x_min":88,"x_max":1193,"o":"m 640 -14 q 417 27 518 -14 q 242 143 315 68 q 128 319 169 218 q 88 543 88 421 q 128 765 88 664 q 242 942 169 867 q 417 1058 315 1017 q 640 1099 518 1099 q 863 1058 761 1099 q 1038 942 964 1017 q 1152 765 1111 867 q 1193 543 1193 664 q 1152 319 1193 421 q 1038 143 1111 218 q 863 27 964 68 q 640 -14 761 -14 m 640 106 q 811 139 733 106 q 947 231 889 172 q 1035 370 1004 290 q 1067 543 1067 450 q 1035 715 1067 636 q 947 854 1004 794 q 811 947 889 914 q 640 979 733 979 q 469 947 547 979 q 335 854 392 914 q 246 715 278 794 q 214 543 214 636 q 246 370 214 450 q 335 231 278 290 q 469 139 392 172 q 640 106 547 106 m 740 1186 q 707 1199 724 1186 q 690 1238 690 1213 q 691 1247 690 1242 q 693 1257 692 1253 l 750 1436 q 772 1465 756 1454 q 810 1476 789 1476 q 856 1456 838 1476 q 875 1411 875 1436 q 873 1401 874 1407 q 869 1388 872 1394 l 789 1218 q 740 1186 772 1186 m 538 1186 q 504 1199 521 1186 q 488 1238 488 1213 q 488 1247 488 1242 q 490 1257 489 1253 l 546 1436 q 568 1465 551 1454 q 606 1476 585 1476 q 653 1456 635 1476 q 671 1411 671 1436 q 665 1388 671 1400 l 586 1218 q 538 1186 571 1186 z "},"Ȏ":{"ha":1279,"x_min":88,"x_max":1193,"o":"m 640 -14 q 417 27 518 -14 q 242 143 315 68 q 128 319 169 218 q 88 543 88 421 q 128 765 88 664 q 242 942 169 867 q 417 1058 315 1017 q 640 1099 518 1099 q 863 1058 761 1099 q 1038 942 964 1017 q 1152 765 1111 867 q 1193 543 1193 664 q 1152 319 1193 421 q 1038 143 1111 218 q 863 27 964 68 q 640 -14 761 -14 m 640 106 q 811 139 733 106 q 947 231 889 172 q 1035 370 1004 290 q 1067 543 1067 450 q 1035 715 1067 636 q 947 854 1004 794 q 811 947 889 914 q 640 979 733 979 q 469 947 547 979 q 335 854 392 914 q 246 715 278 794 q 214 543 214 636 q 246 370 214 450 q 335 231 278 290 q 469 139 392 172 q 640 106 547 106 m 478 1179 q 433 1197 450 1179 q 417 1243 417 1215 q 447 1330 417 1292 q 527 1390 476 1368 q 640 1413 578 1413 q 750 1390 700 1413 q 831 1331 800 1368 q 861 1243 861 1293 q 845 1197 861 1215 q 801 1179 829 1179 q 758 1194 776 1179 q 739 1233 739 1208 q 713 1286 739 1265 q 640 1307 686 1307 q 569 1285 600 1307 q 539 1233 539 1264 q 520 1194 539 1208 q 478 1179 501 1179 z "},"Ō":{"ha":1279,"x_min":88,"x_max":1193,"o":"m 640 -14 q 417 27 518 -14 q 242 143 315 68 q 128 319 169 218 q 88 543 88 421 q 128 765 88 664 q 242 942 169 867 q 417 1058 315 1017 q 640 1099 518 1099 q 863 1058 761 1099 q 1038 942 964 1017 q 1152 765 1111 867 q 1193 543 1193 664 q 1152 319 1193 421 q 1038 143 1111 218 q 863 27 964 68 q 640 -14 761 -14 m 640 106 q 811 139 733 106 q 947 231 889 172 q 1035 370 1004 290 q 1067 543 1067 450 q 1035 715 1067 636 q 947 854 1004 794 q 811 947 889 914 q 640 979 733 979 q 469 947 547 979 q 335 854 392 914 q 246 715 278 794 q 214 543 214 636 q 246 370 214 450 q 335 231 278 290 q 469 139 392 172 q 640 106 547 106 m 463 1228 q 417 1244 435 1228 q 399 1288 399 1260 q 417 1329 399 1314 q 463 1344 435 1344 l 815 1344 q 861 1329 842 1344 q 881 1288 881 1314 q 861 1244 881 1260 q 815 1228 842 1228 l 463 1228 z "},"Ǫ":{"ha":1279,"x_min":88,"x_max":1193,"o":"m 640 -14 q 417 27 518 -14 q 242 143 315 68 q 128 319 169 218 q 88 543 88 421 q 128 765 88 664 q 242 942 169 867 q 417 1058 315 1017 q 640 1099 518 1099 q 863 1058 761 1099 q 1038 942 964 1017 q 1152 765 1111 867 q 1193 543 1193 664 q 1152 319 1193 421 q 1038 143 1111 218 q 863 27 964 68 q 640 -14 761 -14 m 640 106 q 811 139 733 106 q 947 231 889 172 q 1035 370 1004 290 q 1067 543 1067 450 q 1035 715 1067 636 q 947 854 1004 794 q 811 947 889 914 q 640 979 733 979 q 469 947 547 979 q 335 854 392 914 q 246 715 278 794 q 214 543 214 636 q 246 370 214 450 q 335 231 278 290 q 469 139 392 172 q 640 106 547 106 m 638 -375 q 554 -352 593 -375 q 492 -291 515 -329 q 469 -206 469 -253 q 539 -68 469 -126 q 567 -43 557 -56 q 582 -19 576 -31 q 638 14 600 14 q 683 -3 665 14 q 703 -49 701 -21 q 681 -110 703 -79 q 615 -172 658 -140 q 601 -187 606 -178 q 597 -206 597 -197 q 609 -235 597 -224 q 638 -246 621 -246 q 650 -244 644 -246 q 660 -240 656 -243 l 704 -207 q 743 -194 724 -194 q 790 -212 772 -194 q 807 -258 807 -231 q 785 -310 807 -289 l 732 -346 q 638 -375 689 -375 z "},"Ø":{"ha":1260,"x_min":74,"x_max":1200,"o":"m 124 0 q 83 26 93 0 q 92 71 74 53 l 221 200 l 265 233 l 965 933 l 1004 963 l 1117 1074 q 1146 1085 1128 1085 q 1186 1061 1172 1085 q 1178 1015 1200 1038 l 1065 903 l 1029 876 l 322 169 l 283 142 l 153 11 q 124 0 142 0 m 640 -14 q 417 27 518 -14 q 242 143 315 68 q 128 319 169 218 q 88 543 88 421 q 128 765 88 664 q 242 942 169 867 q 417 1058 315 1017 q 640 1099 518 1099 q 863 1058 761 1099 q 1038 942 964 1017 q 1152 765 1111 867 q 1193 543 1193 664 q 1152 319 1193 421 q 1038 143 1111 218 q 863 27 964 68 q 640 -14 761 -14 m 640 106 q 811 139 733 106 q 947 231 889 172 q 1035 370 1004 290 q 1067 543 1067 450 q 1035 715 1067 636 q 947 854 1004 794 q 811 947 889 914 q 640 979 733 979 q 469 947 547 979 q 335 854 392 914 q 246 715 278 794 q 214 543 214 636 q 246 370 214 450 q 335 231 278 290 q 469 139 392 172 q 640 106 547 106 z "},"Ǿ":{"ha":1260,"x_min":74,"x_max":1200,"o":"m 124 0 q 83 26 93 0 q 92 71 74 53 l 221 200 l 265 233 l 965 933 l 1004 963 l 1117 1074 q 1146 1085 1128 1085 q 1186 1061 1172 1085 q 1178 1015 1200 1038 l 1065 903 l 1029 876 l 322 169 l 283 142 l 153 11 q 124 0 142 0 m 640 -14 q 417 27 518 -14 q 242 143 315 68 q 128 319 169 218 q 88 543 88 421 q 128 765 88 664 q 242 942 169 867 q 417 1058 315 1017 q 640 1099 518 1099 q 863 1058 761 1099 q 1038 942 964 1017 q 1152 765 1111 867 q 1193 543 1193 664 q 1152 319 1193 421 q 1038 143 1111 218 q 863 27 964 68 q 640 -14 761 -14 m 640 106 q 811 139 733 106 q 947 231 889 172 q 1035 370 1004 290 q 1067 543 1067 450 q 1035 715 1067 636 q 947 854 1004 794 q 811 947 889 914 q 640 979 733 979 q 469 947 547 979 q 335 854 392 914 q 246 715 278 794 q 214 543 214 636 q 246 370 214 450 q 335 231 278 290 q 469 139 392 172 q 640 106 547 106 m 639 1203 q 594 1222 613 1203 q 575 1267 575 1240 q 590 1310 575 1293 l 735 1454 q 779 1472 753 1472 q 826 1453 808 1472 q 844 1407 844 1435 q 840 1383 844 1394 q 826 1363 836 1372 l 683 1219 q 639 1203 667 1203 z "},"Õ":{"ha":1279,"x_min":88,"x_max":1193,"o":"m 640 -14 q 417 27 518 -14 q 242 143 315 68 q 128 319 169 218 q 88 543 88 421 q 128 765 88 664 q 242 942 169 867 q 417 1058 315 1017 q 640 1099 518 1099 q 863 1058 761 1099 q 1038 942 964 1017 q 1152 765 1111 867 q 1193 543 1193 664 q 1152 319 1193 421 q 1038 143 1111 218 q 863 27 964 68 q 640 -14 761 -14 m 640 106 q 811 139 733 106 q 947 231 889 172 q 1035 370 1004 290 q 1067 543 1067 450 q 1035 715 1067 636 q 947 854 1004 794 q 811 947 889 914 q 640 979 733 979 q 469 947 547 979 q 335 854 392 914 q 246 715 278 794 q 214 543 214 636 q 246 370 214 450 q 335 231 278 290 q 469 139 392 172 q 640 106 547 106 m 788 1192 q 708 1207 742 1192 q 649 1236 674 1222 q 599 1260 619 1253 q 561 1268 578 1268 q 521 1259 539 1268 q 485 1226 503 1250 q 447 1197 469 1206 q 403 1200 425 1188 q 379 1233 383 1210 q 390 1278 375 1257 q 469 1348 422 1324 q 568 1372 515 1372 q 645 1357 613 1372 q 701 1329 678 1342 q 749 1304 732 1311 q 785 1297 765 1297 q 819 1304 804 1297 q 846 1322 835 1311 q 881 1347 864 1340 q 921 1340 897 1354 q 944 1304 942 1329 q 931 1258 947 1279 q 788 1192 876 1192 z "},"Ȭ":{"ha":1279,"x_min":88,"x_max":1193,"o":"m 640 -14 q 417 27 518 -14 q 242 143 315 68 q 128 319 169 218 q 88 543 88 421 q 128 765 88 664 q 242 942 169 867 q 417 1058 315 1017 q 640 1099 518 1099 q 863 1058 761 1099 q 1038 942 964 1017 q 1152 765 1111 867 q 1193 543 1193 664 q 1152 319 1193 421 q 1038 143 1111 218 q 863 27 964 68 q 640 -14 761 -14 m 640 106 q 811 139 733 106 q 947 231 889 172 q 1035 370 1004 290 q 1067 543 1067 450 q 1035 715 1067 636 q 947 854 1004 794 q 811 947 889 914 q 640 979 733 979 q 469 947 547 979 q 335 854 392 914 q 246 715 278 794 q 214 543 214 636 q 246 370 214 450 q 335 231 278 290 q 469 139 392 172 q 640 106 547 106 m 788 1192 q 708 1207 742 1192 q 649 1236 674 1222 q 599 1260 619 1253 q 561 1268 578 1268 q 521 1259 539 1268 q 485 1226 503 1250 q 447 1197 469 1206 q 403 1200 425 1188 q 379 1233 383 1210 q 390 1278 375 1257 q 469 1348 422 1324 q 568 1372 515 1372 q 645 1357 613 1372 q 701 1329 678 1342 q 749 1304 732 1311 q 785 1297 765 1297 q 819 1304 804 1297 q 846 1322 835 1311 q 881 1347 864 1340 q 921 1340 897 1354 q 944 1304 942 1329 q 931 1258 947 1279 q 788 1192 876 1192 m 476 1467 q 431 1483 449 1467 q 413 1526 413 1499 q 431 1568 413 1553 q 476 1583 449 1583 l 829 1583 q 875 1568 856 1583 q 894 1526 894 1553 q 875 1483 894 1499 q 829 1467 856 1467 l 476 1467 z "},"Œ":{"ha":1608,"x_min":88,"x_max":1546,"o":"m 640 -14 q 417 27 518 -14 q 242 143 315 68 q 128 319 169 218 q 88 543 88 421 q 128 765 88 664 q 242 942 169 867 q 417 1058 315 1017 q 640 1099 518 1099 q 791 1092 719 1099 q 922 1085 863 1085 l 922 939 q 797 969 868 958 q 640 979 725 979 q 469 947 547 979 q 335 854 392 914 q 246 715 278 794 q 214 543 214 636 q 246 370 214 450 q 335 231 278 290 q 469 139 392 172 q 640 106 547 106 q 921 143 811 106 l 921 0 q 790 -6 860 1 q 640 -14 719 -14 m 889 0 q 842 19 861 0 q 824 65 824 38 l 824 1019 q 842 1067 824 1049 q 889 1085 861 1085 l 1482 1085 q 1528 1067 1510 1085 q 1546 1022 1546 1050 q 1528 980 1546 997 q 1482 963 1510 963 l 954 963 l 954 607 l 1322 607 q 1369 590 1351 607 q 1386 546 1386 572 q 1369 502 1386 519 q 1322 485 1351 485 l 954 485 l 954 122 l 1482 122 q 1528 105 1510 122 q 1546 63 1546 88 q 1528 17 1546 35 q 1482 0 1510 0 l 889 0 z "},"P":{"ha":860,"x_min":139,"x_max":835,"o":"m 204 0 q 158 19 176 0 q 139 65 139 38 l 139 1019 q 158 1066 139 1047 q 204 1085 176 1085 l 482 1085 q 666 1039 586 1085 q 790 913 746 993 q 835 728 835 833 q 790 547 835 626 q 666 424 746 468 q 482 379 586 379 l 269 379 l 269 65 q 251 19 269 38 q 204 0 233 0 m 269 501 l 482 501 q 600 531 549 501 q 681 611 651 560 q 710 728 710 663 q 681 850 710 797 q 600 933 651 903 q 482 963 549 963 l 269 963 l 269 501 z "},"Þ":{"ha":860,"x_min":139,"x_max":835,"o":"m 204 0 q 158 19 176 0 q 139 65 139 38 l 139 1019 q 158 1066 139 1047 q 204 1085 176 1085 q 251 1066 233 1085 q 269 1019 269 1047 l 269 886 l 482 886 q 666 846 586 886 q 790 733 746 806 q 835 564 835 660 q 790 400 835 471 q 666 290 746 329 q 482 250 586 250 l 269 250 l 269 65 q 251 19 269 38 q 204 0 233 0 m 269 364 l 482 364 q 600 390 549 364 q 681 461 651 415 q 710 564 710 507 q 681 672 710 625 q 600 747 651 719 q 482 774 549 774 l 269 774 l 269 364 z "},"Q":{"ha":1279,"x_min":88,"x_max":1193,"o":"m 1031 19 l 736 314 q 717 358 717 333 q 736 403 717 383 q 781 422 756 422 q 825 403 806 422 l 1121 108 q 1140 64 1139 88 q 1121 19 1140 40 q 1076 0 1100 0 q 1031 19 1051 0 m 640 -14 q 417 27 518 -14 q 242 143 315 68 q 128 319 169 218 q 88 543 88 421 q 128 765 88 664 q 242 942 169 867 q 417 1058 315 1017 q 640 1099 518 1099 q 863 1058 761 1099 q 1038 942 964 1017 q 1152 765 1111 867 q 1193 543 1193 664 q 1152 319 1193 421 q 1038 143 1111 218 q 863 27 964 68 q 640 -14 761 -14 m 640 106 q 811 139 733 106 q 947 231 889 172 q 1035 370 1004 290 q 1067 543 1067 450 q 1035 715 1067 636 q 947 854 1004 794 q 811 947 889 914 q 640 979 733 979 q 469 947 547 979 q 335 854 392 914 q 246 715 278 794 q 214 543 214 636 q 246 370 214 450 q 335 231 278 290 q 469 139 392 172 q 640 106 547 106 z "},"R":{"ha":871,"x_min":139,"x_max":857,"o":"m 204 0 q 158 19 176 0 q 139 65 139 38 l 139 1019 q 158 1067 139 1049 q 204 1085 176 1085 l 458 1085 q 641 1042 561 1085 q 766 922 721 999 q 811 746 811 846 q 766 578 811 651 q 641 463 721 504 q 458 421 561 421 l 269 421 l 269 65 q 251 19 269 38 q 204 0 233 0 m 782 0 q 750 8 764 0 q 725 32 736 15 l 469 443 l 597 479 l 833 100 q 840 31 857 63 q 782 0 824 0 m 269 543 l 458 543 q 576 569 525 543 q 656 641 626 594 q 685 746 685 688 q 656 859 685 810 q 576 935 626 908 q 458 963 525 963 l 269 963 l 269 543 z "},"Ŕ":{"ha":871,"x_min":139,"x_max":857,"o":"m 204 0 q 158 19 176 0 q 139 65 139 38 l 139 1019 q 158 1067 139 1049 q 204 1085 176 1085 l 458 1085 q 641 1042 561 1085 q 766 922 721 999 q 811 746 811 846 q 766 578 811 651 q 641 463 721 504 q 458 421 561 421 l 269 421 l 269 65 q 251 19 269 38 q 204 0 233 0 m 782 0 q 750 8 764 0 q 725 32 736 15 l 469 443 l 597 479 l 833 100 q 840 31 857 63 q 782 0 824 0 m 269 543 l 458 543 q 576 569 525 543 q 656 641 626 594 q 685 746 685 688 q 656 859 685 810 q 576 935 626 908 q 458 963 525 963 l 269 963 l 269 543 m 468 1203 q 423 1222 442 1203 q 404 1267 404 1240 q 419 1310 404 1293 l 564 1454 q 608 1472 582 1472 q 656 1453 638 1472 q 674 1407 674 1435 q 669 1383 674 1394 q 656 1363 665 1372 l 513 1219 q 468 1203 496 1203 z "},"Ř":{"ha":871,"x_min":139,"x_max":857,"o":"m 204 0 q 158 19 176 0 q 139 65 139 38 l 139 1019 q 158 1067 139 1049 q 204 1085 176 1085 l 458 1085 q 641 1042 561 1085 q 766 922 721 999 q 811 746 811 846 q 766 578 811 651 q 641 463 721 504 q 458 421 561 421 l 269 421 l 269 65 q 251 19 269 38 q 204 0 233 0 m 782 0 q 750 8 764 0 q 725 32 736 15 l 469 443 l 597 479 l 833 100 q 840 31 857 63 q 782 0 824 0 m 269 543 l 458 543 q 576 569 525 543 q 656 641 626 594 q 685 746 685 688 q 656 859 685 810 q 576 935 626 908 q 458 963 525 963 l 269 963 l 269 543 m 469 1200 q 438 1210 450 1200 l 278 1315 q 247 1369 247 1338 q 278 1409 247 1397 q 353 1392 310 1421 l 469 1313 l 586 1392 q 663 1410 635 1424 q 692 1369 692 1396 q 661 1315 692 1338 l 503 1210 q 469 1200 489 1200 z "},"Ŗ":{"ha":871,"x_min":139,"x_max":857,"o":"m 204 0 q 158 19 176 0 q 139 65 139 38 l 139 1019 q 158 1067 139 1049 q 204 1085 176 1085 l 458 1085 q 641 1042 561 1085 q 766 922 721 999 q 811 746 811 846 q 766 578 811 651 q 641 463 721 504 q 458 421 561 421 l 269 421 l 269 65 q 251 19 269 38 q 204 0 233 0 m 782 0 q 750 8 764 0 q 725 32 736 15 l 469 443 l 597 479 l 833 100 q 840 31 857 63 q 782 0 824 0 m 269 543 l 458 543 q 576 569 525 543 q 656 641 626 594 q 685 746 685 688 q 656 859 685 810 q 576 935 626 908 q 458 963 525 963 l 269 963 l 269 543 m 476 -339 q 399 -327 439 -339 q 333 -292 360 -315 q 306 -233 306 -268 q 318 -201 306 -212 q 350 -190 331 -190 q 383 -199 371 -190 q 408 -221 396 -208 q 437 -243 419 -233 q 486 -253 454 -253 q 544 -240 526 -253 q 563 -200 563 -228 q 538 -158 563 -174 q 461 -143 513 -143 q 414 -133 432 -143 q 396 -100 396 -122 q 471 -56 396 -56 q 602 -94 551 -56 q 653 -196 653 -133 q 602 -301 653 -262 q 476 -339 551 -339 z "},"Ȑ":{"ha":871,"x_min":139,"x_max":857,"o":"m 204 0 q 158 19 176 0 q 139 65 139 38 l 139 1019 q 158 1067 139 1049 q 204 1085 176 1085 l 458 1085 q 641 1042 561 1085 q 766 922 721 999 q 811 746 811 846 q 766 578 811 651 q 641 463 721 504 q 458 421 561 421 l 269 421 l 269 65 q 251 19 269 38 q 204 0 233 0 m 782 0 q 750 8 764 0 q 725 32 736 15 l 469 443 l 597 479 l 833 100 q 840 31 857 63 q 782 0 824 0 m 269 543 l 458 543 q 576 569 525 543 q 656 641 626 594 q 685 746 685 688 q 656 859 685 810 q 576 935 626 908 q 458 963 525 963 l 269 963 l 269 543 m 613 1186 q 564 1218 581 1186 l 485 1388 q 479 1413 479 1399 q 498 1456 479 1436 q 544 1476 517 1476 q 582 1465 565 1476 q 604 1436 599 1454 l 660 1257 q 663 1238 663 1247 q 646 1199 663 1213 q 613 1186 629 1186 m 410 1186 q 361 1218 378 1186 l 281 1388 q 277 1401 278 1394 q 275 1413 276 1407 q 294 1456 275 1436 q 340 1476 313 1476 q 378 1465 361 1476 q 400 1436 394 1454 l 457 1257 q 459 1247 458 1253 q 460 1238 460 1242 q 443 1199 460 1213 q 410 1186 426 1186 z "},"Ȓ":{"ha":871,"x_min":139,"x_max":857,"o":"m 204 0 q 158 19 176 0 q 139 65 139 38 l 139 1019 q 158 1067 139 1049 q 204 1085 176 1085 l 458 1085 q 641 1042 561 1085 q 766 922 721 999 q 811 746 811 846 q 766 578 811 651 q 641 463 721 504 q 458 421 561 421 l 269 421 l 269 65 q 251 19 269 38 q 204 0 233 0 m 782 0 q 750 8 764 0 q 725 32 736 15 l 469 443 l 597 479 l 833 100 q 840 31 857 63 q 782 0 824 0 m 269 543 l 458 543 q 576 569 525 543 q 656 641 626 594 q 685 746 685 688 q 656 859 685 810 q 576 935 626 908 q 458 963 525 963 l 269 963 l 269 543 m 307 1179 q 263 1197 279 1179 q 246 1243 246 1215 q 276 1330 246 1292 q 356 1390 306 1368 q 469 1413 407 1413 q 579 1390 529 1413 q 660 1331 629 1368 q 690 1243 690 1293 q 674 1197 690 1215 q 631 1179 658 1179 q 587 1194 606 1179 q 568 1233 568 1208 q 542 1286 568 1265 q 469 1307 515 1307 q 399 1285 429 1307 q 368 1233 368 1264 q 349 1194 368 1208 q 307 1179 331 1179 z "},"S":{"ha":942,"x_min":75,"x_max":857,"o":"m 479 -14 q 312 13 390 -14 q 175 89 233 40 q 89 203 117 138 q 88 251 75 229 q 132 281 101 274 q 178 274 156 286 q 211 239 200 263 q 268 172 229 201 q 362 124 307 142 q 479 106 417 106 q 605 128 549 106 q 695 192 661 150 q 729 296 729 235 q 669 433 729 374 q 478 508 610 493 q 214 610 310 526 q 118 815 118 693 q 167 967 118 904 q 300 1064 215 1031 q 492 1097 385 1097 q 635 1074 572 1097 q 745 1009 699 1050 q 825 915 792 968 q 838 863 842 888 q 813 825 835 839 q 760 819 788 811 q 719 851 733 828 q 667 917 699 889 q 591 961 635 944 q 488 978 547 978 q 314 937 382 979 q 246 810 246 894 q 269 727 246 765 q 349 660 292 689 q 511 619 407 632 q 768 517 679 600 q 857 300 857 435 q 827 164 857 222 q 744 66 797 106 q 623 6 692 26 q 479 -14 554 -14 z "},"Ś":{"ha":942,"x_min":75,"x_max":857,"o":"m 479 -14 q 312 13 390 -14 q 175 89 233 40 q 89 203 117 138 q 88 251 75 229 q 132 281 101 274 q 178 274 156 286 q 211 239 200 263 q 268 172 229 201 q 362 124 307 142 q 479 106 417 106 q 605 128 549 106 q 695 192 661 150 q 729 296 729 235 q 669 433 729 374 q 478 508 610 493 q 214 610 310 526 q 118 815 118 693 q 167 967 118 904 q 300 1064 215 1031 q 492 1097 385 1097 q 635 1074 572 1097 q 745 1009 699 1050 q 825 915 792 968 q 838 863 842 888 q 813 825 835 839 q 760 819 788 811 q 719 851 733 828 q 667 917 699 889 q 591 961 635 944 q 488 978 547 978 q 314 937 382 979 q 246 810 246 894 q 269 727 246 765 q 349 660 292 689 q 511 619 407 632 q 768 517 679 600 q 857 300 857 435 q 827 164 857 222 q 744 66 797 106 q 623 6 692 26 q 479 -14 554 -14 m 469 1203 q 424 1222 443 1203 q 406 1267 406 1240 q 421 1310 406 1293 l 565 1454 q 610 1472 583 1472 q 657 1453 639 1472 q 675 1407 675 1435 q 671 1383 675 1394 q 657 1363 667 1372 l 514 1219 q 469 1203 497 1203 z "},"Š":{"ha":942,"x_min":75,"x_max":857,"o":"m 479 -14 q 312 13 390 -14 q 175 89 233 40 q 89 203 117 138 q 88 251 75 229 q 132 281 101 274 q 178 274 156 286 q 211 239 200 263 q 268 172 229 201 q 362 124 307 142 q 479 106 417 106 q 605 128 549 106 q 695 192 661 150 q 729 296 729 235 q 669 433 729 374 q 478 508 610 493 q 214 610 310 526 q 118 815 118 693 q 167 967 118 904 q 300 1064 215 1031 q 492 1097 385 1097 q 635 1074 572 1097 q 745 1009 699 1050 q 825 915 792 968 q 838 863 842 888 q 813 825 835 839 q 760 819 788 811 q 719 851 733 828 q 667 917 699 889 q 591 961 635 944 q 488 978 547 978 q 314 937 382 979 q 246 810 246 894 q 269 727 246 765 q 349 660 292 689 q 511 619 407 632 q 768 517 679 600 q 857 300 857 435 q 827 164 857 222 q 744 66 797 106 q 623 6 692 26 q 479 -14 554 -14 m 471 1200 q 439 1210 451 1200 l 279 1315 q 249 1369 249 1338 q 280 1409 249 1397 q 354 1392 311 1421 l 471 1313 l 588 1392 q 665 1410 636 1424 q 693 1369 693 1396 q 663 1315 693 1338 l 504 1210 q 471 1200 490 1200 z "},"Ş":{"ha":942,"x_min":75,"x_max":857,"o":"m 479 -14 q 312 13 390 -14 q 175 89 233 40 q 89 203 117 138 q 88 251 75 229 q 132 281 101 274 q 178 274 156 286 q 211 239 200 263 q 268 172 229 201 q 362 124 307 142 q 479 106 417 106 q 605 128 549 106 q 695 192 661 150 q 729 296 729 235 q 669 433 729 374 q 478 508 610 493 q 214 610 310 526 q 118 815 118 693 q 167 967 118 904 q 300 1064 215 1031 q 492 1097 385 1097 q 635 1074 572 1097 q 745 1009 699 1050 q 825 915 792 968 q 838 863 842 888 q 813 825 835 839 q 760 819 788 811 q 719 851 733 828 q 667 917 699 889 q 591 961 635 944 q 488 978 547 978 q 314 937 382 979 q 246 810 246 894 q 269 727 246 765 q 349 660 292 689 q 511 619 407 632 q 768 517 679 600 q 857 300 857 435 q 827 164 857 222 q 744 66 797 106 q 623 6 692 26 q 479 -14 554 -14 m 469 -325 q 338 -291 389 -325 q 286 -212 286 -257 q 304 -170 286 -187 q 347 -153 322 -153 q 374 -160 363 -153 q 394 -185 386 -168 q 424 -217 404 -206 q 471 -228 444 -228 q 519 -215 500 -228 q 538 -178 538 -201 q 523 -136 538 -151 q 472 -114 508 -121 q 416 -87 432 -107 q 415 -26 400 -68 l 432 19 q 458 57 440 43 q 504 71 476 71 q 552 49 536 71 q 554 -1 568 28 l 533 -49 q 637 -98 606 -65 q 668 -181 668 -131 q 643 -250 668 -217 q 574 -304 618 -283 q 469 -325 529 -325 z "},"Ŝ":{"ha":942,"x_min":75,"x_max":857,"o":"m 479 -14 q 312 13 390 -14 q 175 89 233 40 q 89 203 117 138 q 88 251 75 229 q 132 281 101 274 q 178 274 156 286 q 211 239 200 263 q 268 172 229 201 q 362 124 307 142 q 479 106 417 106 q 605 128 549 106 q 695 192 661 150 q 729 296 729 235 q 669 433 729 374 q 478 508 610 493 q 214 610 310 526 q 118 815 118 693 q 167 967 118 904 q 300 1064 215 1031 q 492 1097 385 1097 q 635 1074 572 1097 q 745 1009 699 1050 q 825 915 792 968 q 838 863 842 888 q 813 825 835 839 q 760 819 788 811 q 719 851 733 828 q 667 917 699 889 q 591 961 635 944 q 488 978 547 978 q 314 937 382 979 q 246 810 246 894 q 269 727 246 765 q 349 660 292 689 q 511 619 407 632 q 768 517 679 600 q 857 300 857 435 q 827 164 857 222 q 744 66 797 106 q 623 6 692 26 q 479 -14 554 -14 m 314 1189 q 267 1204 286 1189 q 249 1243 249 1219 q 279 1299 249 1276 l 439 1403 q 471 1413 454 1413 q 488 1410 481 1413 q 504 1403 496 1408 l 663 1299 q 693 1243 693 1276 q 675 1204 693 1219 q 629 1189 657 1189 q 608 1192 617 1189 q 588 1203 599 1196 l 471 1285 l 354 1203 q 314 1189 336 1189 z "},"Ș":{"ha":942,"x_min":75,"x_max":857,"o":"m 479 -14 q 312 13 390 -14 q 175 89 233 40 q 89 203 117 138 q 88 251 75 229 q 132 281 101 274 q 178 274 156 286 q 211 239 200 263 q 268 172 229 201 q 362 124 307 142 q 479 106 417 106 q 605 128 549 106 q 695 192 661 150 q 729 296 729 235 q 669 433 729 374 q 478 508 610 493 q 214 610 310 526 q 118 815 118 693 q 167 967 118 904 q 300 1064 215 1031 q 492 1097 385 1097 q 635 1074 572 1097 q 745 1009 699 1050 q 825 915 792 968 q 838 863 842 888 q 813 825 835 839 q 760 819 788 811 q 719 851 733 828 q 667 917 699 889 q 591 961 635 944 q 488 978 547 978 q 314 937 382 979 q 246 810 246 894 q 269 727 246 765 q 349 660 292 689 q 511 619 407 632 q 768 517 679 600 q 857 300 857 435 q 827 164 857 222 q 744 66 797 106 q 623 6 692 26 q 479 -14 554 -14 m 478 -339 q 401 -327 440 -339 q 334 -292 361 -315 q 307 -233 307 -268 q 319 -201 307 -212 q 351 -190 332 -190 q 385 -199 372 -190 q 409 -221 397 -208 q 438 -243 421 -233 q 488 -253 456 -253 q 546 -240 528 -253 q 564 -200 564 -228 q 539 -158 564 -174 q 463 -143 514 -143 q 415 -133 433 -143 q 397 -100 397 -122 q 472 -56 397 -56 q 603 -94 553 -56 q 654 -196 654 -133 q 603 -301 654 -262 q 478 -339 553 -339 z "},"ẞ":{"ha":989,"x_min":139,"x_max":913,"o":"m 201 0 q 154 17 169 0 q 139 58 139 35 l 139 753 q 185 926 139 851 q 313 1043 232 1001 q 494 1085 393 1085 q 647 1058 578 1085 q 760 990 717 1032 q 807 901 803 949 q 799 847 810 867 q 771 807 789 826 l 526 550 l 461 625 l 697 883 q 611 944 663 924 q 494 964 560 964 q 378 937 429 964 q 299 860 328 910 q 269 743 269 811 l 269 58 q 251 17 269 33 q 201 0 233 0 m 565 -3 q 484 5 524 -3 q 411 29 444 13 q 390 49 397 36 q 383 88 383 63 q 406 131 383 117 q 461 136 429 144 q 495 128 479 132 q 528 122 511 124 q 565 119 546 119 q 679 144 629 119 q 758 216 729 169 q 786 328 786 263 q 758 433 786 390 q 681 500 731 476 q 565 524 632 524 l 506 524 q 464 541 481 524 q 447 583 447 558 q 464 628 447 611 q 506 646 481 646 l 590 646 q 753 607 681 646 q 869 497 826 568 q 913 328 913 426 q 868 158 913 232 q 745 41 824 85 q 565 -3 667 -3 z "},"Ə":{"ha":1174,"x_min":88,"x_max":1088,"o":"m 599 -12 q 393 27 486 -12 q 231 139 300 67 q 125 308 163 211 q 88 521 88 406 q 112 579 88 557 q 172 601 136 601 l 1018 601 l 1018 485 l 142 485 l 215 510 q 268 303 218 394 q 404 159 318 213 q 599 106 490 106 q 786 162 704 106 q 916 316 868 218 q 964 536 964 414 q 908 765 964 665 q 754 922 851 865 q 532 978 657 978 q 396 956 461 978 q 275 897 331 935 q 233 885 256 883 q 194 903 211 886 q 180 944 179 921 q 199 981 181 967 q 352 1067 267 1036 q 543 1097 438 1097 q 759 1056 660 1097 q 933 939 858 1014 q 1047 761 1007 864 q 1088 536 1088 658 q 1051 319 1088 419 q 948 144 1014 218 q 793 28 882 69 q 599 -12 704 -12 z "},"T":{"ha":915,"x_min":21,"x_max":894,"o":"m 457 0 q 411 19 431 0 q 392 65 392 38 l 392 1085 l 522 1085 l 522 65 q 504 19 522 38 q 457 0 486 0 m 81 965 q 38 982 54 965 q 21 1025 21 999 q 38 1068 21 1051 q 81 1085 54 1085 l 833 1085 q 878 1068 861 1085 q 894 1025 894 1051 q 878 982 894 999 q 833 965 861 965 l 81 965 z "},"Ŧ":{"ha":915,"x_min":21,"x_max":894,"o":"m 457 0 q 411 19 431 0 q 392 65 392 38 l 392 1085 l 522 1085 l 522 65 q 504 19 522 38 q 457 0 486 0 m 81 965 q 38 982 54 965 q 21 1025 21 999 q 38 1068 21 1051 q 81 1085 54 1085 l 833 1085 q 878 1068 861 1085 q 894 1025 894 1051 q 878 982 894 999 q 833 965 861 965 l 81 965 m 236 488 q 190 502 208 488 q 172 543 172 517 q 190 585 172 569 q 236 600 208 600 l 682 600 q 728 585 710 600 q 746 543 746 571 q 728 502 746 517 q 682 488 710 488 l 236 488 z "},"Ť":{"ha":915,"x_min":21,"x_max":894,"o":"m 457 0 q 411 19 431 0 q 392 65 392 38 l 392 1085 l 522 1085 l 522 65 q 504 19 522 38 q 457 0 486 0 m 81 965 q 38 982 54 965 q 21 1025 21 999 q 38 1068 21 1051 q 81 1085 54 1085 l 833 1085 q 878 1068 861 1085 q 894 1025 894 1051 q 878 982 894 999 q 833 965 861 965 l 81 965 m 457 1200 q 425 1210 438 1200 l 265 1315 q 235 1369 235 1338 q 266 1409 235 1397 q 340 1392 297 1421 l 457 1313 l 574 1392 q 651 1410 622 1424 q 679 1369 679 1396 q 649 1315 679 1338 l 490 1210 q 457 1200 476 1200 z "},"Ţ":{"ha":915,"x_min":21,"x_max":894,"o":"m 457 0 q 411 19 431 0 q 392 65 392 38 l 392 1085 l 522 1085 l 522 65 q 504 19 522 38 q 457 0 486 0 m 81 965 q 38 982 54 965 q 21 1025 21 999 q 38 1068 21 1051 q 81 1085 54 1085 l 833 1085 q 878 1068 861 1085 q 894 1025 894 1051 q 878 982 894 999 q 833 965 861 965 l 81 965 m 456 -325 q 324 -291 375 -325 q 272 -212 272 -257 q 290 -170 272 -187 q 333 -153 308 -153 q 360 -160 349 -153 q 381 -185 372 -168 q 410 -217 390 -206 q 457 -228 431 -228 q 505 -215 486 -228 q 524 -178 524 -201 q 509 -136 524 -151 q 458 -114 494 -121 q 402 -87 418 -107 q 401 -26 386 -68 l 418 19 q 444 57 426 43 q 490 71 463 71 q 538 49 522 71 q 540 -1 554 28 l 519 -49 q 623 -98 592 -65 q 654 -181 654 -131 q 629 -250 654 -217 q 560 -304 604 -283 q 456 -325 515 -325 z "},"Ț":{"ha":915,"x_min":21,"x_max":894,"o":"m 457 0 q 411 19 431 0 q 392 65 392 38 l 392 1085 l 522 1085 l 522 65 q 504 19 522 38 q 457 0 486 0 m 81 965 q 38 982 54 965 q 21 1025 21 999 q 38 1068 21 1051 q 81 1085 54 1085 l 833 1085 q 878 1068 861 1085 q 894 1025 894 1051 q 878 982 894 999 q 833 965 861 965 l 81 965 m 464 -339 q 387 -327 426 -339 q 320 -292 347 -315 q 293 -233 293 -268 q 306 -201 293 -212 q 338 -190 318 -190 q 371 -199 358 -190 q 395 -221 383 -208 q 424 -243 407 -233 q 474 -253 442 -253 q 532 -240 514 -253 q 550 -200 550 -228 q 525 -158 550 -174 q 449 -143 500 -143 q 401 -133 419 -143 q 383 -100 383 -122 q 458 -56 383 -56 q 590 -94 539 -56 q 640 -196 640 -133 q 590 -301 640 -262 q 464 -339 539 -339 z "},"U":{"ha":1160,"x_min":139,"x_max":1021,"o":"m 585 -22 q 353 27 454 -22 q 196 163 253 76 q 139 361 139 250 l 139 1019 q 158 1066 139 1047 q 204 1085 176 1085 q 251 1066 233 1085 q 269 1019 269 1047 l 269 361 q 310 224 269 283 q 422 131 350 165 q 585 97 493 97 q 743 131 674 97 q 852 224 813 165 q 892 361 892 283 l 892 1019 q 910 1066 892 1047 q 957 1085 929 1085 q 1003 1066 986 1085 q 1021 1019 1021 1047 l 1021 361 q 965 163 1021 250 q 811 27 910 76 q 585 -22 713 -22 z "},"Ú":{"ha":1160,"x_min":139,"x_max":1021,"o":"m 585 -22 q 353 27 454 -22 q 196 163 253 76 q 139 361 139 250 l 139 1019 q 158 1066 139 1047 q 204 1085 176 1085 q 251 1066 233 1085 q 269 1019 269 1047 l 269 361 q 310 224 269 283 q 422 131 350 165 q 585 97 493 97 q 743 131 674 97 q 852 224 813 165 q 892 361 892 283 l 892 1019 q 910 1066 892 1047 q 957 1085 929 1085 q 1003 1066 986 1085 q 1021 1019 1021 1047 l 1021 361 q 965 163 1021 250 q 811 27 910 76 q 585 -22 713 -22 m 579 1203 q 534 1222 553 1203 q 515 1267 515 1240 q 531 1310 515 1293 l 675 1454 q 719 1472 693 1472 q 767 1453 749 1472 q 785 1407 785 1435 q 781 1383 785 1394 q 767 1363 776 1372 l 624 1219 q 579 1203 607 1203 z "},"Ŭ":{"ha":1160,"x_min":139,"x_max":1021,"o":"m 585 -22 q 353 27 454 -22 q 196 163 253 76 q 139 361 139 250 l 139 1019 q 158 1066 139 1047 q 204 1085 176 1085 q 251 1066 233 1085 q 269 1019 269 1047 l 269 361 q 310 224 269 283 q 422 131 350 165 q 585 97 493 97 q 743 131 674 97 q 852 224 813 165 q 892 361 892 283 l 892 1019 q 910 1066 892 1047 q 957 1085 929 1085 q 1003 1066 986 1085 q 1021 1019 1021 1047 l 1021 361 q 965 163 1021 250 q 811 27 910 76 q 585 -22 713 -22 m 581 1179 q 469 1201 519 1179 q 388 1262 418 1224 q 357 1349 357 1300 q 374 1394 357 1375 q 418 1413 392 1413 q 460 1398 442 1413 q 479 1358 479 1383 q 510 1305 479 1326 q 581 1283 540 1283 q 653 1305 626 1283 q 681 1358 681 1326 q 699 1398 681 1383 q 743 1413 718 1413 q 786 1394 769 1413 q 803 1349 803 1376 q 771 1261 801 1300 q 690 1201 740 1222 q 581 1179 640 1179 z "},"Û":{"ha":1160,"x_min":139,"x_max":1021,"o":"m 585 -22 q 353 27 454 -22 q 196 163 253 76 q 139 361 139 250 l 139 1019 q 158 1066 139 1047 q 204 1085 176 1085 q 251 1066 233 1085 q 269 1019 269 1047 l 269 361 q 310 224 269 283 q 422 131 350 165 q 585 97 493 97 q 743 131 674 97 q 852 224 813 165 q 892 361 892 283 l 892 1019 q 910 1066 892 1047 q 957 1085 929 1085 q 1003 1066 986 1085 q 1021 1019 1021 1047 l 1021 361 q 965 163 1021 250 q 811 27 910 76 q 585 -22 713 -22 m 424 1189 q 377 1204 396 1189 q 358 1243 358 1219 q 389 1299 358 1276 l 549 1403 q 581 1413 564 1413 q 598 1410 590 1413 q 614 1403 606 1408 l 772 1299 q 803 1243 803 1276 q 785 1204 803 1219 q 739 1189 767 1189 q 717 1192 726 1189 q 697 1203 708 1196 l 581 1285 l 464 1203 q 424 1189 446 1189 z "},"Ȕ":{"ha":1160,"x_min":139,"x_max":1021,"o":"m 585 -22 q 353 27 454 -22 q 196 163 253 76 q 139 361 139 250 l 139 1019 q 158 1066 139 1047 q 204 1085 176 1085 q 251 1066 233 1085 q 269 1019 269 1047 l 269 361 q 310 224 269 283 q 422 131 350 165 q 585 97 493 97 q 743 131 674 97 q 852 224 813 165 q 892 361 892 283 l 892 1019 q 910 1066 892 1047 q 957 1085 929 1085 q 1003 1066 986 1085 q 1021 1019 1021 1047 l 1021 361 q 965 163 1021 250 q 811 27 910 76 q 585 -22 713 -22 m 724 1186 q 675 1218 692 1186 l 596 1388 q 590 1413 590 1399 q 609 1456 590 1436 q 656 1476 628 1476 q 693 1465 676 1476 q 715 1436 710 1454 l 771 1257 q 774 1238 774 1247 q 757 1199 774 1213 q 724 1186 740 1186 m 521 1186 q 472 1218 489 1186 l 392 1388 q 388 1401 389 1394 q 386 1413 388 1407 q 405 1456 386 1436 q 451 1476 424 1476 q 489 1465 472 1476 q 511 1436 506 1454 l 568 1257 q 570 1247 569 1253 q 571 1238 571 1242 q 554 1199 571 1213 q 521 1186 538 1186 z "},"Ü":{"ha":1160,"x_min":139,"x_max":1021,"o":"m 585 -22 q 353 27 454 -22 q 196 163 253 76 q 139 361 139 250 l 139 1019 q 158 1066 139 1047 q 204 1085 176 1085 q 251 1066 233 1085 q 269 1019 269 1047 l 269 361 q 310 224 269 283 q 422 131 350 165 q 585 97 493 97 q 743 131 674 97 q 852 224 813 165 q 892 361 892 283 l 892 1019 q 910 1066 892 1047 q 957 1085 929 1085 q 1003 1066 986 1085 q 1021 1019 1021 1047 l 1021 361 q 965 163 1021 250 q 811 27 910 76 q 585 -22 713 -22 m 431 1210 q 373 1233 397 1210 q 349 1290 349 1257 q 373 1347 349 1322 q 431 1371 397 1371 q 488 1347 464 1371 q 511 1290 511 1322 q 488 1233 511 1257 q 431 1210 464 1210 m 732 1210 q 675 1233 699 1210 q 651 1290 651 1257 q 675 1347 651 1322 q 732 1371 699 1371 q 789 1347 765 1371 q 813 1290 813 1322 q 789 1233 813 1257 q 732 1210 765 1210 z "},"Ụ":{"ha":1160,"x_min":139,"x_max":1021,"o":"m 585 -22 q 353 27 454 -22 q 196 163 253 76 q 139 361 139 250 l 139 1019 q 158 1066 139 1047 q 204 1085 176 1085 q 251 1066 233 1085 q 269 1019 269 1047 l 269 361 q 310 224 269 283 q 422 131 350 165 q 585 97 493 97 q 743 131 674 97 q 852 224 813 165 q 892 361 892 283 l 892 1019 q 910 1066 892 1047 q 957 1085 929 1085 q 1003 1066 986 1085 q 1021 1019 1021 1047 l 1021 361 q 965 163 1021 250 q 811 27 910 76 q 585 -22 713 -22 m 579 -303 q 519 -278 544 -303 q 494 -217 494 -253 q 520 -156 494 -181 q 581 -132 546 -132 q 640 -156 614 -132 q 665 -217 665 -181 q 640 -278 665 -253 q 579 -303 615 -303 z "},"Ù":{"ha":1160,"x_min":139,"x_max":1021,"o":"m 585 -22 q 353 27 454 -22 q 196 163 253 76 q 139 361 139 250 l 139 1019 q 158 1066 139 1047 q 204 1085 176 1085 q 251 1066 233 1085 q 269 1019 269 1047 l 269 361 q 310 224 269 283 q 422 131 350 165 q 585 97 493 97 q 743 131 674 97 q 852 224 813 165 q 892 361 892 283 l 892 1019 q 910 1066 892 1047 q 957 1085 929 1085 q 1003 1066 986 1085 q 1021 1019 1021 1047 l 1021 361 q 965 163 1021 250 q 811 27 910 76 q 585 -22 713 -22 m 578 1206 q 535 1224 551 1206 l 390 1367 q 374 1411 374 1383 q 392 1458 374 1439 q 436 1476 410 1476 q 483 1457 464 1476 l 626 1313 q 643 1271 643 1297 q 624 1224 643 1243 q 578 1206 606 1206 z "},"Ủ":{"ha":1160,"x_min":139,"x_max":1021,"o":"m 585 -22 q 353 27 454 -22 q 196 163 253 76 q 139 361 139 250 l 139 1019 q 158 1066 139 1047 q 204 1085 176 1085 q 251 1066 233 1085 q 269 1019 269 1047 l 269 361 q 310 224 269 283 q 422 131 350 165 q 585 97 493 97 q 743 131 674 97 q 852 224 813 165 q 892 361 892 283 l 892 1019 q 910 1066 892 1047 q 957 1085 929 1085 q 1003 1066 986 1085 q 1021 1019 1021 1047 l 1021 361 q 965 163 1021 250 q 811 27 910 76 q 585 -22 713 -22 m 581 1158 q 539 1175 556 1158 q 522 1215 522 1192 l 522 1250 q 574 1313 522 1301 l 610 1319 q 651 1340 635 1326 q 667 1378 667 1354 q 649 1421 667 1407 q 603 1435 631 1435 q 567 1428 583 1435 q 539 1413 550 1421 q 519 1402 531 1406 q 497 1399 508 1399 q 463 1410 478 1399 q 449 1446 449 1422 q 468 1490 449 1474 q 528 1523 496 1511 q 600 1535 560 1535 q 720 1492 674 1535 q 767 1383 767 1449 q 724 1283 768 1315 q 617 1243 679 1251 l 638 1238 q 621 1178 638 1197 q 581 1158 604 1158 z "},"Ư":{"ha":1160,"x_min":139,"x_max":1196,"o":"m 585 -22 q 353 27 454 -22 q 196 163 253 76 q 139 361 139 250 l 139 1019 q 158 1066 139 1047 q 204 1085 176 1085 q 251 1066 233 1085 q 269 1019 269 1047 l 269 361 q 310 224 269 283 q 422 131 350 165 q 585 97 493 97 q 743 131 674 97 q 852 224 813 165 q 892 361 892 283 l 892 1019 q 910 1066 892 1047 q 957 1085 929 1085 q 1003 1066 986 1085 q 1021 1019 1021 1047 l 1021 361 q 965 163 1021 250 q 811 27 910 76 q 585 -22 713 -22 m 957 969 l 957 1085 l 1021 1085 q 1064 1108 1046 1085 q 1082 1171 1082 1132 l 1082 1199 q 1098 1244 1082 1226 q 1139 1263 1114 1263 q 1183 1241 1168 1263 q 1197 1190 1197 1219 l 1197 1171 q 1174 1068 1197 1114 q 1112 996 1151 1022 q 1021 969 1072 969 l 957 969 z "},"Ứ":{"ha":1160,"x_min":139,"x_max":1196,"o":"m 585 -22 q 353 27 454 -22 q 196 163 253 76 q 139 361 139 250 l 139 1019 q 158 1066 139 1047 q 204 1085 176 1085 q 251 1066 233 1085 q 269 1019 269 1047 l 269 361 q 310 224 269 283 q 422 131 350 165 q 585 97 493 97 q 743 131 674 97 q 852 224 813 165 q 892 361 892 283 l 892 1019 q 910 1066 892 1047 q 957 1085 929 1085 q 1003 1066 986 1085 q 1021 1019 1021 1047 l 1021 361 q 965 163 1021 250 q 811 27 910 76 q 585 -22 713 -22 m 957 969 l 957 1085 l 1021 1085 q 1064 1108 1046 1085 q 1082 1171 1082 1132 l 1082 1199 q 1098 1244 1082 1226 q 1139 1263 1114 1263 q 1183 1241 1168 1263 q 1197 1190 1197 1219 l 1197 1171 q 1174 1068 1197 1114 q 1112 996 1151 1022 q 1021 969 1072 969 l 957 969 m 579 1203 q 534 1222 553 1203 q 515 1267 515 1240 q 531 1310 515 1293 l 675 1454 q 719 1472 693 1472 q 767 1453 749 1472 q 785 1407 785 1435 q 781 1383 785 1394 q 767 1363 776 1372 l 624 1219 q 579 1203 607 1203 z "},"Ự":{"ha":1160,"x_min":139,"x_max":1196,"o":"m 585 -22 q 353 27 454 -22 q 196 163 253 76 q 139 361 139 250 l 139 1019 q 158 1066 139 1047 q 204 1085 176 1085 q 251 1066 233 1085 q 269 1019 269 1047 l 269 361 q 310 224 269 283 q 422 131 350 165 q 585 97 493 97 q 743 131 674 97 q 852 224 813 165 q 892 361 892 283 l 892 1019 q 910 1066 892 1047 q 957 1085 929 1085 q 1003 1066 986 1085 q 1021 1019 1021 1047 l 1021 361 q 965 163 1021 250 q 811 27 910 76 q 585 -22 713 -22 m 957 969 l 957 1085 l 1021 1085 q 1064 1108 1046 1085 q 1082 1171 1082 1132 l 1082 1199 q 1098 1244 1082 1226 q 1139 1263 1114 1263 q 1183 1241 1168 1263 q 1197 1190 1197 1219 l 1197 1171 q 1174 1068 1197 1114 q 1112 996 1151 1022 q 1021 969 1072 969 l 957 969 m 579 -303 q 519 -278 544 -303 q 494 -217 494 -253 q 520 -156 494 -181 q 581 -132 546 -132 q 640 -156 614 -132 q 665 -217 665 -181 q 640 -278 665 -253 q 579 -303 615 -303 z "},"Ừ":{"ha":1160,"x_min":139,"x_max":1196,"o":"m 585 -22 q 353 27 454 -22 q 196 163 253 76 q 139 361 139 250 l 139 1019 q 158 1066 139 1047 q 204 1085 176 1085 q 251 1066 233 1085 q 269 1019 269 1047 l 269 361 q 310 224 269 283 q 422 131 350 165 q 585 97 493 97 q 743 131 674 97 q 852 224 813 165 q 892 361 892 283 l 892 1019 q 910 1066 892 1047 q 957 1085 929 1085 q 1003 1066 986 1085 q 1021 1019 1021 1047 l 1021 361 q 965 163 1021 250 q 811 27 910 76 q 585 -22 713 -22 m 957 969 l 957 1085 l 1021 1085 q 1064 1108 1046 1085 q 1082 1171 1082 1132 l 1082 1199 q 1098 1244 1082 1226 q 1139 1263 1114 1263 q 1183 1241 1168 1263 q 1197 1190 1197 1219 l 1197 1171 q 1174 1068 1197 1114 q 1112 996 1151 1022 q 1021 969 1072 969 l 957 969 m 578 1206 q 535 1224 551 1206 l 390 1367 q 374 1411 374 1383 q 392 1458 374 1439 q 436 1476 410 1476 q 483 1457 464 1476 l 626 1313 q 643 1271 643 1297 q 624 1224 643 1243 q 578 1206 606 1206 z "},"Ử":{"ha":1160,"x_min":139,"x_max":1196,"o":"m 585 -22 q 353 27 454 -22 q 196 163 253 76 q 139 361 139 250 l 139 1019 q 158 1066 139 1047 q 204 1085 176 1085 q 251 1066 233 1085 q 269 1019 269 1047 l 269 361 q 310 224 269 283 q 422 131 350 165 q 585 97 493 97 q 743 131 674 97 q 852 224 813 165 q 892 361 892 283 l 892 1019 q 910 1066 892 1047 q 957 1085 929 1085 q 1003 1066 986 1085 q 1021 1019 1021 1047 l 1021 361 q 965 163 1021 250 q 811 27 910 76 q 585 -22 713 -22 m 957 969 l 957 1085 l 1021 1085 q 1064 1108 1046 1085 q 1082 1171 1082 1132 l 1082 1199 q 1098 1244 1082 1226 q 1139 1263 1114 1263 q 1183 1241 1168 1263 q 1197 1190 1197 1219 l 1197 1171 q 1174 1068 1197 1114 q 1112 996 1151 1022 q 1021 969 1072 969 l 957 969 m 581 1158 q 539 1175 556 1158 q 522 1215 522 1192 l 522 1250 q 574 1313 522 1301 l 610 1319 q 651 1340 635 1326 q 667 1378 667 1354 q 649 1421 667 1407 q 603 1435 631 1435 q 567 1428 583 1435 q 539 1413 550 1421 q 519 1402 531 1406 q 497 1399 508 1399 q 463 1410 478 1399 q 449 1446 449 1422 q 468 1490 449 1474 q 528 1523 496 1511 q 600 1535 560 1535 q 720 1492 674 1535 q 767 1383 767 1449 q 724 1283 768 1315 q 617 1243 679 1251 l 638 1238 q 621 1178 638 1197 q 581 1158 604 1158 z "},"Ữ":{"ha":1160,"x_min":139,"x_max":1196,"o":"m 585 -22 q 353 27 454 -22 q 196 163 253 76 q 139 361 139 250 l 139 1019 q 158 1066 139 1047 q 204 1085 176 1085 q 251 1066 233 1085 q 269 1019 269 1047 l 269 361 q 310 224 269 283 q 422 131 350 165 q 585 97 493 97 q 743 131 674 97 q 852 224 813 165 q 892 361 892 283 l 892 1019 q 910 1066 892 1047 q 957 1085 929 1085 q 1003 1066 986 1085 q 1021 1019 1021 1047 l 1021 361 q 965 163 1021 250 q 811 27 910 76 q 585 -22 713 -22 m 957 969 l 957 1085 l 1021 1085 q 1064 1108 1046 1085 q 1082 1171 1082 1132 l 1082 1199 q 1098 1244 1082 1226 q 1139 1263 1114 1263 q 1183 1241 1168 1263 q 1197 1190 1197 1219 l 1197 1171 q 1174 1068 1197 1114 q 1112 996 1151 1022 q 1021 969 1072 969 l 957 969 m 728 1192 q 648 1207 682 1192 q 589 1236 614 1222 q 539 1260 560 1253 q 501 1268 518 1268 q 461 1259 479 1268 q 425 1226 443 1250 q 388 1197 410 1206 q 343 1200 365 1188 q 319 1233 324 1210 q 331 1278 315 1257 q 409 1348 363 1324 q 508 1372 456 1372 q 585 1357 553 1372 q 642 1329 618 1342 q 689 1304 672 1311 q 725 1297 706 1297 q 760 1304 744 1297 q 786 1322 775 1311 q 821 1347 804 1340 q 861 1340 838 1354 q 885 1304 882 1329 q 871 1258 888 1279 q 728 1192 817 1192 z "},"Ű":{"ha":1160,"x_min":139,"x_max":1021,"o":"m 585 -22 q 353 27 454 -22 q 196 163 253 76 q 139 361 139 250 l 139 1019 q 158 1066 139 1047 q 204 1085 176 1085 q 251 1066 233 1085 q 269 1019 269 1047 l 269 361 q 310 224 269 283 q 422 131 350 165 q 585 97 493 97 q 743 131 674 97 q 852 224 813 165 q 892 361 892 283 l 892 1019 q 910 1066 892 1047 q 957 1085 929 1085 q 1003 1066 986 1085 q 1021 1019 1021 1047 l 1021 361 q 965 163 1021 250 q 811 27 910 76 q 585 -22 713 -22 m 681 1186 q 647 1199 664 1186 q 631 1238 631 1213 q 631 1247 631 1242 q 633 1257 632 1253 l 690 1436 q 713 1465 696 1454 q 750 1476 729 1476 q 797 1456 778 1476 q 815 1411 815 1436 q 813 1401 814 1407 q 810 1388 813 1394 l 729 1218 q 681 1186 713 1186 m 478 1186 q 444 1199 461 1186 q 428 1238 428 1213 q 428 1247 428 1242 q 431 1257 429 1253 l 486 1436 q 508 1465 492 1454 q 546 1476 525 1476 q 593 1456 575 1476 q 611 1411 611 1436 q 606 1388 611 1400 l 526 1218 q 478 1186 511 1186 z "},"Ȗ":{"ha":1160,"x_min":139,"x_max":1021,"o":"m 585 -22 q 353 27 454 -22 q 196 163 253 76 q 139 361 139 250 l 139 1019 q 158 1066 139 1047 q 204 1085 176 1085 q 251 1066 233 1085 q 269 1019 269 1047 l 269 361 q 310 224 269 283 q 422 131 350 165 q 585 97 493 97 q 743 131 674 97 q 852 224 813 165 q 892 361 892 283 l 892 1019 q 910 1066 892 1047 q 957 1085 929 1085 q 1003 1066 986 1085 q 1021 1019 1021 1047 l 1021 361 q 965 163 1021 250 q 811 27 910 76 q 585 -22 713 -22 m 418 1179 q 374 1197 390 1179 q 357 1243 357 1215 q 387 1330 357 1292 q 467 1390 417 1368 q 581 1413 518 1413 q 690 1390 640 1413 q 771 1331 740 1368 q 801 1243 801 1293 q 785 1197 801 1215 q 742 1179 769 1179 q 698 1194 717 1179 q 679 1233 679 1208 q 653 1286 679 1265 q 581 1307 626 1307 q 510 1285 540 1307 q 479 1233 479 1264 q 460 1194 479 1208 q 418 1179 442 1179 z "},"Ū":{"ha":1160,"x_min":139,"x_max":1021,"o":"m 585 -22 q 353 27 454 -22 q 196 163 253 76 q 139 361 139 250 l 139 1019 q 158 1066 139 1047 q 204 1085 176 1085 q 251 1066 233 1085 q 269 1019 269 1047 l 269 361 q 310 224 269 283 q 422 131 350 165 q 585 97 493 97 q 743 131 674 97 q 852 224 813 165 q 892 361 892 283 l 892 1019 q 910 1066 892 1047 q 957 1085 929 1085 q 1003 1066 986 1085 q 1021 1019 1021 1047 l 1021 361 q 965 163 1021 250 q 811 27 910 76 q 585 -22 713 -22 m 403 1228 q 357 1244 375 1228 q 339 1288 339 1260 q 357 1329 339 1314 q 403 1344 375 1344 l 756 1344 q 801 1329 782 1344 q 821 1288 821 1314 q 801 1244 821 1260 q 756 1228 782 1228 l 403 1228 z "},"Ų":{"ha":1160,"x_min":139,"x_max":1021,"o":"m 585 -22 q 353 27 454 -22 q 196 163 253 76 q 139 361 139 250 l 139 1019 q 158 1066 139 1047 q 204 1085 176 1085 q 251 1066 233 1085 q 269 1019 269 1047 l 269 361 q 310 224 269 283 q 422 131 350 165 q 585 97 493 97 q 743 131 674 97 q 852 224 813 165 q 892 361 892 283 l 892 1019 q 910 1066 892 1047 q 957 1085 929 1085 q 1003 1066 986 1085 q 1021 1019 1021 1047 l 1021 361 q 965 163 1021 250 q 811 27 910 76 q 585 -22 713 -22 m 717 -299 q 633 -276 672 -299 q 572 -215 594 -253 q 549 -129 549 -176 q 618 8 549 -50 q 646 33 636 21 q 661 57 656 46 q 717 90 679 90 q 763 73 744 90 q 782 28 781 56 q 760 -33 782 -3 q 694 -96 738 -64 q 681 -111 685 -101 q 676 -129 676 -121 q 688 -158 676 -147 q 717 -169 700 -169 q 729 -168 724 -169 q 739 -164 735 -167 l 783 -131 q 822 -118 803 -118 q 869 -136 851 -118 q 886 -182 886 -154 q 864 -233 886 -212 l 811 -269 q 717 -299 768 -299 z "},"Ů":{"ha":1160,"x_min":139,"x_max":1021,"o":"m 585 -22 q 353 27 454 -22 q 196 163 253 76 q 139 361 139 250 l 139 1019 q 158 1066 139 1047 q 204 1085 176 1085 q 251 1066 233 1085 q 269 1019 269 1047 l 269 361 q 310 224 269 283 q 422 131 350 165 q 585 97 493 97 q 743 131 674 97 q 852 224 813 165 q 892 361 892 283 l 892 1019 q 910 1066 892 1047 q 957 1085 929 1085 q 1003 1066 986 1085 q 1021 1019 1021 1047 l 1021 361 q 965 163 1021 250 q 811 27 910 76 q 585 -22 713 -22 m 581 1143 q 478 1183 519 1143 q 438 1286 438 1224 q 478 1390 438 1349 q 581 1431 519 1431 q 684 1390 643 1431 q 725 1286 725 1349 q 685 1184 725 1225 q 581 1143 644 1143 m 581 1214 q 633 1235 613 1214 q 653 1286 653 1256 q 633 1339 653 1318 q 581 1360 613 1360 q 529 1339 550 1360 q 508 1286 508 1318 q 529 1235 508 1256 q 581 1214 550 1214 z "},"Ũ":{"ha":1160,"x_min":139,"x_max":1021,"o":"m 585 -22 q 353 27 454 -22 q 196 163 253 76 q 139 361 139 250 l 139 1019 q 158 1066 139 1047 q 204 1085 176 1085 q 251 1066 233 1085 q 269 1019 269 1047 l 269 361 q 310 224 269 283 q 422 131 350 165 q 585 97 493 97 q 743 131 674 97 q 852 224 813 165 q 892 361 892 283 l 892 1019 q 910 1066 892 1047 q 957 1085 929 1085 q 1003 1066 986 1085 q 1021 1019 1021 1047 l 1021 361 q 965 163 1021 250 q 811 27 910 76 q 585 -22 713 -22 m 728 1192 q 648 1207 682 1192 q 589 1236 614 1222 q 539 1260 560 1253 q 501 1268 518 1268 q 461 1259 479 1268 q 425 1226 443 1250 q 388 1197 410 1206 q 343 1200 365 1188 q 319 1233 324 1210 q 331 1278 315 1257 q 409 1348 363 1324 q 508 1372 456 1372 q 585 1357 553 1372 q 642 1329 618 1342 q 689 1304 672 1311 q 725 1297 706 1297 q 760 1304 744 1297 q 786 1322 775 1311 q 821 1347 804 1340 q 861 1340 838 1354 q 885 1304 882 1329 q 871 1258 888 1279 q 728 1192 817 1192 z "},"V":{"ha":1013,"x_min":19,"x_max":993,"o":"m 507 0 q 447 42 465 0 l 38 986 q 34 1057 19 1029 q 89 1085 49 1085 q 149 1044 132 1085 l 515 165 l 494 165 l 865 1044 q 889 1076 875 1067 q 926 1085 903 1085 q 978 1057 964 1085 q 978 996 993 1029 l 565 42 q 541 10 556 21 q 507 0 526 0 z "},"W":{"ha":1303,"x_min":11,"x_max":1286,"o":"m 369 0 q 330 14 347 0 q 304 53 313 28 l 24 993 q 26 1060 11 1035 q 75 1085 40 1085 q 113 1073 96 1085 q 139 1035 131 1061 l 386 169 l 356 169 l 588 1021 q 610 1052 593 1040 q 650 1064 628 1064 q 688 1053 669 1064 q 711 1021 707 1043 l 944 169 l 915 169 l 1165 1042 q 1229 1085 1178 1085 q 1275 1058 1264 1085 q 1276 993 1286 1031 l 996 54 q 970 15 988 29 q 931 0 953 0 q 890 15 907 0 q 865 53 872 31 l 635 924 l 668 924 l 436 54 q 410 15 428 29 q 369 0 393 0 z "},"Ẃ":{"ha":1303,"x_min":11,"x_max":1286,"o":"m 369 0 q 330 14 347 0 q 304 53 313 28 l 24 993 q 26 1060 11 1035 q 75 1085 40 1085 q 113 1073 96 1085 q 139 1035 131 1061 l 386 169 l 356 169 l 588 1021 q 610 1052 593 1040 q 650 1064 628 1064 q 688 1053 669 1064 q 711 1021 707 1043 l 944 169 l 915 169 l 1165 1042 q 1229 1085 1178 1085 q 1275 1058 1264 1085 q 1276 993 1286 1031 l 996 54 q 970 15 988 29 q 931 0 953 0 q 890 15 907 0 q 865 53 872 31 l 635 924 l 668 924 l 436 54 q 410 15 428 29 q 369 0 393 0 m 650 1203 q 605 1222 624 1203 q 586 1267 586 1240 q 601 1310 586 1293 l 746 1454 q 790 1472 764 1472 q 838 1453 819 1472 q 856 1407 856 1435 q 851 1383 856 1394 q 838 1363 847 1372 l 694 1219 q 650 1203 678 1203 z "},"Ŵ":{"ha":1303,"x_min":11,"x_max":1286,"o":"m 369 0 q 330 14 347 0 q 304 53 313 28 l 24 993 q 26 1060 11 1035 q 75 1085 40 1085 q 113 1073 96 1085 q 139 1035 131 1061 l 386 169 l 356 169 l 588 1021 q 610 1052 593 1040 q 650 1064 628 1064 q 688 1053 669 1064 q 711 1021 707 1043 l 944 169 l 915 169 l 1165 1042 q 1229 1085 1178 1085 q 1275 1058 1264 1085 q 1276 993 1286 1031 l 996 54 q 970 15 988 29 q 931 0 953 0 q 890 15 907 0 q 865 53 872 31 l 635 924 l 668 924 l 436 54 q 410 15 428 29 q 369 0 393 0 m 494 1189 q 448 1204 467 1189 q 429 1243 429 1219 q 460 1299 429 1276 l 619 1403 q 651 1413 635 1413 q 669 1410 661 1413 q 685 1403 676 1408 l 843 1299 q 874 1243 874 1276 q 856 1204 874 1219 q 810 1189 838 1189 q 788 1192 797 1189 q 768 1203 779 1196 l 651 1285 l 535 1203 q 494 1189 517 1189 z "},"Ẅ":{"ha":1303,"x_min":11,"x_max":1286,"o":"m 369 0 q 330 14 347 0 q 304 53 313 28 l 24 993 q 26 1060 11 1035 q 75 1085 40 1085 q 113 1073 96 1085 q 139 1035 131 1061 l 386 169 l 356 169 l 588 1021 q 610 1052 593 1040 q 650 1064 628 1064 q 688 1053 669 1064 q 711 1021 707 1043 l 944 169 l 915 169 l 1165 1042 q 1229 1085 1178 1085 q 1275 1058 1264 1085 q 1276 993 1286 1031 l 996 54 q 970 15 988 29 q 931 0 953 0 q 890 15 907 0 q 865 53 872 31 l 635 924 l 668 924 l 436 54 q 410 15 428 29 q 369 0 393 0 m 501 1210 q 444 1233 468 1210 q 419 1290 419 1257 q 444 1347 419 1322 q 501 1371 468 1371 q 558 1347 535 1371 q 582 1290 582 1322 q 558 1233 582 1257 q 501 1210 535 1210 m 803 1210 q 746 1233 769 1210 q 722 1290 722 1257 q 746 1347 722 1322 q 803 1371 769 1371 q 860 1347 836 1371 q 883 1290 883 1322 q 860 1233 883 1257 q 803 1210 836 1210 z "},"Ẁ":{"ha":1303,"x_min":11,"x_max":1286,"o":"m 369 0 q 330 14 347 0 q 304 53 313 28 l 24 993 q 26 1060 11 1035 q 75 1085 40 1085 q 113 1073 96 1085 q 139 1035 131 1061 l 386 169 l 356 169 l 588 1021 q 610 1052 593 1040 q 650 1064 628 1064 q 688 1053 669 1064 q 711 1021 707 1043 l 944 169 l 915 169 l 1165 1042 q 1229 1085 1178 1085 q 1275 1058 1264 1085 q 1276 993 1286 1031 l 996 54 q 970 15 988 29 q 931 0 953 0 q 890 15 907 0 q 865 53 872 31 l 635 924 l 668 924 l 436 54 q 410 15 428 29 q 369 0 393 0 m 649 1206 q 606 1224 622 1206 l 461 1367 q 444 1411 444 1383 q 463 1458 444 1439 q 507 1476 481 1476 q 554 1457 535 1476 l 697 1313 q 714 1271 714 1297 q 695 1224 714 1243 q 649 1206 676 1206 z "},"X":{"ha":990,"x_min":67,"x_max":925,"o":"m 128 0 q 83 18 99 0 q 67 60 68 36 q 83 106 67 85 l 438 583 l 496 632 l 817 1064 q 865 1085 835 1085 q 907 1068 892 1085 q 924 1027 922 1051 q 910 982 925 1003 l 571 526 l 517 479 l 174 19 q 128 0 154 0 m 864 0 q 836 6 849 0 q 814 24 824 11 l 482 485 l 433 522 l 103 982 q 90 1026 88 1003 q 108 1067 92 1050 q 150 1085 124 1085 q 197 1064 182 1085 l 513 628 l 560 590 l 910 106 q 924 60 925 85 q 908 17 924 35 q 864 0 892 0 z "},"Y":{"ha":919,"x_min":4,"x_max":915,"o":"m 458 0 q 413 19 432 0 q 394 65 394 38 l 394 399 l 21 983 q 8 1032 4 1008 q 30 1070 13 1056 q 72 1085 47 1085 q 106 1076 93 1085 q 129 1050 118 1067 l 490 474 l 433 474 l 797 1053 q 822 1076 808 1068 q 856 1085 836 1085 q 894 1069 879 1085 q 913 1030 910 1053 q 900 983 915 1007 l 524 399 l 524 65 q 505 19 524 38 q 458 0 486 0 z "},"Ý":{"ha":919,"x_min":4,"x_max":915,"o":"m 458 0 q 413 19 432 0 q 394 65 394 38 l 394 399 l 21 983 q 8 1032 4 1008 q 30 1070 13 1056 q 72 1085 47 1085 q 106 1076 93 1085 q 129 1050 118 1067 l 490 474 l 433 474 l 797 1053 q 822 1076 808 1068 q 856 1085 836 1085 q 894 1069 879 1085 q 913 1030 910 1053 q 900 983 915 1007 l 524 399 l 524 65 q 505 19 524 38 q 458 0 486 0 m 458 1203 q 413 1222 432 1203 q 394 1267 394 1240 q 410 1310 394 1293 l 554 1454 q 599 1472 572 1472 q 646 1453 628 1472 q 664 1407 664 1435 q 660 1383 664 1394 q 646 1363 656 1372 l 503 1219 q 458 1203 486 1203 z "},"Ŷ":{"ha":919,"x_min":4,"x_max":915,"o":"m 458 0 q 413 19 432 0 q 394 65 394 38 l 394 399 l 21 983 q 8 1032 4 1008 q 30 1070 13 1056 q 72 1085 47 1085 q 106 1076 93 1085 q 129 1050 118 1067 l 490 474 l 433 474 l 797 1053 q 822 1076 808 1068 q 856 1085 836 1085 q 894 1069 879 1085 q 913 1030 910 1053 q 900 983 915 1007 l 524 399 l 524 65 q 505 19 524 38 q 458 0 486 0 m 303 1189 q 256 1204 275 1189 q 238 1243 238 1219 q 268 1299 238 1276 l 428 1403 q 460 1413 443 1413 q 477 1410 469 1413 q 493 1403 485 1408 l 651 1299 q 682 1243 682 1276 q 664 1204 682 1219 q 618 1189 646 1189 q 597 1192 606 1189 q 576 1203 588 1196 l 460 1285 l 343 1203 q 303 1189 325 1189 z "},"Ÿ":{"ha":919,"x_min":4,"x_max":915,"o":"m 458 0 q 413 19 432 0 q 394 65 394 38 l 394 399 l 21 983 q 8 1032 4 1008 q 30 1070 13 1056 q 72 1085 47 1085 q 106 1076 93 1085 q 129 1050 118 1067 l 490 474 l 433 474 l 797 1053 q 822 1076 808 1068 q 856 1085 836 1085 q 894 1069 879 1085 q 913 1030 910 1053 q 900 983 915 1007 l 524 399 l 524 65 q 505 19 524 38 q 458 0 486 0 m 308 1210 q 251 1233 275 1210 q 226 1290 226 1257 q 251 1347 226 1322 q 308 1371 275 1371 q 365 1347 342 1371 q 389 1290 389 1322 q 365 1233 389 1257 q 308 1210 342 1210 m 610 1210 q 553 1233 576 1210 q 529 1290 529 1257 q 553 1347 529 1322 q 610 1371 576 1371 q 667 1347 643 1371 q 690 1290 690 1322 q 667 1233 690 1257 q 610 1210 643 1210 z "},"Ỵ":{"ha":919,"x_min":4,"x_max":915,"o":"m 458 0 q 413 19 432 0 q 394 65 394 38 l 394 399 l 21 983 q 8 1032 4 1008 q 30 1070 13 1056 q 72 1085 47 1085 q 106 1076 93 1085 q 129 1050 118 1067 l 490 474 l 433 474 l 797 1053 q 822 1076 808 1068 q 856 1085 836 1085 q 894 1069 879 1085 q 913 1030 910 1053 q 900 983 915 1007 l 524 399 l 524 65 q 505 19 524 38 q 458 0 486 0 m 458 -303 q 399 -278 424 -303 q 374 -217 374 -253 q 399 -156 374 -181 q 460 -132 425 -132 q 519 -156 493 -132 q 544 -217 544 -181 q 519 -278 544 -253 q 458 -303 494 -303 z "},"Ỳ":{"ha":919,"x_min":4,"x_max":915,"o":"m 458 0 q 413 19 432 0 q 394 65 394 38 l 394 399 l 21 983 q 8 1032 4 1008 q 30 1070 13 1056 q 72 1085 47 1085 q 106 1076 93 1085 q 129 1050 118 1067 l 490 474 l 433 474 l 797 1053 q 822 1076 808 1068 q 856 1085 836 1085 q 894 1069 879 1085 q 913 1030 910 1053 q 900 983 915 1007 l 524 399 l 524 65 q 505 19 524 38 q 458 0 486 0 m 456 1206 q 413 1224 429 1206 l 268 1367 q 251 1411 251 1383 q 269 1458 251 1439 q 314 1476 288 1476 q 361 1457 342 1476 l 504 1313 q 521 1271 521 1297 q 502 1224 521 1243 q 456 1206 483 1206 z "},"Ỷ":{"ha":919,"x_min":4,"x_max":915,"o":"m 458 0 q 413 19 432 0 q 394 65 394 38 l 394 399 l 21 983 q 8 1032 4 1008 q 30 1070 13 1056 q 72 1085 47 1085 q 106 1076 93 1085 q 129 1050 118 1067 l 490 474 l 433 474 l 797 1053 q 822 1076 808 1068 q 856 1085 836 1085 q 894 1069 879 1085 q 913 1030 910 1053 q 900 983 915 1007 l 524 399 l 524 65 q 505 19 524 38 q 458 0 486 0 m 460 1158 q 418 1175 435 1158 q 401 1215 401 1192 l 401 1250 q 453 1313 401 1301 l 489 1319 q 530 1340 514 1326 q 546 1378 546 1354 q 528 1421 546 1407 q 482 1435 510 1435 q 446 1428 463 1435 q 418 1413 429 1421 q 399 1402 410 1406 q 376 1399 388 1399 q 342 1410 357 1399 q 328 1446 328 1422 q 347 1490 328 1474 q 407 1523 375 1511 q 479 1535 439 1535 q 599 1492 553 1535 q 646 1383 646 1449 q 603 1283 647 1315 q 496 1243 558 1251 l 517 1238 q 500 1178 517 1197 q 460 1158 483 1158 z "},"Ȳ":{"ha":919,"x_min":4,"x_max":915,"o":"m 458 0 q 413 19 432 0 q 394 65 394 38 l 394 399 l 21 983 q 8 1032 4 1008 q 30 1070 13 1056 q 72 1085 47 1085 q 106 1076 93 1085 q 129 1050 118 1067 l 490 474 l 433 474 l 797 1053 q 822 1076 808 1068 q 856 1085 836 1085 q 894 1069 879 1085 q 913 1030 910 1053 q 900 983 915 1007 l 524 399 l 524 65 q 505 19 524 38 q 458 0 486 0 m 283 1228 q 238 1244 256 1228 q 219 1288 219 1260 q 238 1329 219 1314 q 283 1344 256 1344 l 636 1344 q 682 1329 663 1344 q 701 1288 701 1314 q 682 1244 701 1260 q 636 1228 663 1228 l 283 1228 z "},"Ỹ":{"ha":919,"x_min":4,"x_max":915,"o":"m 458 0 q 413 19 432 0 q 394 65 394 38 l 394 399 l 21 983 q 8 1032 4 1008 q 30 1070 13 1056 q 72 1085 47 1085 q 106 1076 93 1085 q 129 1050 118 1067 l 490 474 l 433 474 l 797 1053 q 822 1076 808 1068 q 856 1085 836 1085 q 894 1069 879 1085 q 913 1030 910 1053 q 900 983 915 1007 l 524 399 l 524 65 q 505 19 524 38 q 458 0 486 0 m 607 1192 q 527 1207 561 1192 q 468 1236 493 1222 q 418 1260 439 1253 q 381 1268 397 1268 q 340 1259 358 1268 q 304 1226 322 1250 q 267 1197 289 1206 q 222 1200 244 1188 q 199 1233 203 1210 q 210 1278 194 1257 q 288 1348 242 1324 q 388 1372 335 1372 q 465 1357 432 1372 q 521 1329 497 1342 q 568 1304 551 1311 q 604 1297 585 1297 q 639 1304 624 1297 q 665 1322 654 1311 q 700 1347 683 1340 q 740 1340 717 1354 q 764 1304 761 1329 q 750 1258 767 1279 q 607 1192 696 1192 z "},"Z":{"ha":1021,"x_min":71,"x_max":950,"o":"m 138 0 q 92 19 108 0 q 73 62 75 38 q 86 106 71 86 l 781 968 l 149 968 q 101 984 117 968 q 86 1025 85 1000 q 103 1067 85 1050 q 150 1085 122 1085 l 881 1085 q 927 1067 910 1085 q 947 1024 944 1049 q 935 982 950 1000 l 238 117 l 881 117 q 928 100 910 117 q 946 58 946 83 q 928 16 946 32 q 881 0 910 0 l 138 0 z "},"Ź":{"ha":1021,"x_min":71,"x_max":950,"o":"m 138 0 q 92 19 108 0 q 73 62 75 38 q 86 106 71 86 l 781 968 l 149 968 q 101 984 117 968 q 86 1025 85 1000 q 103 1067 85 1050 q 150 1085 122 1085 l 881 1085 q 927 1067 910 1085 q 947 1024 944 1049 q 935 982 950 1000 l 238 117 l 881 117 q 928 100 910 117 q 946 58 946 83 q 928 16 946 32 q 881 0 910 0 l 138 0 m 510 1203 q 465 1222 483 1203 q 446 1267 446 1240 q 461 1310 446 1293 l 606 1454 q 650 1472 624 1472 q 697 1453 679 1472 q 715 1407 715 1435 q 711 1383 715 1394 q 697 1363 707 1372 l 554 1219 q 510 1203 538 1203 z "},"Ž":{"ha":1021,"x_min":71,"x_max":950,"o":"m 138 0 q 92 19 108 0 q 73 62 75 38 q 86 106 71 86 l 781 968 l 149 968 q 101 984 117 968 q 86 1025 85 1000 q 103 1067 85 1050 q 150 1085 122 1085 l 881 1085 q 927 1067 910 1085 q 947 1024 944 1049 q 935 982 950 1000 l 238 117 l 881 117 q 928 100 910 117 q 946 58 946 83 q 928 16 946 32 q 881 0 910 0 l 138 0 m 511 1200 q 479 1210 492 1200 l 319 1315 q 289 1369 289 1338 q 320 1409 289 1397 q 394 1392 351 1421 l 511 1313 l 628 1392 q 705 1410 676 1424 q 733 1369 733 1396 q 703 1315 733 1338 l 544 1210 q 511 1200 531 1200 z "},"Ż":{"ha":1021,"x_min":71,"x_max":950,"o":"m 138 0 q 92 19 108 0 q 73 62 75 38 q 86 106 71 86 l 781 968 l 149 968 q 101 984 117 968 q 86 1025 85 1000 q 103 1067 85 1050 q 150 1085 122 1085 l 881 1085 q 927 1067 910 1085 q 947 1024 944 1049 q 935 982 950 1000 l 238 117 l 881 117 q 928 100 910 117 q 946 58 946 83 q 928 16 946 32 q 881 0 910 0 l 138 0 m 510 1217 q 450 1242 475 1217 q 425 1303 425 1267 q 451 1363 425 1339 q 511 1388 476 1388 q 570 1363 544 1388 q 596 1303 596 1339 q 571 1242 596 1267 q 510 1217 546 1217 z "},"a":{"ha":939,"x_min":86,"x_max":854,"o":"m 449 -6 q 263 44 344 -6 q 133 182 181 94 q 86 379 86 269 q 137 577 86 490 q 274 715 188 664 q 469 765 361 765 q 665 715 579 765 q 802 576 751 664 q 854 379 853 489 l 804 367 q 757 176 804 261 q 630 43 710 92 q 449 -6 550 -6 m 469 108 q 603 144 544 108 q 695 241 661 179 q 729 379 729 303 q 695 519 729 457 q 603 616 661 581 q 469 651 544 651 q 338 616 397 651 q 244 519 278 581 q 210 379 210 457 q 244 241 210 303 q 338 144 278 179 q 469 108 397 108 m 789 -1 q 743 17 761 -1 q 725 63 725 35 l 725 285 l 751 418 l 854 379 l 854 63 q 835 17 854 35 q 789 -1 817 -1 z "},"á":{"ha":939,"x_min":86,"x_max":854,"o":"m 449 -6 q 263 44 344 -6 q 133 182 181 94 q 86 379 86 269 q 137 577 86 490 q 274 715 188 664 q 469 765 361 765 q 665 715 579 765 q 802 576 751 664 q 854 379 853 489 l 804 367 q 757 176 804 261 q 630 43 710 92 q 449 -6 550 -6 m 469 108 q 603 144 544 108 q 695 241 661 179 q 729 379 729 303 q 695 519 729 457 q 603 616 661 581 q 469 651 544 651 q 338 616 397 651 q 244 519 278 581 q 210 379 210 457 q 244 241 210 303 q 338 144 278 179 q 469 108 397 108 m 789 -1 q 743 17 761 -1 q 725 63 725 35 l 725 285 l 751 418 l 854 379 l 854 63 q 835 17 854 35 q 789 -1 817 -1 m 469 878 q 424 897 443 878 q 406 942 406 915 q 421 985 406 968 l 565 1129 q 610 1147 583 1147 q 657 1128 639 1147 q 675 1082 675 1110 q 671 1058 675 1069 q 657 1038 667 1047 l 514 894 q 469 878 497 878 z "},"ă":{"ha":939,"x_min":86,"x_max":854,"o":"m 449 -6 q 263 44 344 -6 q 133 182 181 94 q 86 379 86 269 q 137 577 86 490 q 274 715 188 664 q 469 765 361 765 q 665 715 579 765 q 802 576 751 664 q 854 379 853 489 l 804 367 q 757 176 804 261 q 630 43 710 92 q 449 -6 550 -6 m 469 108 q 603 144 544 108 q 695 241 661 179 q 729 379 729 303 q 695 519 729 457 q 603 616 661 581 q 469 651 544 651 q 338 616 397 651 q 244 519 278 581 q 210 379 210 457 q 244 241 210 303 q 338 144 278 179 q 469 108 397 108 m 789 -1 q 743 17 761 -1 q 725 63 725 35 l 725 285 l 751 418 l 854 379 l 854 63 q 835 17 854 35 q 789 -1 817 -1 m 469 854 q 358 876 408 854 q 276 937 307 899 q 246 1024 246 975 q 263 1069 246 1050 q 307 1088 281 1088 q 349 1073 331 1088 q 368 1033 368 1058 q 399 980 368 1001 q 469 958 429 958 q 542 980 515 958 q 569 1033 569 1001 q 588 1073 569 1058 q 632 1088 607 1088 q 675 1069 658 1088 q 692 1024 692 1051 q 660 936 690 975 q 579 876 629 897 q 469 854 529 854 z "},"ắ":{"ha":939,"x_min":86,"x_max":854,"o":"m 449 -6 q 263 44 344 -6 q 133 182 181 94 q 86 379 86 269 q 137 577 86 490 q 274 715 188 664 q 469 765 361 765 q 665 715 579 765 q 802 576 751 664 q 854 379 853 489 l 804 367 q 757 176 804 261 q 630 43 710 92 q 449 -6 550 -6 m 469 108 q 603 144 544 108 q 695 241 661 179 q 729 379 729 303 q 695 519 729 457 q 603 616 661 581 q 469 651 544 651 q 338 616 397 651 q 244 519 278 581 q 210 379 210 457 q 244 241 210 303 q 338 144 278 179 q 469 108 397 108 m 789 -1 q 743 17 761 -1 q 725 63 725 35 l 725 285 l 751 418 l 854 379 l 854 63 q 835 17 854 35 q 789 -1 817 -1 m 469 854 q 358 876 408 854 q 278 938 308 899 q 247 1024 247 976 q 264 1069 247 1051 q 308 1088 281 1088 q 351 1073 332 1088 q 369 1033 369 1058 q 400 981 369 1003 q 469 958 431 958 q 543 980 517 958 q 569 1033 569 1001 q 588 1073 569 1058 q 632 1088 607 1088 q 676 1069 660 1088 q 692 1024 692 1051 q 661 936 692 975 q 581 876 631 897 q 469 854 531 854 m 469 1117 q 424 1135 443 1117 q 406 1181 406 1153 q 421 1224 406 1207 l 565 1368 q 610 1386 583 1386 q 657 1367 639 1386 q 675 1321 675 1349 q 671 1297 675 1308 q 657 1276 667 1285 l 514 1133 q 469 1117 497 1117 z "},"ặ":{"ha":939,"x_min":86,"x_max":854,"o":"m 449 -6 q 263 44 344 -6 q 133 182 181 94 q 86 379 86 269 q 137 577 86 490 q 274 715 188 664 q 469 765 361 765 q 665 715 579 765 q 802 576 751 664 q 854 379 853 489 l 804 367 q 757 176 804 261 q 630 43 710 92 q 449 -6 550 -6 m 469 108 q 603 144 544 108 q 695 241 661 179 q 729 379 729 303 q 695 519 729 457 q 603 616 661 581 q 469 651 544 651 q 338 616 397 651 q 244 519 278 581 q 210 379 210 457 q 244 241 210 303 q 338 144 278 179 q 469 108 397 108 m 789 -1 q 743 17 761 -1 q 725 63 725 35 l 725 285 l 751 418 l 854 379 l 854 63 q 835 17 854 35 q 789 -1 817 -1 m 469 854 q 358 876 408 854 q 276 937 307 899 q 246 1024 246 975 q 263 1069 246 1050 q 307 1088 281 1088 q 349 1073 331 1088 q 368 1033 368 1058 q 399 980 368 1001 q 469 958 429 958 q 542 980 515 958 q 569 1033 569 1001 q 588 1073 569 1058 q 632 1088 607 1088 q 675 1069 658 1088 q 692 1024 692 1051 q 660 936 690 975 q 579 876 629 897 q 469 854 529 854 m 469 -303 q 410 -278 435 -303 q 385 -217 385 -253 q 410 -156 385 -181 q 471 -132 436 -132 q 530 -156 504 -132 q 556 -217 556 -181 q 531 -278 556 -253 q 469 -303 506 -303 z "},"ằ":{"ha":939,"x_min":86,"x_max":854,"o":"m 449 -6 q 263 44 344 -6 q 133 182 181 94 q 86 379 86 269 q 137 577 86 490 q 274 715 188 664 q 469 765 361 765 q 665 715 579 765 q 802 576 751 664 q 854 379 853 489 l 804 367 q 757 176 804 261 q 630 43 710 92 q 449 -6 550 -6 m 469 108 q 603 144 544 108 q 695 241 661 179 q 729 379 729 303 q 695 519 729 457 q 603 616 661 581 q 469 651 544 651 q 338 616 397 651 q 244 519 278 581 q 210 379 210 457 q 244 241 210 303 q 338 144 278 179 q 469 108 397 108 m 789 -1 q 743 17 761 -1 q 725 63 725 35 l 725 285 l 751 418 l 854 379 l 854 63 q 835 17 854 35 q 789 -1 817 -1 m 469 854 q 358 876 408 854 q 278 938 308 899 q 247 1024 247 976 q 264 1069 247 1051 q 308 1088 281 1088 q 351 1073 332 1088 q 369 1033 369 1058 q 400 981 369 1003 q 469 958 431 958 q 543 980 517 958 q 569 1033 569 1001 q 588 1073 569 1058 q 632 1088 607 1088 q 676 1069 660 1088 q 692 1024 692 1051 q 661 936 692 975 q 581 876 631 897 q 469 854 531 854 m 467 1119 q 424 1138 440 1119 l 279 1279 q 263 1324 263 1297 q 281 1371 263 1351 q 326 1390 299 1390 q 372 1371 353 1390 l 515 1226 q 532 1185 532 1211 q 514 1138 532 1156 q 467 1119 496 1119 z "},"ẳ":{"ha":939,"x_min":86,"x_max":854,"o":"m 449 -6 q 263 44 344 -6 q 133 182 181 94 q 86 379 86 269 q 137 577 86 490 q 274 715 188 664 q 469 765 361 765 q 665 715 579 765 q 802 576 751 664 q 854 379 853 489 l 804 367 q 757 176 804 261 q 630 43 710 92 q 449 -6 550 -6 m 469 108 q 603 144 544 108 q 695 241 661 179 q 729 379 729 303 q 695 519 729 457 q 603 616 661 581 q 469 651 544 651 q 338 616 397 651 q 244 519 278 581 q 210 379 210 457 q 244 241 210 303 q 338 144 278 179 q 469 108 397 108 m 789 -1 q 743 17 761 -1 q 725 63 725 35 l 725 285 l 751 418 l 854 379 l 854 63 q 835 17 854 35 q 789 -1 817 -1 m 469 854 q 358 876 408 854 q 278 938 308 899 q 247 1024 247 976 q 264 1069 247 1051 q 308 1088 281 1088 q 351 1073 332 1088 q 369 1033 369 1058 q 400 981 369 1003 q 469 958 431 958 q 543 980 517 958 q 569 1033 569 1001 q 588 1073 569 1058 q 632 1088 607 1088 q 676 1069 660 1088 q 692 1024 692 1051 q 661 936 692 975 q 581 876 631 897 q 469 854 531 854 m 469 1072 q 429 1089 446 1072 q 413 1129 413 1106 l 413 1163 q 464 1226 413 1214 l 499 1233 q 540 1254 525 1240 q 556 1292 556 1268 q 538 1334 556 1319 q 493 1349 521 1349 q 457 1342 474 1349 q 429 1326 440 1335 q 410 1316 422 1319 q 388 1313 397 1313 q 353 1324 368 1313 q 339 1358 339 1336 q 358 1403 339 1386 q 418 1437 386 1425 q 490 1449 450 1449 q 610 1405 564 1449 q 657 1296 657 1361 q 614 1197 658 1229 q 507 1156 569 1164 l 526 1150 q 510 1091 526 1110 q 469 1072 494 1072 z "},"ẵ":{"ha":939,"x_min":86,"x_max":854,"o":"m 449 -6 q 263 44 344 -6 q 133 182 181 94 q 86 379 86 269 q 137 577 86 490 q 274 715 188 664 q 469 765 361 765 q 665 715 579 765 q 802 576 751 664 q 854 379 853 489 l 804 367 q 757 176 804 261 q 630 43 710 92 q 449 -6 550 -6 m 469 108 q 603 144 544 108 q 695 241 661 179 q 729 379 729 303 q 695 519 729 457 q 603 616 661 581 q 469 651 544 651 q 338 616 397 651 q 244 519 278 581 q 210 379 210 457 q 244 241 210 303 q 338 144 278 179 q 469 108 397 108 m 789 -1 q 743 17 761 -1 q 725 63 725 35 l 725 285 l 751 418 l 854 379 l 854 63 q 835 17 854 35 q 789 -1 817 -1 m 471 854 q 359 876 410 854 q 278 938 308 899 q 247 1024 247 976 q 265 1069 247 1051 q 310 1088 282 1088 q 351 1073 332 1088 q 369 1033 369 1058 q 401 981 369 1003 q 471 958 432 958 q 544 980 517 958 q 571 1033 571 1001 q 590 1073 571 1058 q 633 1088 608 1088 q 676 1069 660 1088 q 693 1024 693 1051 q 661 936 692 975 q 581 876 631 897 q 471 854 531 854 m 565 1118 q 501 1134 531 1118 q 449 1174 472 1150 q 419 1199 432 1189 q 393 1208 407 1208 q 367 1197 378 1208 q 344 1164 357 1185 q 313 1136 333 1144 q 271 1136 293 1128 q 242 1167 250 1146 q 246 1210 233 1188 q 308 1288 274 1264 q 383 1313 342 1313 q 456 1292 429 1313 q 501 1254 482 1271 q 531 1232 521 1238 q 551 1226 542 1226 q 585 1251 569 1226 q 618 1282 597 1272 q 660 1283 639 1292 q 693 1251 685 1272 q 688 1207 701 1229 q 632 1139 663 1160 q 565 1118 601 1118 z "},"ǎ":{"ha":939,"x_min":86,"x_max":854,"o":"m 449 -6 q 263 44 344 -6 q 133 182 181 94 q 86 379 86 269 q 137 577 86 490 q 274 715 188 664 q 469 765 361 765 q 665 715 579 765 q 802 576 751 664 q 854 379 853 489 l 804 367 q 757 176 804 261 q 630 43 710 92 q 449 -6 550 -6 m 469 108 q 603 144 544 108 q 695 241 661 179 q 729 379 729 303 q 695 519 729 457 q 603 616 661 581 q 469 651 544 651 q 338 616 397 651 q 244 519 278 581 q 210 379 210 457 q 244 241 210 303 q 338 144 278 179 q 469 108 397 108 m 789 -1 q 743 17 761 -1 q 725 63 725 35 l 725 285 l 751 418 l 854 379 l 854 63 q 835 17 854 35 q 789 -1 817 -1 m 469 875 q 438 885 450 875 l 278 990 q 247 1044 247 1013 q 278 1084 247 1072 q 353 1067 310 1096 l 469 988 l 586 1067 q 663 1085 635 1099 q 692 1044 692 1071 q 661 990 692 1013 l 503 885 q 469 875 489 875 z "},"â":{"ha":939,"x_min":86,"x_max":854,"o":"m 449 -6 q 263 44 344 -6 q 133 182 181 94 q 86 379 86 269 q 137 577 86 490 q 274 715 188 664 q 469 765 361 765 q 665 715 579 765 q 802 576 751 664 q 854 379 853 489 l 804 367 q 757 176 804 261 q 630 43 710 92 q 449 -6 550 -6 m 469 108 q 603 144 544 108 q 695 241 661 179 q 729 379 729 303 q 695 519 729 457 q 603 616 661 581 q 469 651 544 651 q 338 616 397 651 q 244 519 278 581 q 210 379 210 457 q 244 241 210 303 q 338 144 278 179 q 469 108 397 108 m 789 -1 q 743 17 761 -1 q 725 63 725 35 l 725 285 l 751 418 l 854 379 l 854 63 q 835 17 854 35 q 789 -1 817 -1 m 313 864 q 266 879 285 864 q 247 918 247 894 q 278 974 247 951 l 438 1078 q 469 1088 453 1088 q 487 1085 479 1088 q 503 1078 494 1083 l 661 974 q 692 918 692 951 q 674 879 692 894 q 628 864 656 864 q 606 867 615 864 q 586 878 597 871 l 469 960 l 353 878 q 313 864 335 864 z "},"ấ":{"ha":939,"x_min":86,"x_max":854,"o":"m 449 -6 q 263 44 344 -6 q 133 182 181 94 q 86 379 86 269 q 137 577 86 490 q 274 715 188 664 q 469 765 361 765 q 665 715 579 765 q 802 576 751 664 q 854 379 853 489 l 804 367 q 757 176 804 261 q 630 43 710 92 q 449 -6 550 -6 m 469 108 q 603 144 544 108 q 695 241 661 179 q 729 379 729 303 q 695 519 729 457 q 603 616 661 581 q 469 651 544 651 q 338 616 397 651 q 244 519 278 581 q 210 379 210 457 q 244 241 210 303 q 338 144 278 179 q 469 108 397 108 m 789 -1 q 743 17 761 -1 q 725 63 725 35 l 725 285 l 751 418 l 854 379 l 854 63 q 835 17 854 35 q 789 -1 817 -1 m 314 864 q 267 879 286 864 q 249 918 249 894 q 279 974 249 951 l 438 1078 q 471 1088 453 1088 q 488 1085 481 1088 q 504 1078 496 1083 l 661 974 q 692 918 692 951 q 674 879 692 894 q 629 864 657 864 q 607 867 617 864 q 588 878 597 871 l 471 960 l 353 878 q 314 864 335 864 m 610 1090 q 565 1109 583 1090 q 546 1156 546 1128 q 561 1199 546 1182 l 706 1343 q 750 1361 724 1361 q 797 1342 779 1361 q 815 1296 815 1324 q 811 1272 815 1283 q 797 1251 807 1260 l 654 1108 q 610 1090 636 1090 z "},"ậ":{"ha":939,"x_min":86,"x_max":854,"o":"m 449 -6 q 263 44 344 -6 q 133 182 181 94 q 86 379 86 269 q 137 577 86 490 q 274 715 188 664 q 469 765 361 765 q 665 715 579 765 q 802 576 751 664 q 854 379 853 489 l 804 367 q 757 176 804 261 q 630 43 710 92 q 449 -6 550 -6 m 469 108 q 603 144 544 108 q 695 241 661 179 q 729 379 729 303 q 695 519 729 457 q 603 616 661 581 q 469 651 544 651 q 338 616 397 651 q 244 519 278 581 q 210 379 210 457 q 244 241 210 303 q 338 144 278 179 q 469 108 397 108 m 789 -1 q 743 17 761 -1 q 725 63 725 35 l 725 285 l 751 418 l 854 379 l 854 63 q 835 17 854 35 q 789 -1 817 -1 m 313 864 q 266 879 285 864 q 247 918 247 894 q 278 974 247 951 l 438 1078 q 469 1088 453 1088 q 487 1085 479 1088 q 503 1078 494 1083 l 661 974 q 692 918 692 951 q 674 879 692 894 q 628 864 656 864 q 606 867 615 864 q 586 878 597 871 l 469 960 l 353 878 q 313 864 335 864 m 469 -303 q 410 -278 435 -303 q 385 -217 385 -253 q 410 -156 385 -181 q 471 -132 436 -132 q 530 -156 504 -132 q 556 -217 556 -181 q 531 -278 556 -253 q 469 -303 506 -303 z "},"ầ":{"ha":939,"x_min":86,"x_max":854,"o":"m 449 -6 q 263 44 344 -6 q 133 182 181 94 q 86 379 86 269 q 137 577 86 490 q 274 715 188 664 q 469 765 361 765 q 665 715 579 765 q 802 576 751 664 q 854 379 853 489 l 804 367 q 757 176 804 261 q 630 43 710 92 q 449 -6 550 -6 m 469 108 q 603 144 544 108 q 695 241 661 179 q 729 379 729 303 q 695 519 729 457 q 603 616 661 581 q 469 651 544 651 q 338 616 397 651 q 244 519 278 581 q 210 379 210 457 q 244 241 210 303 q 338 144 278 179 q 469 108 397 108 m 789 -1 q 743 17 761 -1 q 725 63 725 35 l 725 285 l 751 418 l 854 379 l 854 63 q 835 17 854 35 q 789 -1 817 -1 m 314 864 q 267 879 286 864 q 249 918 249 894 q 279 974 249 951 l 438 1078 q 471 1088 453 1088 q 488 1085 481 1088 q 504 1078 496 1083 l 661 974 q 692 918 692 951 q 674 879 692 894 q 629 864 657 864 q 607 867 617 864 q 588 878 597 871 l 471 960 l 353 878 q 314 864 335 864 m 608 1094 q 564 1113 581 1094 l 419 1254 q 404 1299 404 1272 q 422 1346 404 1326 q 467 1365 439 1365 q 514 1346 493 1365 l 656 1201 q 672 1160 672 1186 q 653 1113 672 1131 q 608 1094 635 1094 z "},"ẩ":{"ha":939,"x_min":86,"x_max":854,"o":"m 449 -6 q 263 44 344 -6 q 133 182 181 94 q 86 379 86 269 q 137 577 86 490 q 274 715 188 664 q 469 765 361 765 q 665 715 579 765 q 802 576 751 664 q 854 379 853 489 l 804 367 q 757 176 804 261 q 630 43 710 92 q 449 -6 550 -6 m 469 108 q 603 144 544 108 q 695 241 661 179 q 729 379 729 303 q 695 519 729 457 q 603 616 661 581 q 469 651 544 651 q 338 616 397 651 q 244 519 278 581 q 210 379 210 457 q 244 241 210 303 q 338 144 278 179 q 469 108 397 108 m 789 -1 q 743 17 761 -1 q 725 63 725 35 l 725 285 l 751 418 l 854 379 l 854 63 q 835 17 854 35 q 789 -1 817 -1 m 319 864 q 273 879 292 864 q 254 918 254 894 q 285 974 254 951 l 443 1078 q 476 1088 458 1088 q 494 1085 486 1088 q 510 1078 501 1083 l 667 974 q 697 918 697 951 q 680 879 697 894 q 635 864 663 864 q 613 867 622 864 q 593 878 603 871 l 476 960 l 358 878 q 319 864 340 864 m 617 1046 q 575 1063 592 1046 q 558 1104 558 1081 l 558 1138 q 610 1200 558 1189 l 646 1208 q 687 1228 671 1214 q 703 1267 703 1243 q 685 1309 703 1294 q 639 1324 667 1324 q 603 1317 619 1324 q 575 1301 586 1310 q 555 1290 567 1294 q 533 1286 543 1286 q 499 1298 514 1286 q 485 1333 485 1310 q 506 1378 485 1361 q 564 1411 532 1400 q 636 1422 596 1422 q 756 1379 710 1422 q 803 1271 803 1336 q 760 1172 804 1204 q 653 1131 715 1139 l 674 1125 q 657 1065 674 1085 q 617 1046 640 1046 z "},"ẫ":{"ha":939,"x_min":86,"x_max":854,"o":"m 449 -6 q 263 44 344 -6 q 133 182 181 94 q 86 379 86 269 q 137 577 86 490 q 274 715 188 664 q 469 765 361 765 q 665 715 579 765 q 802 576 751 664 q 854 379 853 489 l 804 367 q 757 176 804 261 q 630 43 710 92 q 449 -6 550 -6 m 469 108 q 603 144 544 108 q 695 241 661 179 q 729 379 729 303 q 695 519 729 457 q 603 616 661 581 q 469 651 544 651 q 338 616 397 651 q 244 519 278 581 q 210 379 210 457 q 244 241 210 303 q 338 144 278 179 q 469 108 397 108 m 789 -1 q 743 17 761 -1 q 725 63 725 35 l 725 285 l 751 418 l 854 379 l 854 63 q 835 17 854 35 q 789 -1 817 -1 m 318 864 q 272 879 290 864 q 253 918 253 894 q 283 974 253 951 l 443 1078 q 475 1088 458 1088 q 492 1085 485 1088 q 508 1078 500 1083 l 665 974 q 697 918 697 951 q 679 879 697 894 q 633 864 661 864 q 611 867 621 864 q 592 878 601 871 l 475 960 l 357 878 q 318 864 340 864 m 556 1124 q 492 1140 521 1124 q 440 1178 464 1156 q 410 1203 422 1194 q 383 1213 397 1213 q 358 1201 368 1213 q 336 1169 347 1189 q 303 1142 324 1150 q 263 1142 283 1133 q 232 1172 240 1151 q 236 1215 224 1193 q 298 1292 264 1268 q 375 1317 332 1317 q 446 1296 419 1317 q 492 1260 472 1275 q 522 1237 511 1243 q 543 1231 533 1231 q 575 1257 561 1231 q 608 1287 588 1278 q 650 1288 629 1296 q 683 1256 675 1278 q 678 1213 692 1235 q 623 1144 653 1165 q 556 1124 593 1124 z "},"ȁ":{"ha":939,"x_min":86,"x_max":854,"o":"m 449 -6 q 263 44 344 -6 q 133 182 181 94 q 86 379 86 269 q 137 577 86 490 q 274 715 188 664 q 469 765 361 765 q 665 715 579 765 q 802 576 751 664 q 854 379 853 489 l 804 367 q 757 176 804 261 q 630 43 710 92 q 449 -6 550 -6 m 469 108 q 603 144 544 108 q 695 241 661 179 q 729 379 729 303 q 695 519 729 457 q 603 616 661 581 q 469 651 544 651 q 338 616 397 651 q 244 519 278 581 q 210 379 210 457 q 244 241 210 303 q 338 144 278 179 q 469 108 397 108 m 789 -1 q 743 17 761 -1 q 725 63 725 35 l 725 285 l 751 418 l 854 379 l 854 63 q 835 17 854 35 q 789 -1 817 -1 m 613 861 q 564 893 581 861 l 485 1063 q 479 1088 479 1074 q 498 1131 479 1111 q 544 1151 517 1151 q 582 1140 565 1151 q 604 1111 599 1129 l 660 932 q 663 913 663 922 q 646 874 663 888 q 613 861 629 861 m 410 861 q 361 893 378 861 l 281 1063 q 277 1076 278 1069 q 275 1088 276 1082 q 294 1131 275 1111 q 340 1151 313 1151 q 378 1140 361 1151 q 400 1111 394 1129 l 457 932 q 459 922 458 928 q 460 913 460 917 q 443 874 460 888 q 410 861 426 861 z "},"ä":{"ha":939,"x_min":86,"x_max":854,"o":"m 449 -6 q 263 44 344 -6 q 133 182 181 94 q 86 379 86 269 q 137 577 86 490 q 274 715 188 664 q 469 765 361 765 q 665 715 579 765 q 802 576 751 664 q 854 379 853 489 l 804 367 q 757 176 804 261 q 630 43 710 92 q 449 -6 550 -6 m 469 108 q 603 144 544 108 q 695 241 661 179 q 729 379 729 303 q 695 519 729 457 q 603 616 661 581 q 469 651 544 651 q 338 616 397 651 q 244 519 278 581 q 210 379 210 457 q 244 241 210 303 q 338 144 278 179 q 469 108 397 108 m 789 -1 q 743 17 761 -1 q 725 63 725 35 l 725 285 l 751 418 l 854 379 l 854 63 q 835 17 854 35 q 789 -1 817 -1 m 319 885 q 262 908 286 885 q 238 965 238 932 q 262 1022 238 997 q 319 1046 286 1046 q 376 1022 353 1046 q 400 965 400 997 q 376 908 400 932 q 319 885 353 885 m 621 885 q 564 908 588 885 q 540 965 540 932 q 564 1022 540 997 q 621 1046 588 1046 q 678 1022 654 1046 q 701 965 701 997 q 678 908 701 932 q 621 885 654 885 z "},"ạ":{"ha":939,"x_min":86,"x_max":854,"o":"m 449 -6 q 263 44 344 -6 q 133 182 181 94 q 86 379 86 269 q 137 577 86 490 q 274 715 188 664 q 469 765 361 765 q 665 715 579 765 q 802 576 751 664 q 854 379 853 489 l 804 367 q 757 176 804 261 q 630 43 710 92 q 449 -6 550 -6 m 469 108 q 603 144 544 108 q 695 241 661 179 q 729 379 729 303 q 695 519 729 457 q 603 616 661 581 q 469 651 544 651 q 338 616 397 651 q 244 519 278 581 q 210 379 210 457 q 244 241 210 303 q 338 144 278 179 q 469 108 397 108 m 789 -1 q 743 17 761 -1 q 725 63 725 35 l 725 285 l 751 418 l 854 379 l 854 63 q 835 17 854 35 q 789 -1 817 -1 m 469 -303 q 410 -278 435 -303 q 385 -217 385 -253 q 410 -156 385 -181 q 471 -132 436 -132 q 530 -156 504 -132 q 556 -217 556 -181 q 531 -278 556 -253 q 469 -303 506 -303 z "},"à":{"ha":939,"x_min":86,"x_max":854,"o":"m 449 -6 q 263 44 344 -6 q 133 182 181 94 q 86 379 86 269 q 137 577 86 490 q 274 715 188 664 q 469 765 361 765 q 665 715 579 765 q 802 576 751 664 q 854 379 853 489 l 804 367 q 757 176 804 261 q 630 43 710 92 q 449 -6 550 -6 m 469 108 q 603 144 544 108 q 695 241 661 179 q 729 379 729 303 q 695 519 729 457 q 603 616 661 581 q 469 651 544 651 q 338 616 397 651 q 244 519 278 581 q 210 379 210 457 q 244 241 210 303 q 338 144 278 179 q 469 108 397 108 m 789 -1 q 743 17 761 -1 q 725 63 725 35 l 725 285 l 751 418 l 854 379 l 854 63 q 835 17 854 35 q 789 -1 817 -1 m 467 881 q 424 899 440 881 l 279 1042 q 263 1086 263 1058 q 281 1133 263 1114 q 325 1151 299 1151 q 372 1132 353 1151 l 515 988 q 532 946 532 972 q 513 899 532 918 q 467 881 494 881 z "},"ả":{"ha":939,"x_min":86,"x_max":854,"o":"m 449 -6 q 263 44 344 -6 q 133 182 181 94 q 86 379 86 269 q 137 577 86 490 q 274 715 188 664 q 469 765 361 765 q 665 715 579 765 q 802 576 751 664 q 854 379 853 489 l 804 367 q 757 176 804 261 q 630 43 710 92 q 449 -6 550 -6 m 469 108 q 603 144 544 108 q 695 241 661 179 q 729 379 729 303 q 695 519 729 457 q 603 616 661 581 q 469 651 544 651 q 338 616 397 651 q 244 519 278 581 q 210 379 210 457 q 244 241 210 303 q 338 144 278 179 q 469 108 397 108 m 789 -1 q 743 17 761 -1 q 725 63 725 35 l 725 285 l 751 418 l 854 379 l 854 63 q 835 17 854 35 q 789 -1 817 -1 m 469 833 q 428 850 444 833 q 411 890 411 867 l 411 925 q 463 988 411 976 l 499 994 q 540 1015 524 1001 q 556 1053 556 1029 q 538 1096 556 1082 q 492 1110 519 1110 q 456 1103 472 1110 q 428 1088 439 1096 q 408 1077 419 1081 q 386 1074 397 1074 q 352 1085 367 1074 q 338 1121 338 1097 q 357 1165 338 1149 q 417 1198 385 1186 q 489 1210 449 1210 q 609 1167 563 1210 q 656 1058 656 1124 q 613 958 657 990 q 506 918 568 926 l 526 913 q 510 853 526 872 q 469 833 493 833 z "},"ȃ":{"ha":939,"x_min":86,"x_max":854,"o":"m 449 -6 q 263 44 344 -6 q 133 182 181 94 q 86 379 86 269 q 137 577 86 490 q 274 715 188 664 q 469 765 361 765 q 665 715 579 765 q 802 576 751 664 q 854 379 853 489 l 804 367 q 757 176 804 261 q 630 43 710 92 q 449 -6 550 -6 m 469 108 q 603 144 544 108 q 695 241 661 179 q 729 379 729 303 q 695 519 729 457 q 603 616 661 581 q 469 651 544 651 q 338 616 397 651 q 244 519 278 581 q 210 379 210 457 q 244 241 210 303 q 338 144 278 179 q 469 108 397 108 m 789 -1 q 743 17 761 -1 q 725 63 725 35 l 725 285 l 751 418 l 854 379 l 854 63 q 835 17 854 35 q 789 -1 817 -1 m 308 854 q 264 872 281 854 q 247 918 247 890 q 277 1005 247 967 q 358 1065 307 1043 q 471 1088 408 1088 q 581 1065 531 1088 q 661 1006 631 1043 q 692 918 692 968 q 676 872 692 890 q 632 854 660 854 q 588 869 607 854 q 569 908 569 883 q 543 961 569 940 q 471 982 517 982 q 400 960 431 982 q 369 908 369 939 q 351 869 369 883 q 308 854 332 854 z "},"ā":{"ha":939,"x_min":86,"x_max":854,"o":"m 449 -6 q 263 44 344 -6 q 133 182 181 94 q 86 379 86 269 q 137 577 86 490 q 274 715 188 664 q 469 765 361 765 q 665 715 579 765 q 802 576 751 664 q 854 379 853 489 l 804 367 q 757 176 804 261 q 630 43 710 92 q 449 -6 550 -6 m 469 108 q 603 144 544 108 q 695 241 661 179 q 729 379 729 303 q 695 519 729 457 q 603 616 661 581 q 469 651 544 651 q 338 616 397 651 q 244 519 278 581 q 210 379 210 457 q 244 241 210 303 q 338 144 278 179 q 469 108 397 108 m 789 -1 q 743 17 761 -1 q 725 63 725 35 l 725 285 l 751 418 l 854 379 l 854 63 q 835 17 854 35 q 789 -1 817 -1 m 293 903 q 247 919 265 903 q 229 963 229 935 q 247 1004 229 989 q 293 1019 265 1019 l 646 1019 q 692 1004 672 1019 q 711 963 711 989 q 692 919 711 935 q 646 903 672 903 l 293 903 z "},"ą":{"ha":939,"x_min":86,"x_max":1014,"o":"m 449 -6 q 263 44 344 -6 q 133 182 181 94 q 86 379 86 269 q 137 577 86 490 q 274 715 188 664 q 469 765 361 765 q 665 715 579 765 q 802 576 751 664 q 854 379 853 489 l 804 367 q 757 176 804 261 q 630 43 710 92 q 449 -6 550 -6 m 469 108 q 603 144 544 108 q 695 241 661 179 q 729 379 729 303 q 695 519 729 457 q 603 616 661 581 q 469 651 544 651 q 338 616 397 651 q 244 519 278 581 q 210 379 210 457 q 244 241 210 303 q 338 144 278 179 q 469 108 397 108 m 789 -1 q 743 17 761 -1 q 725 63 725 35 l 725 285 l 751 418 l 854 379 l 854 63 q 835 17 854 35 q 789 -1 817 -1 m 844 -375 q 761 -352 800 -375 q 699 -291 722 -329 q 676 -206 676 -253 q 746 -68 676 -126 q 774 -43 764 -56 q 789 -19 783 -31 q 844 14 807 14 q 890 -3 872 14 q 910 -49 908 -21 q 888 -110 910 -79 q 822 -172 865 -140 q 808 -187 813 -178 q 804 -206 804 -197 q 816 -235 804 -224 q 844 -246 828 -246 q 857 -244 851 -246 q 867 -240 863 -243 l 911 -207 q 950 -194 931 -194 q 997 -212 979 -194 q 1014 -258 1014 -231 q 992 -310 1014 -289 l 939 -346 q 844 -375 896 -375 z "},"å":{"ha":939,"x_min":86,"x_max":854,"o":"m 449 -6 q 263 44 344 -6 q 133 182 181 94 q 86 379 86 269 q 137 577 86 490 q 274 715 188 664 q 469 765 361 765 q 665 715 579 765 q 802 576 751 664 q 854 379 853 489 l 804 367 q 757 176 804 261 q 630 43 710 92 q 449 -6 550 -6 m 469 108 q 603 144 544 108 q 695 241 661 179 q 729 379 729 303 q 695 519 729 457 q 603 616 661 581 q 469 651 544 651 q 338 616 397 651 q 244 519 278 581 q 210 379 210 457 q 244 241 210 303 q 338 144 278 179 q 469 108 397 108 m 789 -1 q 743 17 761 -1 q 725 63 725 35 l 725 285 l 751 418 l 854 379 l 854 63 q 835 17 854 35 q 789 -1 817 -1 m 469 818 q 367 858 408 818 q 326 961 326 899 q 367 1065 326 1024 q 469 1106 408 1106 q 573 1065 532 1106 q 614 961 614 1024 q 574 859 614 900 q 469 818 533 818 m 469 889 q 522 910 501 889 q 542 961 542 931 q 522 1014 542 993 q 469 1035 501 1035 q 418 1014 439 1035 q 397 961 397 993 q 418 910 397 931 q 469 889 439 889 z "},"ǻ":{"ha":939,"x_min":86,"x_max":854,"o":"m 449 -6 q 263 44 344 -6 q 133 182 181 94 q 86 379 86 269 q 137 577 86 490 q 274 715 188 664 q 469 765 361 765 q 665 715 579 765 q 802 576 751 664 q 854 379 853 489 l 804 367 q 757 176 804 261 q 630 43 710 92 q 449 -6 550 -6 m 469 108 q 603 144 544 108 q 695 241 661 179 q 729 379 729 303 q 695 519 729 457 q 603 616 661 581 q 469 651 544 651 q 338 616 397 651 q 244 519 278 581 q 210 379 210 457 q 244 241 210 303 q 338 144 278 179 q 469 108 397 108 m 789 -1 q 743 17 761 -1 q 725 63 725 35 l 725 285 l 751 418 l 854 379 l 854 63 q 835 17 854 35 q 789 -1 817 -1 m 469 818 q 367 858 408 818 q 326 961 326 899 q 367 1065 326 1024 q 469 1106 408 1106 q 573 1065 532 1106 q 614 961 614 1024 q 574 859 614 900 q 469 818 533 818 m 469 889 q 522 910 501 889 q 542 961 542 931 q 522 1014 542 993 q 469 1035 501 1035 q 418 1014 439 1035 q 397 961 397 993 q 418 910 397 931 q 469 889 439 889 m 469 1158 q 424 1177 443 1158 q 406 1222 406 1196 q 421 1265 406 1249 l 565 1410 q 610 1428 583 1428 q 657 1409 639 1428 q 675 1363 675 1390 q 671 1339 675 1350 q 657 1318 667 1328 l 514 1175 q 469 1158 497 1158 z "},"ã":{"ha":939,"x_min":86,"x_max":854,"o":"m 449 -6 q 263 44 344 -6 q 133 182 181 94 q 86 379 86 269 q 137 577 86 490 q 274 715 188 664 q 469 765 361 765 q 665 715 579 765 q 802 576 751 664 q 854 379 853 489 l 804 367 q 757 176 804 261 q 630 43 710 92 q 449 -6 550 -6 m 469 108 q 603 144 544 108 q 695 241 661 179 q 729 379 729 303 q 695 519 729 457 q 603 616 661 581 q 469 651 544 651 q 338 616 397 651 q 244 519 278 581 q 210 379 210 457 q 244 241 210 303 q 338 144 278 179 q 469 108 397 108 m 789 -1 q 743 17 761 -1 q 725 63 725 35 l 725 285 l 751 418 l 854 379 l 854 63 q 835 17 854 35 q 789 -1 817 -1 m 618 867 q 538 882 572 867 q 479 911 504 897 q 429 935 450 928 q 392 943 408 943 q 351 934 369 943 q 315 901 333 925 q 278 872 300 881 q 233 875 256 863 q 210 908 214 885 q 221 953 206 932 q 299 1023 253 999 q 399 1047 346 1047 q 476 1032 443 1047 q 532 1004 508 1017 q 579 979 563 986 q 615 972 596 972 q 650 979 635 972 q 676 997 665 986 q 711 1022 694 1015 q 751 1015 728 1029 q 775 979 772 1004 q 761 933 778 954 q 618 867 707 867 z "},"æ":{"ha":1508,"x_min":86,"x_max":1453,"o":"m 1126 -6 q 931 44 1017 -6 q 797 180 844 93 q 749 379 749 267 q 794 580 749 493 q 921 716 840 667 q 1106 765 1001 765 q 1290 717 1213 765 q 1410 585 1368 669 q 1453 392 1453 501 q 1436 352 1453 368 q 1393 336 1419 336 l 822 336 l 822 439 l 1396 439 l 1338 399 q 1309 531 1338 472 q 1229 622 1281 589 q 1106 656 1178 656 q 969 619 1026 656 q 881 521 911 583 q 850 379 850 458 q 885 238 850 300 q 983 140 921 176 q 1126 104 1046 104 q 1221 121 1175 104 q 1296 160 1267 138 q 1337 176 1314 175 q 1375 163 1360 178 q 1398 119 1397 142 q 1378 81 1399 97 q 1261 19 1332 43 q 1126 -6 1190 -6 m 449 -6 q 263 45 344 -6 q 133 183 181 96 q 86 379 86 269 q 137 576 86 489 q 274 715 188 664 q 469 765 361 765 q 665 715 579 765 q 802 576 751 664 q 854 379 853 489 l 804 367 q 758 176 804 260 q 631 43 711 92 q 449 -6 550 -6 m 469 108 q 603 144 544 108 q 695 241 661 179 q 729 379 729 303 q 695 519 729 457 q 603 616 661 581 q 469 651 544 651 q 338 616 397 651 q 244 519 278 581 q 210 379 210 457 q 244 241 210 303 q 338 144 278 179 q 469 108 397 108 m 789 -1 q 743 17 761 -1 q 725 63 725 35 l 725 285 l 751 418 l 854 379 l 854 63 q 835 17 854 35 q 789 -1 817 -1 z "},"ǽ":{"ha":1508,"x_min":86,"x_max":1453,"o":"m 1126 -6 q 931 44 1017 -6 q 797 180 844 93 q 749 379 749 267 q 794 580 749 493 q 921 716 840 667 q 1106 765 1001 765 q 1290 717 1213 765 q 1410 585 1368 669 q 1453 392 1453 501 q 1436 352 1453 368 q 1393 336 1419 336 l 822 336 l 822 439 l 1396 439 l 1338 399 q 1309 531 1338 472 q 1229 622 1281 589 q 1106 656 1178 656 q 969 619 1026 656 q 881 521 911 583 q 850 379 850 458 q 885 238 850 300 q 983 140 921 176 q 1126 104 1046 104 q 1221 121 1175 104 q 1296 160 1267 138 q 1337 176 1314 175 q 1375 163 1360 178 q 1398 119 1397 142 q 1378 81 1399 97 q 1261 19 1332 43 q 1126 -6 1190 -6 m 449 -6 q 263 45 344 -6 q 133 183 181 96 q 86 379 86 269 q 137 576 86 489 q 274 715 188 664 q 469 765 361 765 q 665 715 579 765 q 802 576 751 664 q 854 379 853 489 l 804 367 q 758 176 804 260 q 631 43 711 92 q 449 -6 550 -6 m 469 108 q 603 144 544 108 q 695 241 661 179 q 729 379 729 303 q 695 519 729 457 q 603 616 661 581 q 469 651 544 651 q 338 616 397 651 q 244 519 278 581 q 210 379 210 457 q 244 241 210 303 q 338 144 278 179 q 469 108 397 108 m 789 -1 q 743 17 761 -1 q 725 63 725 35 l 725 285 l 751 418 l 854 379 l 854 63 q 835 17 854 35 q 789 -1 817 -1 m 768 878 q 723 897 742 878 q 704 942 704 915 q 719 985 704 968 l 864 1129 q 908 1147 882 1147 q 956 1128 938 1147 q 974 1082 974 1110 q 969 1058 974 1069 q 956 1038 965 1047 l 813 894 q 768 878 796 878 z "},"b":{"ha":979,"x_min":125,"x_max":893,"o":"m 508 -6 q 313 44 400 -6 q 176 182 226 94 q 125 378 126 269 l 125 1021 q 143 1067 125 1050 q 189 1085 161 1085 q 235 1067 218 1085 q 253 1021 253 1050 l 253 632 q 372 729 301 693 q 531 765 443 765 q 715 715 633 765 q 845 577 797 664 q 893 381 893 490 q 842 183 893 271 q 705 45 792 96 q 508 -6 618 -6 m 508 108 q 641 144 582 108 q 734 241 700 179 q 768 381 768 303 q 734 519 768 458 q 641 616 700 581 q 508 651 582 651 q 376 616 435 651 q 283 519 317 581 q 250 381 250 458 q 283 241 250 303 q 376 144 317 179 q 508 108 435 108 z "},"c":{"ha":832,"x_min":86,"x_max":751,"o":"m 467 -6 q 271 45 357 -6 q 135 183 185 96 q 86 379 86 269 q 134 579 86 492 q 265 716 182 667 q 458 765 349 765 q 610 733 540 765 q 733 638 679 701 q 747 596 751 618 q 718 557 742 574 q 679 549 701 544 q 640 572 657 553 q 458 651 567 651 q 328 617 385 651 q 241 522 272 582 q 210 379 210 461 q 242 240 210 301 q 333 144 275 179 q 467 108 392 108 q 558 121 518 108 q 631 161 599 133 q 672 179 650 178 q 710 167 693 181 q 733 126 731 149 q 718 88 736 104 q 467 -6 618 -6 z "},"ć":{"ha":832,"x_min":86,"x_max":751,"o":"m 467 -6 q 271 45 357 -6 q 135 183 185 96 q 86 379 86 269 q 134 579 86 492 q 265 716 182 667 q 458 765 349 765 q 610 733 540 765 q 733 638 679 701 q 747 596 751 618 q 718 557 742 574 q 679 549 701 544 q 640 572 657 553 q 458 651 567 651 q 328 617 385 651 q 241 522 272 582 q 210 379 210 461 q 242 240 210 301 q 333 144 275 179 q 467 108 392 108 q 558 121 518 108 q 631 161 599 133 q 672 179 650 178 q 710 167 693 181 q 733 126 731 149 q 718 88 736 104 q 467 -6 618 -6 m 457 878 q 412 897 431 878 q 393 942 393 915 q 408 985 393 968 l 553 1129 q 597 1147 571 1147 q 644 1128 626 1147 q 663 1082 663 1110 q 658 1058 663 1069 q 644 1038 654 1047 l 501 894 q 457 878 485 878 z "},"č":{"ha":832,"x_min":86,"x_max":751,"o":"m 467 -6 q 271 45 357 -6 q 135 183 185 96 q 86 379 86 269 q 134 579 86 492 q 265 716 182 667 q 458 765 349 765 q 610 733 540 765 q 733 638 679 701 q 747 596 751 618 q 718 557 742 574 q 679 549 701 544 q 640 572 657 553 q 458 651 567 651 q 328 617 385 651 q 241 522 272 582 q 210 379 210 461 q 242 240 210 301 q 333 144 275 179 q 467 108 392 108 q 558 121 518 108 q 631 161 599 133 q 672 179 650 178 q 710 167 693 181 q 733 126 731 149 q 718 88 736 104 q 467 -6 618 -6 m 458 875 q 426 885 439 875 l 267 990 q 236 1044 236 1013 q 267 1084 236 1072 q 342 1067 299 1096 l 458 988 l 575 1067 q 652 1085 624 1099 q 681 1044 681 1071 q 650 990 681 1013 l 492 885 q 458 875 478 875 z "},"ç":{"ha":832,"x_min":86,"x_max":751,"o":"m 467 -6 q 271 45 357 -6 q 135 183 185 96 q 86 379 86 269 q 134 579 86 492 q 265 716 182 667 q 458 765 349 765 q 610 733 540 765 q 733 638 679 701 q 747 596 751 618 q 718 557 742 574 q 679 549 701 544 q 640 572 657 553 q 458 651 567 651 q 328 617 385 651 q 241 522 272 582 q 210 379 210 461 q 242 240 210 301 q 333 144 275 179 q 467 108 392 108 q 558 121 518 108 q 631 161 599 133 q 672 179 650 178 q 710 167 693 181 q 733 126 731 149 q 718 88 736 104 q 467 -6 618 -6 m 439 -325 q 307 -291 358 -325 q 256 -212 256 -257 q 274 -170 256 -187 q 317 -153 292 -153 q 344 -160 332 -153 q 364 -185 356 -168 q 394 -217 374 -206 q 440 -228 414 -228 q 488 -215 469 -228 q 507 -178 507 -201 q 492 -136 507 -151 q 442 -114 478 -121 q 385 -87 401 -107 q 385 -26 369 -68 l 401 19 q 428 57 410 43 q 474 71 446 71 q 522 49 506 71 q 524 -1 538 28 l 503 -49 q 606 -98 575 -65 q 638 -181 638 -131 q 613 -250 638 -217 q 543 -304 588 -283 q 439 -325 499 -325 z "},"ĉ":{"ha":832,"x_min":86,"x_max":751,"o":"m 467 -6 q 271 45 357 -6 q 135 183 185 96 q 86 379 86 269 q 134 579 86 492 q 265 716 182 667 q 458 765 349 765 q 610 733 540 765 q 733 638 679 701 q 747 596 751 618 q 718 557 742 574 q 679 549 701 544 q 640 572 657 553 q 458 651 567 651 q 328 617 385 651 q 241 522 272 582 q 210 379 210 461 q 242 240 210 301 q 333 144 275 179 q 467 108 392 108 q 558 121 518 108 q 631 161 599 133 q 672 179 650 178 q 710 167 693 181 q 733 126 731 149 q 718 88 736 104 q 467 -6 618 -6 m 301 864 q 255 879 274 864 q 236 918 236 894 q 267 974 236 951 l 426 1078 q 458 1088 442 1088 q 476 1085 468 1088 q 492 1078 483 1083 l 650 974 q 681 918 681 951 q 663 879 681 894 q 617 864 644 864 q 595 867 604 864 q 575 878 586 871 l 458 960 l 342 878 q 301 864 324 864 z "},"ċ":{"ha":832,"x_min":86,"x_max":751,"o":"m 467 -6 q 271 45 357 -6 q 135 183 185 96 q 86 379 86 269 q 134 579 86 492 q 265 716 182 667 q 458 765 349 765 q 610 733 540 765 q 733 638 679 701 q 747 596 751 618 q 718 557 742 574 q 679 549 701 544 q 640 572 657 553 q 458 651 567 651 q 328 617 385 651 q 241 522 272 582 q 210 379 210 461 q 242 240 210 301 q 333 144 275 179 q 467 108 392 108 q 558 121 518 108 q 631 161 599 133 q 672 179 650 178 q 710 167 693 181 q 733 126 731 149 q 718 88 736 104 q 467 -6 618 -6 m 457 892 q 397 917 422 892 q 372 978 372 942 q 398 1038 372 1014 q 458 1063 424 1063 q 517 1038 492 1063 q 543 978 543 1014 q 518 917 543 942 q 457 892 493 892 z "},"d":{"ha":979,"x_min":86,"x_max":854,"o":"m 469 -6 q 274 45 361 -6 q 137 183 188 96 q 86 381 86 271 q 133 577 86 490 q 263 715 181 664 q 449 765 344 765 q 606 729 535 765 q 725 632 678 693 l 725 1021 q 743 1067 725 1050 q 789 1085 761 1085 q 836 1067 818 1085 q 854 1021 854 1050 l 854 378 q 802 182 853 269 q 665 44 751 94 q 469 -6 578 -6 m 469 108 q 603 144 544 108 q 695 241 661 179 q 729 381 729 303 q 695 519 729 458 q 603 616 661 581 q 469 651 544 651 q 338 616 397 651 q 244 519 278 581 q 210 381 210 458 q 244 241 210 303 q 338 144 278 179 q 469 108 397 108 z "},"ð":{"ha":932,"x_min":86,"x_max":835,"o":"m 456 -6 q 264 40 347 -6 q 133 168 181 86 q 86 356 86 250 q 131 542 86 461 q 253 668 175 622 q 433 714 332 714 q 608 669 532 714 q 728 546 685 624 q 771 364 771 468 l 835 364 q 785 173 835 257 q 651 42 736 89 q 456 -6 565 -6 m 456 108 q 588 140 531 108 q 678 226 646 171 q 711 356 711 282 q 678 481 711 426 q 588 567 646 536 q 456 599 531 599 q 328 567 383 599 q 241 481 272 536 q 210 356 210 426 q 241 226 210 282 q 328 140 272 171 q 456 108 383 108 m 738 363 l 735 489 q 713 683 733 603 q 644 819 692 763 q 518 919 597 876 q 321 1001 439 963 q 274 1029 288 1013 q 271 1071 261 1046 q 301 1098 279 1094 q 349 1092 324 1101 q 581 988 488 1042 q 729 865 674 933 q 809 708 785 797 q 833 503 833 619 l 835 363 l 738 363 m 351 842 q 328 863 335 850 q 333 896 322 876 l 463 1138 q 488 1160 474 1157 q 518 1151 501 1163 q 542 1126 538 1140 q 539 1097 547 1113 l 408 854 q 384 835 400 839 q 351 842 368 831 z "},"ď":{"ha":1110,"x_min":86,"x_max":1129,"o":"m 469 -6 q 274 45 361 -6 q 137 183 188 96 q 86 381 86 271 q 133 577 86 490 q 263 715 181 664 q 449 765 344 765 q 606 729 535 765 q 725 632 678 693 l 725 1021 q 743 1067 725 1050 q 789 1085 761 1085 q 836 1067 818 1085 q 854 1021 854 1050 l 854 378 q 802 182 853 269 q 665 44 751 94 q 469 -6 578 -6 m 469 108 q 603 144 544 108 q 695 241 661 179 q 729 381 729 303 q 695 519 729 458 q 603 616 661 581 q 469 651 544 651 q 338 616 397 651 q 244 519 278 581 q 210 381 210 458 q 244 241 210 303 q 338 144 278 179 q 469 108 397 108 m 950 710 q 925 721 933 713 q 918 746 917 729 q 938 792 921 768 q 974 844 956 817 q 996 907 992 872 q 994 953 1000 935 q 981 990 988 972 q 974 1036 974 1008 q 993 1079 974 1065 q 1040 1093 1013 1093 q 1106 1053 1083 1093 q 1121 961 1128 1014 q 1097 871 1117 917 q 1049 788 1076 825 q 996 729 1022 751 q 950 710 969 707 z "},"đ":{"ha":979,"x_min":86,"x_max":979,"o":"m 517 853 q 472 868 490 853 q 454 904 454 883 q 472 943 454 931 q 517 956 490 956 l 914 956 q 961 943 943 956 q 979 904 979 931 q 961 868 979 883 q 914 853 943 853 l 517 853 m 469 -6 q 274 45 361 -6 q 137 183 188 96 q 86 381 86 271 q 133 577 86 490 q 263 715 181 664 q 449 765 344 765 q 606 729 535 765 q 725 632 678 693 l 725 1021 q 743 1067 725 1050 q 789 1085 761 1085 q 836 1067 818 1085 q 854 1021 854 1050 l 854 378 q 802 182 853 269 q 665 44 751 94 q 469 -6 578 -6 m 469 108 q 603 144 544 108 q 695 241 661 179 q 729 381 729 303 q 695 519 729 458 q 603 616 661 581 q 469 651 544 651 q 338 616 397 651 q 244 519 278 581 q 210 381 210 458 q 244 241 210 303 q 338 144 278 179 q 469 108 397 108 z "},"e":{"ha":858,"x_min":86,"x_max":803,"o":"m 478 -6 q 274 44 363 -6 q 136 180 186 93 q 86 379 86 267 q 133 580 86 493 q 264 716 181 667 q 457 765 347 765 q 642 717 564 765 q 761 585 719 669 q 803 392 803 501 q 787 352 803 368 q 744 336 771 336 l 174 336 l 174 439 l 746 439 l 689 399 q 660 531 688 472 q 581 622 632 589 q 457 656 529 656 q 320 619 378 656 q 232 521 263 583 q 201 379 201 458 q 237 238 201 300 q 334 140 272 176 q 478 104 396 104 q 570 121 522 104 q 646 160 618 138 q 688 176 665 175 q 726 163 710 176 q 749 120 747 143 q 729 81 750 97 q 612 19 682 43 q 478 -6 542 -6 z "},"é":{"ha":858,"x_min":86,"x_max":803,"o":"m 478 -6 q 274 44 363 -6 q 136 180 186 93 q 86 379 86 267 q 133 580 86 493 q 264 716 181 667 q 457 765 347 765 q 642 717 564 765 q 761 585 719 669 q 803 392 803 501 q 787 352 803 368 q 744 336 771 336 l 174 336 l 174 439 l 746 439 l 689 399 q 660 531 688 472 q 581 622 632 589 q 457 656 529 656 q 320 619 378 656 q 232 521 263 583 q 201 379 201 458 q 237 238 201 300 q 334 140 272 176 q 478 104 396 104 q 570 121 522 104 q 646 160 618 138 q 688 176 665 175 q 726 163 710 176 q 749 120 747 143 q 729 81 750 97 q 612 19 682 43 q 478 -6 542 -6 m 444 878 q 399 897 418 878 q 381 942 381 915 q 396 985 381 968 l 540 1129 q 585 1147 558 1147 q 632 1128 614 1147 q 650 1082 650 1110 q 646 1058 650 1069 q 632 1038 642 1047 l 489 894 q 444 878 472 878 z "},"ĕ":{"ha":858,"x_min":86,"x_max":803,"o":"m 478 -6 q 274 44 363 -6 q 136 180 186 93 q 86 379 86 267 q 133 580 86 493 q 264 716 181 667 q 457 765 347 765 q 642 717 564 765 q 761 585 719 669 q 803 392 803 501 q 787 352 803 368 q 744 336 771 336 l 174 336 l 174 439 l 746 439 l 689 399 q 660 531 688 472 q 581 622 632 589 q 457 656 529 656 q 320 619 378 656 q 232 521 263 583 q 201 379 201 458 q 237 238 201 300 q 334 140 272 176 q 478 104 396 104 q 570 121 522 104 q 646 160 618 138 q 688 176 665 175 q 726 163 710 176 q 749 120 747 143 q 729 81 750 97 q 612 19 682 43 q 478 -6 542 -6 m 444 854 q 333 876 383 854 q 251 937 282 899 q 221 1024 221 975 q 238 1069 221 1050 q 282 1088 256 1088 q 324 1073 306 1088 q 343 1033 343 1058 q 374 980 343 1001 q 444 958 404 958 q 517 980 490 958 q 544 1033 544 1001 q 563 1073 544 1058 q 607 1088 582 1088 q 650 1069 633 1088 q 667 1024 667 1051 q 635 936 665 975 q 554 876 604 897 q 444 854 504 854 z "},"ě":{"ha":858,"x_min":86,"x_max":803,"o":"m 478 -6 q 274 44 363 -6 q 136 180 186 93 q 86 379 86 267 q 133 580 86 493 q 264 716 181 667 q 457 765 347 765 q 642 717 564 765 q 761 585 719 669 q 803 392 803 501 q 787 352 803 368 q 744 336 771 336 l 174 336 l 174 439 l 746 439 l 689 399 q 660 531 688 472 q 581 622 632 589 q 457 656 529 656 q 320 619 378 656 q 232 521 263 583 q 201 379 201 458 q 237 238 201 300 q 334 140 272 176 q 478 104 396 104 q 570 121 522 104 q 646 160 618 138 q 688 176 665 175 q 726 163 710 176 q 749 120 747 143 q 729 81 750 97 q 612 19 682 43 q 478 -6 542 -6 m 444 875 q 413 885 425 875 l 253 990 q 222 1044 222 1013 q 253 1084 222 1072 q 328 1067 285 1096 l 444 988 l 561 1067 q 638 1085 610 1099 q 667 1044 667 1071 q 636 990 667 1013 l 478 885 q 444 875 464 875 z "},"ê":{"ha":858,"x_min":86,"x_max":803,"o":"m 478 -6 q 274 44 363 -6 q 136 180 186 93 q 86 379 86 267 q 133 580 86 493 q 264 716 181 667 q 457 765 347 765 q 642 717 564 765 q 761 585 719 669 q 803 392 803 501 q 787 352 803 368 q 744 336 771 336 l 174 336 l 174 439 l 746 439 l 689 399 q 660 531 688 472 q 581 622 632 589 q 457 656 529 656 q 320 619 378 656 q 232 521 263 583 q 201 379 201 458 q 237 238 201 300 q 334 140 272 176 q 478 104 396 104 q 570 121 522 104 q 646 160 618 138 q 688 176 665 175 q 726 163 710 176 q 749 120 747 143 q 729 81 750 97 q 612 19 682 43 q 478 -6 542 -6 m 288 864 q 241 879 260 864 q 222 918 222 894 q 253 974 222 951 l 413 1078 q 444 1088 428 1088 q 462 1085 454 1088 q 478 1078 469 1083 l 636 974 q 667 918 667 951 q 649 879 667 894 q 603 864 631 864 q 581 867 590 864 q 561 878 572 871 l 444 960 l 328 878 q 288 864 310 864 z "}}}
